<?xml version="1.0" standalone="no"?>
<!DOCTYPE svg PUBLIC "-//W3C//DTD SVG 20010904//EN"
 "http://www.w3.org/TR/2001/REC-SVG-20010904/DTD/svg10.dtd">
<svg version="1.0" xmlns="http://www.w3.org/2000/svg"
 width="300.000000pt" height="300.000000pt" viewBox="0 0 300.000000 300.000000"
 preserveAspectRatio="xMidYMid meet">
<metadata>
Created by potrace 1.10, written by Peter Selinger 2001-2011
</metadata>
<g transform="translate(0.000000,300.000000) scale(0.050000,-0.050000)"
fill="#000000" stroke="none">
<path d="M1558 5871 c-522 -144 -837 -721 -666 -1223 29 -87 29 -97 -10 -189
-94 -216 38 -476 259 -511 l79 -13 0 -98 c0 -291 213 -557 498 -620 l112 -26
-189 -25 c-782 -105 -1397 -699 -1522 -1472 -86 -538 70 -948 430 -1125 l111
-54 0 -212 0 -213 2066 10 c1924 9 2069 12 2119 45 72 47 101 105 114 225 l11
100 250 -6 c292 -8 396 28 464 156 50 95 50 344 0 442 -34 67 -34 73 0 129 51
84 50 355 -1 439 -35 58 -35 62 0 120 52 85 52 355 0 440 -35 58 -35 62 0 120
92 151 32 477 -103 557 -82 48 -1309 50 -1402 2 -90 -46 -138 -140 -138 -269
l0 -109 -122 135 c-277 306 -676 503 -1107 546 l-139 14 123 34 c287 79 482
326 484 612 l1 103 79 13 c224 35 359 310 255 516 l-46 91 39 108 c149 412 -9
836 -347 930 -94 26 -151 60 -250 147 -71 62 -163 124 -206 137 -111 33 -1122
28 -1246 -6z m1188 -170 c27 -10 106 -68 174 -129 98 -87 154 -120 258 -151
220 -66 282 -157 282 -411 0 -251 -29 -353 -97 -338 -94 20 -103 26 -103 66 0
21 -24 67 -52 101 -103 122 -96 121 -904 121 -797 0 -845 5 -884 100 -47 114
22 188 178 189 l89 1 4 95 4 95 -103 0 c-276 -2 -360 -111 -368 -483 l-7 -273
-63 -10 c-95 -15 -104 7 -104 252 0 396 219 687 582 772 104 24 1052 27 1114
3z m-1051 -917 c269 -8 279 -16 271 -207 -7 -168 -21 -177 -283 -177 -277 0
-283 5 -283 245 0 164 3 178 35 163 19 -10 136 -20 260 -24z m661 -49 c-5 -40
-18 -45 -106 -45 -88 0 -101 5 -106 45 -6 42 0 45 106 45 106 0 112 -3 106
-45z m703 -8 c52 -67 57 -236 8 -290 -41 -46 -435 -55 -494 -12 -45 33 -57
260 -18 317 48 68 448 56 504 -15z m-1839 -417 c0 -213 -12 -228 -116 -140
-97 81 -98 198 -1 288 95 89 117 62 117 -148z m1137 111 c51 -170 143 -207
491 -198 l252 7 0 -212 c0 -550 -118 -638 -850 -638 -732 0 -850 88 -850 638
l0 212 252 -7 c348 -9 440 28 491 198 22 76 27 79 107 79 80 0 85 -3 107 -79z
m1050 26 c82 -81 78 -191 -8 -272 -104 -96 -119 -79 -119 135 0 215 24 241
127 137z m-913 -1301 c23 -34 -87 -203 -222 -342 -24 -24 -99 54 -275 287 -9
12 -4 39 11 60 40 57 448 52 486 -5z m-508 -335 l151 -189 -103 -156 -104
-155 -15 79 c-66 358 -105 610 -94 610 7 0 82 -85 165 -189z m660 -76 c-26
-146 -53 -301 -61 -345 l-15 -79 -103 154 -102 154 149 191 c82 104 156 190
164 190 8 0 -7 -119 -32 -265z m-958 -110 c32 -195 62 -380 67 -410 9 -51 5
-55 -58 -55 -213 0 -297 -142 -297 -504 0 -245 -2 -256 -41 -256 -59 0 -117
-34 -205 -117 l-75 -73 -73 40 c-144 79 -155 113 -162 481 l-7 329 -88 0 -89
0 0 -335 c1 -434 71 -586 307 -664 l73 -24 0 -191 0 -191 -145 9 c-919 61
-788 1528 190 2121 112 69 441 192 515 194 23 1 43 -77 88 -354z m1339 323
c541 -139 1013 -592 1013 -974 0 -119 10 -195 31 -236 27 -53 27 -63 0 -103
-17 -25 -31 -86 -31 -139 l0 -96 -100 0 -100 0 0 330 0 330 -90 0 -90 0 0
-330 0 -330 -92 0 c-239 0 -392 -359 -251 -590 35 -58 35 -62 -3 -125 -31 -54
-37 -95 -31 -235 l7 -170 -100 0 -100 0 6 805 c7 993 -6 1041 -270 1070 -84
10 -89 14 -81 63 5 29 35 212 67 407 32 195 66 355 75 355 10 0 73 -14 140
-32z m1376 -328 l-7 -100 102 0 102 0 0 100 0 100 90 0 90 0 0 -101 0 -101 95
6 95 6 -7 95 -7 95 102 0 102 0 0 -100 0 -100 90 0 90 0 0 100 0 100 69 0 c91
0 131 -58 131 -190 0 -198 26 -190 -652 -190 -701 0 -668 -9 -668 187 0 165
17 193 119 193 l71 0 -7 -100z m-2060 -295 c47 -74 90 -142 93 -150 4 -8 -80
-15 -186 -15 -106 0 -190 7 -186 15 13 28 180 285 186 285 3 0 45 -61 93 -135z
m2057 -265 l0 -100 100 0 100 0 0 100 0 100 90 0 90 0 0 -101 0 -101 95 6 95
6 -7 95 -7 95 102 0 102 0 0 -100 0 -100 90 0 90 0 0 100 0 100 69 0 c91 0
131 -58 131 -190 0 -198 28 -190 -667 -190 -696 0 -653 -13 -653 193 0 159 18
185 125 186 53 1 55 -3 55 -99z m-1535 -107 c32 -8 35 -72 40 -841 l5 -832
-660 0 -660 0 2 95 c3 92 5 95 71 106 344 56 411 539 96 695 -142 70 -159 119
-159 465 0 279 3 301 39 315 41 15 1166 12 1226 -3z m1541 -453 l0 -90 -93 -6
-93 -6 0 80 c0 91 36 125 128 117 55 -5 58 -10 58 -95z m374 -1 l0 -101 95 6
95 6 -7 95 -7 95 102 0 102 0 0 -100 0 -100 90 0 90 0 0 100 c0 98 1 100 60
100 126 0 195 -212 109 -336 -51 -72 -552 -68 -585 5 -32 71 -117 119 -231
131 l-99 10 1 85 c1 47 3 90 3 95 1 6 43 10 92 10 l90 0 0 -101z m-3304 -303
c13 -13 24 -59 24 -102 0 -73 4 -77 48 -66 181 45 306 -177 174 -310 -58 -57
-62 -58 -280 -58 l-222 0 0 214 c0 274 135 443 256 322z m2184 -76 l0 -100 90
0 90 0 0 100 0 100 102 0 101 0 -6 -95 -7 -95 95 -6 95 -6 0 101 0 101 95 0
95 0 -7 -101 -7 -101 97 6 97 6 0 95 0 95 71 0 c102 0 119 -28 119 -193 0
-196 33 -187 -668 -187 -678 0 -652 -8 -652 190 0 132 40 190 131 190 l69 0 0
-100z m1500 -180 l0 -100 90 0 90 0 0 100 c0 98 1 100 60 100 98 0 140 -60
140 -199 0 -176 -10 -181 -328 -181 -300 0 -362 31 -284 143 18 27 32 86 32
141 l0 96 100 0 100 0 0 -100z m-1500 -380 l0 -100 90 0 90 0 0 100 0 100 102
0 102 0 -7 -95 -7 -95 95 -6 95 -6 0 101 0 101 90 0 90 0 0 -100 0 -100 100 0
100 0 0 100 c0 108 43 132 141 79 46 -24 58 -292 15 -335 -51 -51 -1228 -32
-1265 20 -84 121 -20 336 100 336 l69 0 0 -100z m-2252 -187 l2 -93 -285 0
-285 0 0 95 0 95 283 -2 282 -1 3 -94z"/>
<path d="M1845 3935 c-36 -11 -65 -27 -65 -36 0 -47 144 -216 228 -268 214
-132 499 -63 647 157 81 121 81 121 -12 149 -106 32 -110 31 -139 -36 -37 -82
-150 -148 -254 -148 -104 0 -217 66 -254 148 -27 63 -48 67 -151 34z"/>
<path d="M1780 1500 l0 -280 470 0 470 0 0 280 0 280 -470 0 -470 0 0 -280z
m760 0 l0 -100 -290 0 -290 0 0 100 0 100 290 0 290 0 0 -100z"/>
<path d="M2160 940 l0 -100 90 0 90 0 0 100 0 100 -90 0 -90 0 0 -100z"/>
<path d="M2533 1027 c-7 -8 -13 -53 -13 -100 l0 -87 100 0 100 0 0 100 0 100
-87 0 c-47 0 -92 -6 -100 -13z"/>
<path d="M2160 560 l0 -100 90 0 90 0 0 100 0 100 -90 0 -90 0 0 -100z"/>
<path d="M2524 565 l6 -95 95 -6 95 -6 0 101 0 101 -101 0 -101 0 6 -95z"/>
<path d="M5340 4310 l0 -1030 -90 0 -90 0 0 845 0 845 -281 -2 -281 -2 2 -843
1 -843 -101 0 -100 0 0 660 0 660 -280 0 -280 0 0 -750 0 -750 1020 0 c561 0
1025 -2 1030 -5 6 -3 13 501 15 1120 l5 1125 -285 0 -285 0 0 -1030z m380 -90
l0 -940 -95 0 -95 0 0 940 0 940 95 0 95 0 0 -940z m-750 -190 l0 -750 -95 0
-95 0 0 750 0 750 95 0 95 0 0 -750z m-750 -185 l0 -565 -95 0 -95 0 4 565 c3
311 5 565 5 565 1 0 42 0 91 0 l90 0 0 -565z"/>
</g>
</svg>
