<svg xmlns="http://www.w3.org/2000/svg" xmlns:xlink="http://www.w3.org/1999/xlink" width="500" zoomAndPan="magnify" viewBox="0 0 375 374.999991" height="500" preserveAspectRatio="xMidYMid meet" version="1.0"><defs><clipPath id="id1"><path d="M 123 14.1875 L 255 14.1875 L 255 92 L 123 92 Z M 123 14.1875 " clip-rule="nonzero"/></clipPath><clipPath id="id2"><path d="M 57.128906 168.128906 L 317.261719 168.128906 L 317.261719 317.1875 L 57.128906 317.1875 Z M 57.128906 168.128906 " clip-rule="nonzero"/></clipPath><clipPath id="id3"><path d="M 0.222656 305.394531 L 374.816406 305.394531 L 374.816406 317.1875 L 0.222656 317.1875 Z M 0.222656 305.394531 " clip-rule="nonzero"/></clipPath><clipPath id="id4"><path d="M 88.628906 283.027344 L 286.777344 283.027344 L 286.777344 317.1875 L 88.628906 317.1875 Z M 88.628906 283.027344 " clip-rule="nonzero"/></clipPath></defs><path fill="#b3614b" d="M 130.65625 85.726562 C 128.675781 83.09375 128.230469 78.832031 127.886719 75.675781 C 126.777344 65.605469 126.894531 57.628906 127.839844 55.363281 C 128.417969 54 131.324219 47.3125 138.179688 40.6875 C 149.257812 29.96875 167.503906 24.363281 176.792969 22.429688 C 184.308594 20.867188 192.257812 20.078125 200.027344 20.617188 C 204.355469 20.917969 208.890625 21.472656 213.097656 22.539062 C 216.558594 23.414062 219.988281 25.074219 222.066406 27.976562 C 224.304688 31.101562 224.847656 35.054688 227.527344 37.917969 C 230.453125 41.046875 234.441406 42.914062 237.433594 45.964844 C 241.4375 50.050781 245.421875 56.476562 246 62.242188 C 246.519531 67.433594 244.242188 72.328125 241.621094 76.660156 C 241.152344 77.433594 235.679688 85.929688 234.933594 85.96875 C 234.917969 85.960938 234.898438 85.953125 234.882812 85.949219 C 233.800781 84.804688 231.269531 77.222656 222.332031 65.886719 C 219.8125 62.691406 218.625 61.367188 217.65625 60.417969 C 217.007812 59.789062 215.015625 57.898438 212.078125 55.855469 C 211.128906 55.191406 209.097656 53.707031 208.554688 54.632812 C 207.4375 56.457031 205.527344 59.039062 202.402344 60.992188 C 197.605469 63.988281 192.710938 63.785156 188.375 63.683594 C 188.375 63.683594 173.96875 63.335938 158.355469 64.417969 C 152.683594 64.8125 146.625 65.117188 141.503906 67.851562 C 134.902344 71.367188 132.609375 78.710938 131.375 85.582031 C 131.34375 85.738281 131.242188 85.878906 131.097656 85.929688 C 131.09375 85.933594 131.089844 85.933594 131.085938 85.933594 C 130.878906 86 130.753906 85.859375 130.65625 85.726562 " fill-opacity="1" fill-rule="evenodd"/><path fill="#ebb39e" d="M 217.617188 186.714844 L 204.40625 198.5 L 169.265625 198.5 L 157.277344 187.238281 L 157.300781 187.214844 C 159.574219 182.628906 162.078125 170.632812 162.183594 166.464844 C 162.289062 162.453125 161.582031 159.773438 160.839844 156.929688 C 168.925781 162.808594 176.546875 164.59375 178.269531 164.972656 C 187.976562 167.117188 195.707031 165.449219 197.707031 164.972656 C 205.109375 163.222656 210.136719 159.890625 212.574219 158.21875 C 211.984375 160.511719 211.5 163.101562 211.582031 166.464844 C 211.792969 174.417969 214.761719 181.617188 217.617188 186.714844 " fill-opacity="1" fill-rule="evenodd"/><path fill="#f4baa6" d="M 160.839844 156.929688 C 160.089844 156.386719 159.335938 155.804688 158.585938 155.1875 C 156.316406 153.332031 147.875 146.074219 143.324219 133.414062 C 141.851562 129.3125 140.960938 124.429688 140.617188 121.914062 C 127.421875 118.082031 118.832031 98.535156 133.238281 85.949219 L 133.230469 85.933594 C 133.238281 85.933594 133.238281 85.933594 133.242188 85.929688 C 133.390625 85.878906 133.488281 85.738281 133.523438 85.582031 C 134.757812 78.710938 137.054688 71.367188 143.652344 67.855469 C 148.773438 65.117188 154.828125 64.8125 160.503906 64.417969 C 176.121094 63.335938 190.519531 63.683594 190.519531 63.683594 C 194.859375 63.789062 199.753906 63.988281 204.550781 60.996094 C 207.671875 59.042969 209.589844 56.460938 210.703125 54.632812 C 211.25 53.710938 213.273438 55.195312 214.226562 55.855469 C 217.167969 57.898438 219.15625 59.789062 219.804688 60.421875 C 220.773438 61.367188 221.960938 62.695312 224.480469 65.886719 C 233.421875 77.222656 235.945312 84.804688 237.03125 85.949219 C 237.046875 85.964844 237.0625 85.96875 237.082031 85.96875 C 253.75 91.390625 248.105469 119.414062 235.214844 121.589844 C 233.789062 128.296875 230.523438 139.636719 222.558594 149.074219 C 218.097656 154.355469 213.792969 157.386719 212.714844 158.125 C 212.671875 158.15625 212.621094 158.1875 212.574219 158.21875 C 210.136719 159.890625 205.109375 163.222656 197.707031 164.976562 C 195.707031 165.449219 187.976562 167.117188 178.269531 164.976562 C 176.546875 164.59375 168.925781 162.808594 160.839844 156.929688 " fill-opacity="1" fill-rule="evenodd"/><path fill="#6a8899" d="M 280.558594 289.839844 L 280.558594 292.597656 C 280.558594 302.996094 272.136719 311.421875 261.746094 311.421875 L 113.292969 311.421875 C 102.90625 311.421875 94.484375 302.996094 94.484375 292.597656 L 94.484375 289.839844 L 280.558594 289.839844 " fill-opacity="1" fill-rule="evenodd"/><path fill="#6a8899" d="M 267.78125 208.261719 L 267.78125 289.839844 L 107.261719 289.839844 L 107.261719 208.261719 C 107.261719 202.871094 111.628906 198.5 117.011719 198.5 L 258.027344 198.5 C 263.414062 198.5 267.78125 202.871094 267.78125 208.261719 " fill-opacity="1" fill-rule="evenodd"/><path fill="#f7e07f" d="M 94.484375 292.597656 C 94.484375 302.996094 102.90625 311.421875 113.292969 311.421875 L 63.757812 311.421875 C 63.726562 301.40625 63.816406 252.835938 73.066406 223.011719 C 75.335938 215.683594 77.964844 210.121094 81.335938 205.019531 C 83.226562 202.15625 91.515625 190.121094 107.703125 181.886719 C 122.742188 174.238281 136.679688 173.902344 143.371094 174.175781 L 157.277344 187.238281 L 169.265625 198.5 L 117.011719 198.5 C 111.628906 198.5 107.261719 202.871094 107.261719 208.261719 L 107.261719 289.839844 L 94.484375 289.839844 L 94.484375 292.597656 " fill-opacity="1" fill-rule="evenodd"/><path fill="#f7e07f" d="M 301.976562 223.011719 C 311.226562 252.835938 311.3125 301.40625 311.28125 311.421875 L 261.746094 311.421875 C 272.136719 311.421875 280.558594 302.996094 280.558594 292.597656 L 280.558594 289.839844 L 267.78125 289.839844 L 267.78125 208.261719 C 267.78125 202.871094 263.414062 198.5 258.027344 198.5 L 204.40625 198.5 L 217.617188 186.714844 L 231.667969 174.175781 C 238.359375 173.902344 252.300781 174.238281 267.339844 181.886719 C 283.527344 190.121094 291.816406 202.15625 293.703125 205.019531 C 297.078125 210.121094 299.707031 215.683594 301.976562 223.011719 " fill-opacity="1" fill-rule="evenodd"/><g clip-path="url(#id1)"><path fill="#333333" d="M 237.089844 91.824219 C 235.46875 91.824219 233.894531 91.15625 232.773438 89.976562 C 231.878906 89.023438 231.332031 87.929688 230.417969 86.121094 C 228.847656 82.992188 225.925781 77.175781 219.886719 69.519531 C 217.390625 66.351562 216.40625 65.289062 215.710938 64.613281 C 215.238281 64.148438 214.140625 63.109375 212.550781 61.886719 C 211.085938 63.476562 209.445312 64.839844 207.648438 65.96875 C 201.484375 69.8125 195.257812 69.660156 190.707031 69.554688 L 190.382812 69.546875 C 190.238281 69.542969 176.050781 69.21875 160.90625 70.269531 L 160.179688 70.316406 C 155.277344 70.648438 150.203125 70.996094 146.402344 73.023438 C 142.777344 74.960938 140.648438 79.027344 139.28125 86.628906 C 138.875 88.859375 137.3125 90.710938 135.1875 91.460938 C 132.601562 92.375 129.828125 91.511719 128.128906 89.257812 C 125.207031 85.375 124.636719 80.214844 124.226562 76.445312 L 124.214844 76.316406 C 123.628906 71.003906 122.496094 58.097656 124.59375 53.101562 C 125.726562 50.398438 129.136719 43.363281 136.257812 36.476562 C 150.246094 22.953125 173.273438 17.628906 177.75 16.699219 C 186.484375 14.886719 194.839844 14.238281 202.582031 14.777344 C 208.03125 15.160156 212.648438 15.839844 216.683594 16.863281 C 222.097656 18.234375 226.347656 20.898438 228.972656 24.574219 C 230.332031 26.46875 231.164062 28.414062 231.894531 30.128906 C 232.574219 31.710938 233.15625 33.074219 233.949219 33.921875 C 235.058594 35.105469 236.566406 36.183594 238.160156 37.324219 C 239.941406 38.589844 241.953125 40.023438 243.761719 41.871094 C 248.191406 46.390625 253.203125 53.964844 253.972656 61.660156 C 254.695312 68.855469 251.578125 75.078125 248.78125 79.699219 C 248.457031 80.226562 246.914062 82.628906 245.378906 84.878906 C 242.261719 89.441406 240.757812 91.46875 237.710938 91.796875 C 237.503906 91.8125 237.296875 91.824219 237.089844 91.824219 Z M 241.707031 82.449219 Z M 211.277344 48.480469 C 213.898438 48.480469 216.058594 49.992188 217.433594 50.953125 L 217.566406 51.050781 C 220.65625 53.203125 222.859375 55.222656 223.894531 56.234375 C 225.019531 57.335938 226.328125 58.78125 229.070312 62.257812 C 233.074219 67.328125 235.851562 71.679688 237.816406 75.109375 C 238.238281 74.464844 238.574219 73.9375 238.765625 73.625 C 241.515625 69.082031 242.613281 65.75 242.316406 62.824219 C 241.945312 59.089844 239.097656 53.839844 235.398438 50.066406 C 234.3125 48.960938 232.882812 47.9375 231.367188 46.859375 C 229.460938 45.5 227.304688 43.964844 225.398438 41.921875 C 223.191406 39.570312 222.050781 36.886719 221.128906 34.730469 C 220.5625 33.394531 220.070312 32.242188 219.453125 31.382812 C 218.46875 30.015625 216.464844 28.890625 213.808594 28.214844 C 210.453125 27.363281 206.515625 26.789062 201.765625 26.460938 C 195.09375 25.996094 187.8125 26.570312 180.125 28.164062 C 169.296875 30.414062 153.441406 36.144531 144.390625 44.898438 C 138.800781 50.296875 136.171875 55.789062 135.433594 57.515625 C 135.191406 58.449219 134.941406 61.726562 135.207031 67.113281 C 136.761719 65.40625 138.628906 63.886719 140.898438 62.679688 C 146.90625 59.472656 153.535156 59.019531 159.386719 58.621094 L 160.097656 58.570312 C 175.804688 57.484375 190.058594 57.808594 190.660156 57.824219 L 190.988281 57.832031 C 194.890625 57.925781 198.261719 58.007812 201.445312 56.019531 C 203.109375 54.980469 204.53125 53.492188 205.6875 51.597656 C 206.613281 50.058594 208.085938 49.003906 209.84375 48.625 C 210.335938 48.523438 210.816406 48.480469 211.277344 48.480469 Z M 215.730469 57.625 Z M 135.449219 57.460938 Z M 135.449219 57.460938 " fill-opacity="1" fill-rule="evenodd"/></g><path fill="#333333" d="M 188.082031 171.902344 C 184.785156 171.902344 181.039062 171.585938 177.007812 170.695312 C 173.410156 169.902344 164.054688 167.238281 154.871094 159.722656 C 150.476562 156.113281 142.40625 148.15625 137.820312 135.394531 C 136.652344 132.152344 135.871094 128.691406 135.394531 126.167969 C 132.3125 124.703125 129.476562 122.566406 127.066406 119.867188 C 123.824219 116.246094 121.566406 111.851562 120.535156 107.179688 C 118.425781 97.640625 121.652344 88.296875 129.390625 81.535156 C 131.824219 79.40625 135.523438 79.65625 137.644531 82.097656 C 139.773438 84.535156 139.523438 88.238281 137.085938 90.363281 C 131.347656 95.375 131.132812 100.898438 131.960938 104.648438 C 133.164062 110.09375 137.394531 114.878906 142.25 116.289062 C 144.472656 116.9375 146.109375 118.832031 146.417969 121.132812 C 146.777344 123.78125 147.625 128.066406 148.832031 131.429688 C 152.597656 141.917969 159.496094 148.371094 162.289062 150.65625 C 169.515625 156.578125 176.75 158.644531 179.527344 159.257812 C 187.421875 161 193.925781 159.847656 196.359375 159.277344 C 202.988281 157.710938 207.476562 154.621094 209.394531 153.296875 C 210.78125 152.347656 214.398438 149.660156 218.085938 145.292969 C 223.417969 138.976562 227.359375 130.359375 229.492188 120.367188 C 229.992188 118.015625 231.878906 116.214844 234.242188 115.8125 C 238.027344 115.175781 242.84375 108.628906 243.386719 101.144531 C 243.753906 95.980469 242.023438 92.742188 238.238281 91.527344 C 235.160156 90.53125 233.464844 87.234375 234.457031 84.15625 C 235.445312 81.078125 238.746094 79.382812 241.820312 80.375 C 246.644531 81.925781 250.394531 85.019531 252.671875 89.320312 C 254.574219 92.910156 255.398438 97.292969 255.058594 101.988281 C 254.363281 111.617188 248.746094 122.363281 240.15625 126.164062 C 237.480469 136.738281 233.070312 145.699219 227.027344 152.855469 C 222.589844 158.109375 218.234375 161.4375 216.03125 162.949219 C 213.785156 164.5 207.820312 168.605469 199.050781 170.675781 C 196.691406 171.230469 192.859375 171.902344 188.082031 171.902344 " fill-opacity="1" fill-rule="evenodd"/><path fill="#333333" d="M 157.296875 190.746094 C 156.425781 190.746094 155.535156 190.550781 154.699219 190.136719 C 151.804688 188.699219 150.617188 185.183594 152.054688 182.285156 C 153.578125 179.214844 156.15625 173.0625 156.332031 166.316406 C 156.402344 163.730469 156.0625 162.53125 155.503906 160.550781 C 155.34375 159.992188 155.164062 159.355469 154.984375 158.660156 C 154.183594 155.527344 156.070312 152.332031 159.199219 151.53125 C 162.332031 150.730469 165.523438 152.617188 166.324219 155.746094 C 166.464844 156.300781 166.609375 156.8125 166.765625 157.355469 C 167.449219 159.761719 168.148438 162.246094 168.035156 166.625 C 167.800781 175.617188 164.496094 183.558594 162.546875 187.492188 C 161.523438 189.550781 159.449219 190.746094 157.296875 190.746094 " fill-opacity="1" fill-rule="evenodd"/><path fill="#333333" d="M 217.625 192.570312 C 215.574219 192.570312 213.585938 191.492188 212.511719 189.578125 C 209.558594 184.296875 205.980469 176.039062 205.730469 166.625 C 205.621094 162.246094 206.324219 159.761719 207.003906 157.359375 C 207.066406 157.132812 207.128906 156.90625 207.195312 156.675781 C 208.0625 153.558594 211.289062 151.734375 214.402344 152.601562 C 217.515625 153.464844 219.34375 156.691406 218.472656 159.808594 C 218.40625 160.0625 218.335938 160.308594 218.265625 160.550781 C 217.707031 162.53125 217.367188 163.730469 217.433594 166.324219 C 217.621094 173.339844 220.410156 179.730469 222.726562 183.855469 C 224.304688 186.671875 223.300781 190.246094 220.480469 191.824219 C 219.578125 192.328125 218.59375 192.570312 217.625 192.570312 " fill-opacity="1" fill-rule="evenodd"/><g clip-path="url(#id2)"><path fill="#333333" d="M 311.28125 317.277344 L 63.757812 317.277344 C 60.535156 317.277344 57.914062 314.667969 57.90625 311.441406 C 57.851562 293.792969 58.671875 249.671875 67.476562 221.277344 C 69.820312 213.695312 72.679688 207.5 76.457031 201.785156 C 79.617188 197.003906 88.730469 184.964844 105.050781 176.667969 C 119.976562 169.074219 134.265625 167.9375 143.613281 168.324219 C 145.015625 168.382812 146.355469 168.945312 147.378906 169.90625 L 173.273438 194.230469 C 175.628906 196.445312 175.746094 200.148438 173.53125 202.507812 C 171.320312 204.863281 167.617188 204.980469 165.261719 202.765625 L 140.992188 179.972656 C 133.085938 179.894531 121.941406 181.210938 110.355469 187.101562 C 96.527344 194.136719 88.871094 204.230469 86.222656 208.246094 C 83.027344 213.074219 80.699219 218.15625 78.65625 224.742188 C 71.089844 249.160156 69.796875 287.738281 69.632812 305.5625 L 305.414062 305.5625 C 305.246094 287.738281 303.957031 249.160156 296.386719 224.742188 C 294.347656 218.15625 292.015625 213.070312 288.824219 208.25 C 286.175781 204.230469 278.515625 194.136719 264.6875 187.101562 C 253.0625 181.1875 241.878906 179.894531 233.964844 179.972656 L 208.304688 202.867188 C 205.894531 205.019531 202.195312 204.808594 200.039062 202.394531 C 197.886719 199.984375 198.101562 196.28125 200.511719 194.125 L 227.777344 169.800781 C 228.785156 168.898438 230.078125 168.375 231.429688 168.320312 C 240.78125 167.933594 255.0625 169.070312 269.992188 176.660156 C 286.308594 184.960938 295.425781 196.996094 298.585938 201.785156 C 302.367188 207.496094 305.214844 213.691406 307.570312 221.273438 C 316.375 249.667969 317.191406 293.785156 317.140625 311.4375 C 317.128906 314.667969 314.507812 317.277344 311.28125 317.277344 " fill-opacity="1" fill-rule="evenodd"/></g><g clip-path="url(#id3)"><path fill="#333333" d="M 368.960938 317.28125 L 6.078125 317.28125 C 2.847656 317.28125 0.222656 314.65625 0.222656 311.421875 C 0.222656 308.191406 2.847656 305.570312 6.078125 305.570312 L 368.960938 305.570312 C 372.195312 305.570312 374.816406 308.191406 374.816406 311.421875 C 374.816406 314.65625 372.195312 317.28125 368.960938 317.28125 " fill-opacity="1" fill-rule="evenodd"/></g><g clip-path="url(#id4)"><path fill="#333333" d="M 261.746094 317.28125 L 113.292969 317.28125 C 99.695312 317.28125 88.628906 306.207031 88.628906 292.601562 L 88.628906 289.839844 C 88.628906 286.609375 91.253906 283.988281 94.484375 283.988281 L 280.558594 283.988281 C 283.789062 283.988281 286.414062 286.609375 286.414062 289.839844 L 286.414062 292.601562 C 286.414062 306.207031 275.347656 317.28125 261.746094 317.28125 Z M 100.707031 295.695312 C 102.101562 301.355469 107.214844 305.566406 113.292969 305.566406 L 261.742188 305.566406 C 267.824219 305.566406 272.9375 301.355469 274.328125 295.695312 L 100.707031 295.695312 " fill-opacity="1" fill-rule="evenodd"/></g><path fill="#333333" d="M 267.78125 295.695312 L 107.261719 295.695312 C 104.027344 295.695312 101.40625 293.074219 101.40625 289.839844 L 101.40625 208.261719 C 101.40625 199.648438 108.40625 192.644531 117.011719 192.644531 L 258.027344 192.644531 C 266.632812 192.644531 273.636719 199.648438 273.636719 208.261719 L 273.636719 289.839844 C 273.636719 293.074219 271.015625 295.695312 267.78125 295.695312 Z M 113.113281 283.984375 L 261.929688 283.984375 L 261.929688 208.261719 C 261.929688 206.113281 260.179688 204.355469 258.027344 204.355469 L 117.011719 204.355469 C 114.863281 204.355469 113.113281 206.113281 113.113281 208.261719 L 113.113281 283.984375 " fill-opacity="1" fill-rule="evenodd"/><path fill="#333333" d="M 164.410156 266.527344 C 163.171875 266.527344 161.925781 266.132812 160.867188 265.324219 L 139.277344 248.824219 C 137.828125 247.714844 136.976562 245.996094 136.976562 244.167969 C 136.976562 242.347656 137.828125 240.625 139.277344 239.519531 L 160.867188 223.019531 C 163.429688 221.058594 167.105469 221.546875 169.066406 224.121094 C 171.03125 226.691406 170.539062 230.363281 167.96875 232.328125 L 152.472656 244.167969 L 167.96875 256.011719 C 170.535156 257.980469 171.027344 261.652344 169.066406 264.222656 C 167.917969 265.730469 166.171875 266.527344 164.410156 266.527344 " fill-opacity="1" fill-rule="evenodd"/><path fill="#333333" d="M 210.625 266.527344 C 208.867188 266.527344 207.121094 265.730469 205.972656 264.222656 C 204.011719 261.652344 204.5 257.980469 207.074219 256.015625 L 222.566406 244.171875 L 207.074219 232.328125 C 204.503906 230.367188 204.007812 226.691406 205.972656 224.121094 C 207.933594 221.550781 211.605469 221.058594 214.175781 223.019531 L 235.765625 239.519531 C 237.214844 240.625 238.0625 242.347656 238.0625 244.171875 C 238.0625 245.996094 237.210938 247.71875 235.765625 248.824219 L 214.175781 265.324219 C 213.113281 266.132812 211.863281 266.527344 210.625 266.527344 " fill-opacity="1" fill-rule="evenodd"/><path fill="#333333" d="M 180.472656 275.289062 C 179.945312 275.289062 179.417969 275.21875 178.890625 275.070312 C 175.78125 274.195312 173.960938 270.96875 174.832031 267.851562 L 188.941406 217.339844 C 189.8125 214.226562 193.039062 212.40625 196.148438 213.277344 C 199.265625 214.148438 201.078125 217.378906 200.210938 220.492188 L 186.105469 271.007812 C 185.382812 273.59375 183.03125 275.289062 180.472656 275.289062 " fill-opacity="1" fill-rule="evenodd"/></svg>