<svg xmlns="http://www.w3.org/2000/svg" xmlns:xlink="http://www.w3.org/1999/xlink" width="500" zoomAndPan="magnify" viewBox="0 0 375 374.999991" height="500" preserveAspectRatio="xMidYMid meet" version="1.0"><defs><g/><clipPath id="id1"><path d="M 51.398438 4 L 319.898438 4 L 319.898438 257 L 51.398438 257 Z M 51.398438 4 " clip-rule="nonzero"/></clipPath><clipPath id="id2"><path d="M 141.28125 210.269531 C 125.5625 208.480469 111.265625 202.855469 99.375 193.609375 L 99.621094 193.320312 C 105.667969 194.335938 111.824219 194.828125 118.023438 194.828125 C 128.832031 194.828125 139.800781 193.320312 150.609375 190.433594 C 159.40625 188.082031 168.09375 184.8125 176.535156 180.683594 C 195.375 171.476562 212.941406 158.015625 227.550781 140.957031 C 244.828125 120.765625 252.285156 102.105469 250.34375 83.914062 C 250.054688 81.230469 249.5625 78.578125 248.851562 75.910156 C 275.105469 103.023438 282.300781 126.292969 251.917969 161.804688 C 230.644531 186.648438 202.542969 203.390625 172.773438 208.945312 C 172.761719 208.945312 172.734375 208.945312 172.71875 208.957031 C 168.070312 209.820312 163.484375 210.394531 158.96875 210.667969 C 152.910156 211.050781 147 210.914062 141.28125 210.269531 Z M 158.53125 173.59375 C 180.148438 165.550781 200.683594 151.296875 217.152344 132.050781 C 231.191406 115.660156 237.085938 101.941406 237.085938 89.480469 C 237.085938 76.359375 230.535156 64.625 220.082031 52.585938 L 209.808594 64.582031 L 209.792969 64.582031 L 209.792969 64.597656 L 209.78125 64.625 L 172.105469 108.632812 L 167.507812 114.007812 L 132.71875 154.648438 L 110.28125 180.859375 L 110.292969 180.859375 C 126.164062 182.105469 142.636719 179.53125 158.53125 173.59375 Z M 319.863281 27.75 L 301.972656 39.457031 C 301.304688 41.753906 300.292969 44.007812 298.925781 46.199219 C 290.167969 60.261719 270.167969 65.746094 254.269531 58.453125 C 238.359375 51.148438 232.574219 33.832031 241.34375 19.769531 C 250.113281 5.707031 270.097656 0.21875 286.007812 7.523438 C 292.726562 10.617188 297.636719 15.484375 300.414062 21.148438 L 300.414062 21.15625 Z M 271.90625 19.234375 C 268.71875 16.5 263.914062 16.867188 261.191406 20.070312 C 258.457031 23.257812 258.839844 28.042969 262.027344 30.78125 C 265.214844 33.503906 270.019531 33.132812 272.742188 29.945312 C 275.476562 26.757812 275.09375 21.957031 271.90625 19.234375 Z M 51.398438 249.640625 C 59.511719 254.6875 68.976562 257.027344 78.679688 256.273438 C 90.703125 255.332031 101.621094 249.777344 109.445312 240.640625 L 125.945312 221.363281 C 112.90625 218.066406 100.910156 212.242188 90.46875 203.992188 Z M 182.679688 242.84375 L 176.589844 222.132812 C 176.152344 222.226562 175.714844 222.308594 175.277344 222.390625 C 171.117188 223.171875 166.988281 223.746094 162.910156 224.101562 L 168.410156 242.84375 L 137.863281 242.84375 L 137.863281 256.523438 L 279.335938 256.523438 L 279.335938 242.84375 Z M 182.679688 242.84375 " clip-rule="nonzero"/></clipPath><linearGradient x1="0.00000179984" gradientTransform="matrix(0.921414, 0, 0, 0.921335, 51.398368, 4.2908)" y1="136.884995" x2="291.361991" gradientUnits="userSpaceOnUse" y2="136.884995" id="id3"><stop stop-opacity="1" stop-color="rgb(90.59906%, 83.099365%, 61.999512%)" offset="0"/><stop stop-opacity="1" stop-color="rgb(90.527344%, 82.983398%, 61.791992%)" offset="0.00390625"/><stop stop-opacity="1" stop-color="rgb(90.455627%, 82.868958%, 61.584473%)" offset="0.0078125"/><stop stop-opacity="1" stop-color="rgb(90.383911%, 82.754517%, 61.376953%)" offset="0.0117187"/><stop stop-opacity="1" stop-color="rgb(90.312195%, 82.640076%, 61.170959%)" offset="0.015625"/><stop stop-opacity="1" stop-color="rgb(90.238953%, 82.524109%, 60.96344%)" offset="0.0195312"/><stop stop-opacity="1" stop-color="rgb(90.167236%, 82.409668%, 60.757446%)" offset="0.0234375"/><stop stop-opacity="1" stop-color="rgb(90.09552%, 82.295227%, 60.549927%)" offset="0.0273438"/><stop stop-opacity="1" stop-color="rgb(90.023804%, 82.180786%, 60.342407%)" offset="0.03125"/><stop stop-opacity="1" stop-color="rgb(89.952087%, 82.064819%, 60.134888%)" offset="0.0351562"/><stop stop-opacity="1" stop-color="rgb(89.880371%, 81.950378%, 59.928894%)" offset="0.0390625"/><stop stop-opacity="1" stop-color="rgb(89.808655%, 81.835938%, 59.721375%)" offset="0.0429688"/><stop stop-opacity="1" stop-color="rgb(89.736938%, 81.721497%, 59.515381%)" offset="0.046875"/><stop stop-opacity="1" stop-color="rgb(89.665222%, 81.60553%, 59.307861%)" offset="0.0507812"/><stop stop-opacity="1" stop-color="rgb(89.593506%, 81.491089%, 59.100342%)" offset="0.0546875"/><stop stop-opacity="1" stop-color="rgb(89.520264%, 81.376648%, 58.892822%)" offset="0.0585938"/><stop stop-opacity="1" stop-color="rgb(89.448547%, 81.262207%, 58.686829%)" offset="0.0625"/><stop stop-opacity="1" stop-color="rgb(89.376831%, 81.14624%, 58.479309%)" offset="0.0664062"/><stop stop-opacity="1" stop-color="rgb(89.305115%, 81.031799%, 58.273315%)" offset="0.0703125"/><stop stop-opacity="1" stop-color="rgb(89.233398%, 80.917358%, 58.065796%)" offset="0.0742187"/><stop stop-opacity="1" stop-color="rgb(89.161682%, 80.802917%, 57.858276%)" offset="0.078125"/><stop stop-opacity="1" stop-color="rgb(89.089966%, 80.686951%, 57.650757%)" offset="0.0820312"/><stop stop-opacity="1" stop-color="rgb(89.01825%, 80.57251%, 57.444763%)" offset="0.0859375"/><stop stop-opacity="1" stop-color="rgb(88.946533%, 80.458069%, 57.237244%)" offset="0.0898438"/><stop stop-opacity="1" stop-color="rgb(88.874817%, 80.343628%, 57.029724%)" offset="0.09375"/><stop stop-opacity="1" stop-color="rgb(88.801575%, 80.227661%, 56.822205%)" offset="0.0976562"/><stop stop-opacity="1" stop-color="rgb(88.729858%, 80.11322%, 56.616211%)" offset="0.101562"/><stop stop-opacity="1" stop-color="rgb(88.658142%, 79.998779%, 56.408691%)" offset="0.105469"/><stop stop-opacity="1" stop-color="rgb(88.586426%, 79.884338%, 56.202698%)" offset="0.109375"/><stop stop-opacity="1" stop-color="rgb(88.514709%, 79.768372%, 55.995178%)" offset="0.113281"/><stop stop-opacity="1" stop-color="rgb(88.442993%, 79.653931%, 55.787659%)" offset="0.117188"/><stop stop-opacity="1" stop-color="rgb(88.371277%, 79.537964%, 55.580139%)" offset="0.121094"/><stop stop-opacity="1" stop-color="rgb(88.299561%, 79.423523%, 55.374146%)" offset="0.125"/><stop stop-opacity="1" stop-color="rgb(88.227844%, 79.309082%, 55.166626%)" offset="0.128906"/><stop stop-opacity="1" stop-color="rgb(88.156128%, 79.194641%, 54.960632%)" offset="0.132812"/><stop stop-opacity="1" stop-color="rgb(88.082886%, 79.078674%, 54.753113%)" offset="0.136719"/><stop stop-opacity="1" stop-color="rgb(88.011169%, 78.964233%, 54.545593%)" offset="0.140625"/><stop stop-opacity="1" stop-color="rgb(87.939453%, 78.849792%, 54.338074%)" offset="0.144531"/><stop stop-opacity="1" stop-color="rgb(87.867737%, 78.735352%, 54.13208%)" offset="0.148438"/><stop stop-opacity="1" stop-color="rgb(87.796021%, 78.619385%, 53.924561%)" offset="0.152344"/><stop stop-opacity="1" stop-color="rgb(87.724304%, 78.504944%, 53.718567%)" offset="0.15625"/><stop stop-opacity="1" stop-color="rgb(87.652588%, 78.390503%, 53.511047%)" offset="0.160156"/><stop stop-opacity="1" stop-color="rgb(87.580872%, 78.276062%, 53.303528%)" offset="0.164062"/><stop stop-opacity="1" stop-color="rgb(87.509155%, 78.160095%, 53.096008%)" offset="0.167969"/><stop stop-opacity="1" stop-color="rgb(87.437439%, 78.045654%, 52.890015%)" offset="0.171875"/><stop stop-opacity="1" stop-color="rgb(87.364197%, 77.931213%, 52.682495%)" offset="0.175781"/><stop stop-opacity="1" stop-color="rgb(87.29248%, 77.816772%, 52.476501%)" offset="0.179688"/><stop stop-opacity="1" stop-color="rgb(87.220764%, 77.700806%, 52.268982%)" offset="0.183594"/><stop stop-opacity="1" stop-color="rgb(87.149048%, 77.586365%, 52.061462%)" offset="0.1875"/><stop stop-opacity="1" stop-color="rgb(87.077332%, 77.471924%, 51.853943%)" offset="0.191406"/><stop stop-opacity="1" stop-color="rgb(87.005615%, 77.357483%, 51.647949%)" offset="0.195312"/><stop stop-opacity="1" stop-color="rgb(86.933899%, 77.241516%, 51.44043%)" offset="0.199219"/><stop stop-opacity="1" stop-color="rgb(86.862183%, 77.127075%, 51.23291%)" offset="0.203125"/><stop stop-opacity="1" stop-color="rgb(86.790466%, 77.012634%, 51.025391%)" offset="0.207031"/><stop stop-opacity="1" stop-color="rgb(86.71875%, 76.898193%, 50.819397%)" offset="0.210937"/><stop stop-opacity="1" stop-color="rgb(86.645508%, 76.782227%, 50.611877%)" offset="0.214844"/><stop stop-opacity="1" stop-color="rgb(86.573792%, 76.667786%, 50.405884%)" offset="0.21875"/><stop stop-opacity="1" stop-color="rgb(86.502075%, 76.553345%, 50.198364%)" offset="0.222656"/><stop stop-opacity="1" stop-color="rgb(86.430359%, 76.438904%, 49.990845%)" offset="0.226563"/><stop stop-opacity="1" stop-color="rgb(86.358643%, 76.322937%, 49.783325%)" offset="0.230469"/><stop stop-opacity="1" stop-color="rgb(86.286926%, 76.208496%, 49.577332%)" offset="0.234375"/><stop stop-opacity="1" stop-color="rgb(86.21521%, 76.094055%, 49.369812%)" offset="0.238281"/><stop stop-opacity="1" stop-color="rgb(86.143494%, 75.979614%, 49.163818%)" offset="0.242188"/><stop stop-opacity="1" stop-color="rgb(86.070251%, 75.863647%, 48.956299%)" offset="0.246094"/><stop stop-opacity="1" stop-color="rgb(85.998535%, 75.749207%, 48.748779%)" offset="0.25"/><stop stop-opacity="1" stop-color="rgb(85.926819%, 75.63324%, 48.54126%)" offset="0.253906"/><stop stop-opacity="1" stop-color="rgb(85.855103%, 75.518799%, 48.335266%)" offset="0.257812"/><stop stop-opacity="1" stop-color="rgb(85.783386%, 75.404358%, 48.127747%)" offset="0.261719"/><stop stop-opacity="1" stop-color="rgb(85.71167%, 75.289917%, 47.921753%)" offset="0.265625"/><stop stop-opacity="1" stop-color="rgb(85.639954%, 75.17395%, 47.714233%)" offset="0.269531"/><stop stop-opacity="1" stop-color="rgb(85.568237%, 75.059509%, 47.506714%)" offset="0.273438"/><stop stop-opacity="1" stop-color="rgb(85.496521%, 74.945068%, 47.299194%)" offset="0.277344"/><stop stop-opacity="1" stop-color="rgb(85.424805%, 74.830627%, 47.093201%)" offset="0.28125"/><stop stop-opacity="1" stop-color="rgb(85.351562%, 74.714661%, 46.885681%)" offset="0.285156"/><stop stop-opacity="1" stop-color="rgb(85.279846%, 74.60022%, 46.679688%)" offset="0.289062"/><stop stop-opacity="1" stop-color="rgb(85.20813%, 74.485779%, 46.472168%)" offset="0.292969"/><stop stop-opacity="1" stop-color="rgb(85.136414%, 74.371338%, 46.264648%)" offset="0.296875"/><stop stop-opacity="1" stop-color="rgb(85.064697%, 74.255371%, 46.057129%)" offset="0.300781"/><stop stop-opacity="1" stop-color="rgb(84.992981%, 74.14093%, 45.851135%)" offset="0.304688"/><stop stop-opacity="1" stop-color="rgb(84.921265%, 74.026489%, 45.643616%)" offset="0.308594"/><stop stop-opacity="1" stop-color="rgb(84.849548%, 73.912048%, 45.436096%)" offset="0.3125"/><stop stop-opacity="1" stop-color="rgb(84.777832%, 73.796082%, 45.228577%)" offset="0.316406"/><stop stop-opacity="1" stop-color="rgb(84.706116%, 73.681641%, 45.022583%)" offset="0.320312"/><stop stop-opacity="1" stop-color="rgb(84.632874%, 73.5672%, 44.815063%)" offset="0.324219"/><stop stop-opacity="1" stop-color="rgb(84.561157%, 73.452759%, 44.60907%)" offset="0.328125"/><stop stop-opacity="1" stop-color="rgb(84.489441%, 73.336792%, 44.40155%)" offset="0.332031"/><stop stop-opacity="1" stop-color="rgb(84.417725%, 73.222351%, 44.194031%)" offset="0.335938"/><stop stop-opacity="1" stop-color="rgb(84.346008%, 73.10791%, 43.986511%)" offset="0.339844"/><stop stop-opacity="1" stop-color="rgb(84.274292%, 72.993469%, 43.780518%)" offset="0.34375"/><stop stop-opacity="1" stop-color="rgb(84.202576%, 72.877502%, 43.572998%)" offset="0.347656"/><stop stop-opacity="1" stop-color="rgb(84.130859%, 72.763062%, 43.367004%)" offset="0.351563"/><stop stop-opacity="1" stop-color="rgb(84.059143%, 72.648621%, 43.159485%)" offset="0.355469"/><stop stop-opacity="1" stop-color="rgb(83.987427%, 72.53418%, 42.951965%)" offset="0.359375"/><stop stop-opacity="1" stop-color="rgb(83.914185%, 72.418213%, 42.744446%)" offset="0.363281"/><stop stop-opacity="1" stop-color="rgb(83.842468%, 72.303772%, 42.538452%)" offset="0.367188"/><stop stop-opacity="1" stop-color="rgb(83.770752%, 72.189331%, 42.330933%)" offset="0.371094"/><stop stop-opacity="1" stop-color="rgb(83.699036%, 72.07489%, 42.124939%)" offset="0.375"/><stop stop-opacity="1" stop-color="rgb(83.627319%, 71.958923%, 41.917419%)" offset="0.378906"/><stop stop-opacity="1" stop-color="rgb(83.555603%, 71.844482%, 41.7099%)" offset="0.382812"/><stop stop-opacity="1" stop-color="rgb(83.483887%, 71.730042%, 41.50238%)" offset="0.386719"/><stop stop-opacity="1" stop-color="rgb(83.41217%, 71.615601%, 41.296387%)" offset="0.390625"/><stop stop-opacity="1" stop-color="rgb(83.340454%, 71.499634%, 41.088867%)" offset="0.394531"/><stop stop-opacity="1" stop-color="rgb(83.268738%, 71.385193%, 40.881348%)" offset="0.398438"/><stop stop-opacity="1" stop-color="rgb(83.195496%, 71.269226%, 40.673828%)" offset="0.402344"/><stop stop-opacity="1" stop-color="rgb(83.123779%, 71.154785%, 40.467834%)" offset="0.40625"/><stop stop-opacity="1" stop-color="rgb(83.052063%, 71.040344%, 40.260315%)" offset="0.410156"/><stop stop-opacity="1" stop-color="rgb(82.980347%, 70.925903%, 40.054321%)" offset="0.414063"/><stop stop-opacity="1" stop-color="rgb(82.90863%, 70.809937%, 39.846802%)" offset="0.417969"/><stop stop-opacity="1" stop-color="rgb(82.836914%, 70.695496%, 39.639282%)" offset="0.421875"/><stop stop-opacity="1" stop-color="rgb(82.765198%, 70.581055%, 39.431763%)" offset="0.425781"/><stop stop-opacity="1" stop-color="rgb(82.693481%, 70.466614%, 39.225769%)" offset="0.429688"/><stop stop-opacity="1" stop-color="rgb(82.620239%, 70.350647%, 39.01825%)" offset="0.433594"/><stop stop-opacity="1" stop-color="rgb(82.548523%, 70.236206%, 38.812256%)" offset="0.4375"/><stop stop-opacity="1" stop-color="rgb(82.476807%, 70.121765%, 38.604736%)" offset="0.441406"/><stop stop-opacity="1" stop-color="rgb(82.40509%, 70.007324%, 38.397217%)" offset="0.445313"/><stop stop-opacity="1" stop-color="rgb(82.333374%, 69.891357%, 38.189697%)" offset="0.449219"/><stop stop-opacity="1" stop-color="rgb(82.261658%, 69.776917%, 37.983704%)" offset="0.453125"/><stop stop-opacity="1" stop-color="rgb(82.189941%, 69.662476%, 37.776184%)" offset="0.457031"/><stop stop-opacity="1" stop-color="rgb(82.118225%, 69.548035%, 37.57019%)" offset="0.460938"/><stop stop-opacity="1" stop-color="rgb(82.046509%, 69.432068%, 37.362671%)" offset="0.464844"/><stop stop-opacity="1" stop-color="rgb(81.974792%, 69.317627%, 37.155151%)" offset="0.46875"/><stop stop-opacity="1" stop-color="rgb(81.90155%, 69.203186%, 36.947632%)" offset="0.472656"/><stop stop-opacity="1" stop-color="rgb(81.829834%, 69.088745%, 36.741638%)" offset="0.476562"/><stop stop-opacity="1" stop-color="rgb(81.758118%, 68.972778%, 36.534119%)" offset="0.480469"/><stop stop-opacity="1" stop-color="rgb(81.686401%, 68.858337%, 36.328125%)" offset="0.484375"/><stop stop-opacity="1" stop-color="rgb(81.614685%, 68.743896%, 36.120605%)" offset="0.488281"/><stop stop-opacity="1" stop-color="rgb(81.542969%, 68.629456%, 35.913086%)" offset="0.492188"/><stop stop-opacity="1" stop-color="rgb(81.471252%, 68.513489%, 35.705566%)" offset="0.496094"/><stop stop-opacity="1" stop-color="rgb(81.399536%, 68.399048%, 35.499573%)" offset="0.5"/><stop stop-opacity="1" stop-color="rgb(81.32782%, 68.284607%, 35.292053%)" offset="0.503906"/><stop stop-opacity="1" stop-color="rgb(81.256104%, 68.170166%, 35.084534%)" offset="0.507812"/><stop stop-opacity="1" stop-color="rgb(81.182861%, 68.054199%, 34.877014%)" offset="0.511719"/><stop stop-opacity="1" stop-color="rgb(81.111145%, 67.939758%, 34.671021%)" offset="0.515625"/><stop stop-opacity="1" stop-color="rgb(81.039429%, 67.825317%, 34.463501%)" offset="0.519531"/><stop stop-opacity="1" stop-color="rgb(80.967712%, 67.710876%, 34.257507%)" offset="0.523438"/><stop stop-opacity="1" stop-color="rgb(80.895996%, 67.59491%, 34.049988%)" offset="0.527344"/><stop stop-opacity="1" stop-color="rgb(80.82428%, 67.480469%, 33.842468%)" offset="0.53125"/><stop stop-opacity="1" stop-color="rgb(80.752563%, 67.364502%, 33.634949%)" offset="0.535156"/><stop stop-opacity="1" stop-color="rgb(80.680847%, 67.250061%, 33.428955%)" offset="0.539062"/><stop stop-opacity="1" stop-color="rgb(80.609131%, 67.13562%, 33.221436%)" offset="0.542969"/><stop stop-opacity="1" stop-color="rgb(80.537415%, 67.021179%, 33.015442%)" offset="0.546875"/><stop stop-opacity="1" stop-color="rgb(80.464172%, 66.905212%, 32.807922%)" offset="0.550781"/><stop stop-opacity="1" stop-color="rgb(80.392456%, 66.790771%, 32.600403%)" offset="0.554688"/><stop stop-opacity="1" stop-color="rgb(80.32074%, 66.676331%, 32.392883%)" offset="0.558594"/><stop stop-opacity="1" stop-color="rgb(80.249023%, 66.56189%, 32.18689%)" offset="0.5625"/><stop stop-opacity="1" stop-color="rgb(80.177307%, 66.445923%, 31.97937%)" offset="0.566406"/><stop stop-opacity="1" stop-color="rgb(80.105591%, 66.331482%, 31.773376%)" offset="0.570312"/><stop stop-opacity="1" stop-color="rgb(80.033875%, 66.217041%, 31.565857%)" offset="0.574219"/><stop stop-opacity="1" stop-color="rgb(79.962158%, 66.1026%, 31.358337%)" offset="0.578125"/><stop stop-opacity="1" stop-color="rgb(79.890442%, 65.986633%, 31.150818%)" offset="0.582031"/><stop stop-opacity="1" stop-color="rgb(79.818726%, 65.872192%, 30.944824%)" offset="0.585938"/><stop stop-opacity="1" stop-color="rgb(79.745483%, 65.757751%, 30.737305%)" offset="0.589844"/><stop stop-opacity="1" stop-color="rgb(79.673767%, 65.643311%, 30.529785%)" offset="0.59375"/><stop stop-opacity="1" stop-color="rgb(79.602051%, 65.527344%, 30.322266%)" offset="0.597656"/><stop stop-opacity="1" stop-color="rgb(79.530334%, 65.412903%, 30.116272%)" offset="0.601562"/><stop stop-opacity="1" stop-color="rgb(79.458618%, 65.298462%, 29.908752%)" offset="0.605469"/><stop stop-opacity="1" stop-color="rgb(79.386902%, 65.184021%, 29.702759%)" offset="0.609375"/><stop stop-opacity="1" stop-color="rgb(79.315186%, 65.068054%, 29.495239%)" offset="0.613281"/><stop stop-opacity="1" stop-color="rgb(79.243469%, 64.953613%, 29.28772%)" offset="0.617188"/><stop stop-opacity="1" stop-color="rgb(79.170227%, 64.839172%, 29.0802%)" offset="0.621094"/><stop stop-opacity="1" stop-color="rgb(79.098511%, 64.724731%, 28.874207%)" offset="0.625"/><stop stop-opacity="1" stop-color="rgb(79.026794%, 64.608765%, 28.666687%)" offset="0.628906"/><stop stop-opacity="1" stop-color="rgb(78.955078%, 64.494324%, 28.460693%)" offset="0.632813"/><stop stop-opacity="1" stop-color="rgb(78.883362%, 64.379883%, 28.253174%)" offset="0.636719"/><stop stop-opacity="1" stop-color="rgb(78.811646%, 64.265442%, 28.045654%)" offset="0.640625"/><stop stop-opacity="1" stop-color="rgb(78.739929%, 64.149475%, 27.838135%)" offset="0.644531"/><stop stop-opacity="1" stop-color="rgb(78.668213%, 64.035034%, 27.632141%)" offset="0.648438"/><stop stop-opacity="1" stop-color="rgb(78.596497%, 63.920593%, 27.424622%)" offset="0.652344"/><stop stop-opacity="1" stop-color="rgb(78.52478%, 63.806152%, 27.218628%)" offset="0.65625"/><stop stop-opacity="1" stop-color="rgb(78.451538%, 63.690186%, 27.011108%)" offset="0.660156"/><stop stop-opacity="1" stop-color="rgb(78.379822%, 63.575745%, 26.803589%)" offset="0.664063"/><stop stop-opacity="1" stop-color="rgb(78.308105%, 63.461304%, 26.596069%)" offset="0.667969"/><stop stop-opacity="1" stop-color="rgb(78.236389%, 63.346863%, 26.390076%)" offset="0.671875"/><stop stop-opacity="1" stop-color="rgb(78.164673%, 63.230896%, 26.182556%)" offset="0.675781"/><stop stop-opacity="1" stop-color="rgb(78.092957%, 63.116455%, 25.976562%)" offset="0.679688"/><stop stop-opacity="1" stop-color="rgb(78.02124%, 63.000488%, 25.769043%)" offset="0.683594"/><stop stop-opacity="1" stop-color="rgb(77.949524%, 62.886047%, 25.561523%)" offset="0.6875"/><stop stop-opacity="1" stop-color="rgb(77.877808%, 62.771606%, 25.354004%)" offset="0.691406"/><stop stop-opacity="1" stop-color="rgb(77.806091%, 62.657166%, 25.14801%)" offset="0.695312"/><stop stop-opacity="1" stop-color="rgb(77.732849%, 62.541199%, 24.940491%)" offset="0.699219"/><stop stop-opacity="1" stop-color="rgb(77.661133%, 62.426758%, 24.732971%)" offset="0.703125"/><stop stop-opacity="1" stop-color="rgb(77.589417%, 62.312317%, 24.525452%)" offset="0.707031"/><stop stop-opacity="1" stop-color="rgb(77.5177%, 62.197876%, 24.319458%)" offset="0.710938"/><stop stop-opacity="1" stop-color="rgb(77.445984%, 62.081909%, 24.111938%)" offset="0.714844"/><stop stop-opacity="1" stop-color="rgb(77.374268%, 61.967468%, 23.905945%)" offset="0.71875"/><stop stop-opacity="1" stop-color="rgb(77.302551%, 61.853027%, 23.698425%)" offset="0.722656"/><stop stop-opacity="1" stop-color="rgb(77.230835%, 61.738586%, 23.490906%)" offset="0.726562"/><stop stop-opacity="1" stop-color="rgb(77.159119%, 61.62262%, 23.283386%)" offset="0.730469"/><stop stop-opacity="1" stop-color="rgb(77.087402%, 61.508179%, 23.077393%)" offset="0.734375"/><stop stop-opacity="1" stop-color="rgb(77.01416%, 61.393738%, 22.869873%)" offset="0.738281"/><stop stop-opacity="1" stop-color="rgb(76.942444%, 61.279297%, 22.663879%)" offset="0.742188"/><stop stop-opacity="1" stop-color="rgb(76.870728%, 61.16333%, 22.45636%)" offset="0.746094"/><stop stop-opacity="1" stop-color="rgb(76.799011%, 61.048889%, 22.24884%)" offset="0.75"/><stop stop-opacity="1" stop-color="rgb(76.727295%, 60.934448%, 22.041321%)" offset="0.753906"/><stop stop-opacity="1" stop-color="rgb(76.655579%, 60.820007%, 21.835327%)" offset="0.757812"/><stop stop-opacity="1" stop-color="rgb(76.583862%, 60.704041%, 21.627808%)" offset="0.761719"/><stop stop-opacity="1" stop-color="rgb(76.512146%, 60.5896%, 21.421814%)" offset="0.765625"/><stop stop-opacity="1" stop-color="rgb(76.44043%, 60.475159%, 21.214294%)" offset="0.769531"/><stop stop-opacity="1" stop-color="rgb(76.368713%, 60.360718%, 21.006775%)" offset="0.773438"/><stop stop-opacity="1" stop-color="rgb(76.295471%, 60.244751%, 20.799255%)" offset="0.777344"/><stop stop-opacity="1" stop-color="rgb(76.223755%, 60.13031%, 20.593262%)" offset="0.78125"/><stop stop-opacity="1" stop-color="rgb(76.152039%, 60.015869%, 20.385742%)" offset="0.785156"/><stop stop-opacity="1" stop-color="rgb(76.080322%, 59.901428%, 20.178223%)" offset="0.789062"/><stop stop-opacity="1" stop-color="rgb(76.008606%, 59.785461%, 19.970703%)" offset="0.792969"/><stop stop-opacity="1" stop-color="rgb(75.93689%, 59.671021%, 19.764709%)" offset="0.796875"/><stop stop-opacity="1" stop-color="rgb(75.865173%, 59.55658%, 19.55719%)" offset="0.800781"/><stop stop-opacity="1" stop-color="rgb(75.793457%, 59.442139%, 19.351196%)" offset="0.804688"/><stop stop-opacity="1" stop-color="rgb(75.720215%, 59.326172%, 19.143677%)" offset="0.808594"/><stop stop-opacity="1" stop-color="rgb(75.648499%, 59.211731%, 18.936157%)" offset="0.8125"/><stop stop-opacity="1" stop-color="rgb(75.576782%, 59.095764%, 18.728638%)" offset="0.816406"/><stop stop-opacity="1" stop-color="rgb(75.505066%, 58.981323%, 18.522644%)" offset="0.820312"/><stop stop-opacity="1" stop-color="rgb(75.43335%, 58.866882%, 18.315125%)" offset="0.824219"/><stop stop-opacity="1" stop-color="rgb(75.361633%, 58.752441%, 18.109131%)" offset="0.828125"/><stop stop-opacity="1" stop-color="rgb(75.289917%, 58.636475%, 17.901611%)" offset="0.832031"/><stop stop-opacity="1" stop-color="rgb(75.218201%, 58.522034%, 17.694092%)" offset="0.835938"/><stop stop-opacity="1" stop-color="rgb(75.146484%, 58.407593%, 17.486572%)" offset="0.839844"/><stop stop-opacity="1" stop-color="rgb(75.074768%, 58.293152%, 17.280579%)" offset="0.84375"/><stop stop-opacity="1" stop-color="rgb(75.001526%, 58.177185%, 17.073059%)" offset="0.847656"/><stop stop-opacity="1" stop-color="rgb(74.92981%, 58.062744%, 16.867065%)" offset="0.851562"/><stop stop-opacity="1" stop-color="rgb(74.858093%, 57.948303%, 16.659546%)" offset="0.855469"/><stop stop-opacity="1" stop-color="rgb(74.786377%, 57.833862%, 16.452026%)" offset="0.859375"/><stop stop-opacity="1" stop-color="rgb(74.714661%, 57.717896%, 16.244507%)" offset="0.863281"/><stop stop-opacity="1" stop-color="rgb(74.642944%, 57.603455%, 16.038513%)" offset="0.867188"/><stop stop-opacity="1" stop-color="rgb(74.571228%, 57.489014%, 15.830994%)" offset="0.871094"/><stop stop-opacity="1" stop-color="rgb(74.499512%, 57.374573%, 15.625%)" offset="0.875"/><stop stop-opacity="1" stop-color="rgb(74.427795%, 57.258606%, 15.41748%)" offset="0.878906"/><stop stop-opacity="1" stop-color="rgb(74.356079%, 57.144165%, 15.209961%)" offset="0.882813"/><stop stop-opacity="1" stop-color="rgb(74.282837%, 57.029724%, 15.002441%)" offset="0.886719"/><stop stop-opacity="1" stop-color="rgb(74.211121%, 56.915283%, 14.796448%)" offset="0.890625"/><stop stop-opacity="1" stop-color="rgb(74.139404%, 56.799316%, 14.588928%)" offset="0.894531"/><stop stop-opacity="1" stop-color="rgb(74.067688%, 56.684875%, 14.381409%)" offset="0.898438"/><stop stop-opacity="1" stop-color="rgb(73.995972%, 56.570435%, 14.173889%)" offset="0.902344"/><stop stop-opacity="1" stop-color="rgb(73.924255%, 56.455994%, 13.967896%)" offset="0.90625"/><stop stop-opacity="1" stop-color="rgb(73.852539%, 56.340027%, 13.760376%)" offset="0.910156"/><stop stop-opacity="1" stop-color="rgb(73.780823%, 56.225586%, 13.554382%)" offset="0.914062"/><stop stop-opacity="1" stop-color="rgb(73.709106%, 56.111145%, 13.346863%)" offset="0.917969"/><stop stop-opacity="1" stop-color="rgb(73.63739%, 55.996704%, 13.139343%)" offset="0.921875"/><stop stop-opacity="1" stop-color="rgb(73.564148%, 55.880737%, 12.931824%)" offset="0.925781"/><stop stop-opacity="1" stop-color="rgb(73.492432%, 55.766296%, 12.72583%)" offset="0.929688"/><stop stop-opacity="1" stop-color="rgb(73.420715%, 55.651855%, 12.518311%)" offset="0.933594"/><stop stop-opacity="1" stop-color="rgb(73.348999%, 55.537415%, 12.312317%)" offset="0.9375"/><stop stop-opacity="1" stop-color="rgb(73.277283%, 55.421448%, 12.104797%)" offset="0.941406"/><stop stop-opacity="1" stop-color="rgb(73.205566%, 55.307007%, 11.897278%)" offset="0.945312"/><stop stop-opacity="1" stop-color="rgb(73.13385%, 55.192566%, 11.689758%)" offset="0.949219"/><stop stop-opacity="1" stop-color="rgb(73.062134%, 55.078125%, 11.483765%)" offset="0.953125"/><stop stop-opacity="1" stop-color="rgb(72.990417%, 54.962158%, 11.276245%)" offset="0.957031"/><stop stop-opacity="1" stop-color="rgb(72.918701%, 54.847717%, 11.070251%)" offset="0.960938"/><stop stop-opacity="1" stop-color="rgb(72.845459%, 54.73175%, 10.862732%)" offset="0.964844"/><stop stop-opacity="1" stop-color="rgb(72.773743%, 54.61731%, 10.655212%)" offset="0.96875"/><stop stop-opacity="1" stop-color="rgb(72.702026%, 54.502869%, 10.447693%)" offset="0.972656"/><stop stop-opacity="1" stop-color="rgb(72.63031%, 54.388428%, 10.241699%)" offset="0.976562"/><stop stop-opacity="1" stop-color="rgb(72.558594%, 54.272461%, 10.03418%)" offset="0.980469"/><stop stop-opacity="1" stop-color="rgb(72.486877%, 54.15802%, 9.82666%)" offset="0.984375"/><stop stop-opacity="1" stop-color="rgb(72.415161%, 54.043579%, 9.619141%)" offset="0.988281"/><stop stop-opacity="1" stop-color="rgb(72.343445%, 53.929138%, 9.413147%)" offset="0.992188"/><stop stop-opacity="1" stop-color="rgb(72.270203%, 53.813171%, 9.205627%)" offset="0.996094"/><stop stop-opacity="1" stop-color="rgb(72.198486%, 53.69873%, 8.999634%)" offset="1"/></linearGradient></defs><g fill="#ffffff" fill-opacity="0.4"><g transform="translate(94.164657, 358.059441)"><g><path d="M 25.828125 -45.28125 C 29.335938 -45.28125 32.488281 -44.660156 35.28125 -43.421875 C 38.070312 -42.179688 40.445312 -40.515625 42.40625 -38.421875 C 44.375 -36.328125 45.882812 -33.894531 46.9375 -31.125 C 48 -28.351562 48.53125 -25.457031 48.53125 -22.4375 C 48.53125 -19.0625 47.910156 -15.953125 46.671875 -13.109375 C 45.429688 -10.273438 43.726562 -7.84375 41.5625 -5.8125 C 39.40625 -3.78125 36.894531 -2.191406 34.03125 -1.046875 C 31.164062 0.0976562 28.113281 0.671875 24.875 0.671875 C 21.40625 0.671875 18.285156 0.0390625 15.515625 -1.21875 C 12.742188 -2.476562 10.398438 -4.144531 8.484375 -6.21875 C 6.566406 -8.289062 5.085938 -10.675781 4.046875 -13.375 C 3.015625 -16.082031 2.5 -18.898438 2.5 -21.828125 C 2.5 -24.710938 3.015625 -27.5625 4.046875 -30.375 C 5.085938 -33.195312 6.609375 -35.710938 8.609375 -37.921875 C 10.617188 -40.128906 13.066406 -41.90625 15.953125 -43.25 C 18.835938 -44.601562 22.128906 -45.28125 25.828125 -45.28125 Z M 25.75 -1.6875 C 28.769531 -1.820312 31.414062 -2.507812 33.6875 -3.75 C 35.96875 -4.988281 37.875 -6.566406 39.40625 -8.484375 C 40.9375 -10.398438 42.070312 -12.503906 42.8125 -14.796875 C 43.5625 -17.097656 43.9375 -19.375 43.9375 -21.625 C 43.9375 -24.101562 43.484375 -26.601562 42.578125 -29.125 C 41.679688 -31.65625 40.398438 -33.941406 38.734375 -35.984375 C 37.066406 -38.035156 35.070312 -39.703125 32.75 -40.984375 C 30.425781 -42.273438 27.820312 -42.921875 24.9375 -42.921875 C 22.144531 -42.921875 19.644531 -42.300781 17.4375 -41.0625 C 15.226562 -39.820312 13.347656 -38.234375 11.796875 -36.296875 C 10.242188 -34.359375 9.0625 -32.191406 8.25 -29.796875 C 7.4375 -27.410156 7.03125 -25.070312 7.03125 -22.78125 C 7.03125 -20.300781 7.503906 -17.8125 8.453125 -15.3125 C 9.398438 -12.8125 10.707031 -10.546875 12.375 -8.515625 C 14.039062 -6.484375 16.007812 -4.835938 18.28125 -3.578125 C 20.5625 -2.316406 23.050781 -1.6875 25.75 -1.6875 Z M 25.75 -1.6875 "/></g></g></g><g fill="#ffffff" fill-opacity="0.4"><g transform="translate(144.245963, 358.059441)"><g><path d="M 3.046875 -0.671875 L 3.375 -0.671875 C 3.738281 -0.671875 4.054688 -0.796875 4.328125 -1.046875 C 4.597656 -1.296875 4.832031 -1.597656 5.03125 -1.953125 C 5.238281 -2.316406 5.394531 -2.703125 5.5 -3.109375 C 5.613281 -3.515625 5.671875 -3.898438 5.671875 -4.265625 L 5.671875 -40.421875 C 5.671875 -40.734375 5.613281 -41.09375 5.5 -41.5 C 5.394531 -41.90625 5.238281 -42.285156 5.03125 -42.640625 C 4.832031 -43.003906 4.597656 -43.3125 4.328125 -43.5625 C 4.054688 -43.8125 3.738281 -43.9375 3.375 -43.9375 L 3.046875 -43.9375 L 3.046875 -44.609375 L 12.78125 -44.609375 L 12.78125 -43.9375 L 12.4375 -43.9375 C 12.070312 -43.9375 11.753906 -43.8125 11.484375 -43.5625 C 11.210938 -43.3125 10.988281 -43.003906 10.8125 -42.640625 C 10.632812 -42.285156 10.488281 -41.90625 10.375 -41.5 C 10.257812 -41.09375 10.203125 -40.734375 10.203125 -40.421875 L 10.203125 -2.5 L 25.015625 -2.5 C 25.867188 -2.5 26.609375 -2.703125 27.234375 -3.109375 C 27.867188 -3.515625 28.398438 -4.019531 28.828125 -4.625 C 29.253906 -5.238281 29.566406 -5.894531 29.765625 -6.59375 C 29.972656 -7.289062 30.078125 -7.929688 30.078125 -8.515625 L 30.75 -8.515625 L 30.75 0 L 3.046875 0 Z M 3.046875 -0.671875 "/></g></g></g><g fill="#ffffff" fill-opacity="0.4"><g transform="translate(174.32171, 358.059441)"><g><path d="M 3.3125 -44.609375 L 12.984375 -44.609375 L 12.984375 -43.9375 L 12.640625 -43.9375 C 12.328125 -43.9375 12.035156 -43.8125 11.765625 -43.5625 C 11.492188 -43.3125 11.265625 -43.015625 11.078125 -42.671875 C 10.898438 -42.335938 10.753906 -41.957031 10.640625 -41.53125 C 10.535156 -41.101562 10.484375 -40.734375 10.484375 -40.421875 L 10.484375 -4.390625 C 10.484375 -4.035156 10.523438 -3.640625 10.609375 -3.203125 C 10.703125 -2.773438 10.847656 -2.378906 11.046875 -2.015625 C 11.253906 -1.660156 11.476562 -1.347656 11.71875 -1.078125 C 11.96875 -0.804688 12.273438 -0.671875 12.640625 -0.671875 L 12.984375 -0.671875 L 12.984375 0 L 3.3125 0 L 3.3125 -0.671875 L 3.65625 -0.671875 C 4.007812 -0.671875 4.320312 -0.796875 4.59375 -1.046875 C 4.863281 -1.296875 5.097656 -1.609375 5.296875 -1.984375 C 5.503906 -2.367188 5.648438 -2.773438 5.734375 -3.203125 C 5.828125 -3.640625 5.875 -4.035156 5.875 -4.390625 L 5.875 -40.421875 C 5.875 -40.734375 5.828125 -41.09375 5.734375 -41.5 C 5.648438 -41.90625 5.503906 -42.285156 5.296875 -42.640625 C 5.097656 -43.003906 4.863281 -43.3125 4.59375 -43.5625 C 4.320312 -43.8125 4.007812 -43.9375 3.65625 -43.9375 L 3.3125 -43.9375 Z M 3.3125 -44.609375 "/></g></g></g><g fill="#ffffff" fill-opacity="0.4"><g transform="translate(189.393281, 358.059441)"><g><path d="M 8.578125 -42.25 C 8.578125 -41.976562 8.644531 -41.640625 8.78125 -41.234375 L 20.6875 -9.1875 L 32.578125 -41.5625 C 32.617188 -41.65625 32.660156 -41.789062 32.703125 -41.96875 C 32.753906 -42.15625 32.78125 -42.289062 32.78125 -42.375 C 32.78125 -42.914062 32.566406 -43.3125 32.140625 -43.5625 C 31.710938 -43.8125 31.316406 -43.9375 30.953125 -43.9375 L 30.953125 -44.609375 L 38.328125 -44.609375 L 38.328125 -43.9375 C 37.648438 -43.9375 37.03125 -43.753906 36.46875 -43.390625 C 35.90625 -43.035156 35.46875 -42.425781 35.15625 -41.5625 L 19.671875 0.8125 L 3.859375 -41.375 C 3.585938 -42.039062 3.191406 -42.625 2.671875 -43.125 C 2.148438 -43.625 1.507812 -43.894531 0.75 -43.9375 L 0.75 -44.609375 L 10.34375 -44.609375 L 10.34375 -43.9375 C 9.9375 -43.9375 9.539062 -43.789062 9.15625 -43.5 C 8.769531 -43.207031 8.578125 -42.789062 8.578125 -42.25 Z M 8.578125 -42.25 "/></g></g></g><g fill="#ffffff" fill-opacity="0.4"><g transform="translate(227.849743, 358.059441)"><g><path d="M 3.3125 -44.609375 L 12.984375 -44.609375 L 12.984375 -43.9375 L 12.640625 -43.9375 C 12.328125 -43.9375 12.035156 -43.8125 11.765625 -43.5625 C 11.492188 -43.3125 11.265625 -43.015625 11.078125 -42.671875 C 10.898438 -42.335938 10.753906 -41.957031 10.640625 -41.53125 C 10.535156 -41.101562 10.484375 -40.734375 10.484375 -40.421875 L 10.484375 -4.390625 C 10.484375 -4.035156 10.523438 -3.640625 10.609375 -3.203125 C 10.703125 -2.773438 10.847656 -2.378906 11.046875 -2.015625 C 11.253906 -1.660156 11.476562 -1.347656 11.71875 -1.078125 C 11.96875 -0.804688 12.273438 -0.671875 12.640625 -0.671875 L 12.984375 -0.671875 L 12.984375 0 L 3.3125 0 L 3.3125 -0.671875 L 3.65625 -0.671875 C 4.007812 -0.671875 4.320312 -0.796875 4.59375 -1.046875 C 4.863281 -1.296875 5.097656 -1.609375 5.296875 -1.984375 C 5.503906 -2.367188 5.648438 -2.773438 5.734375 -3.203125 C 5.828125 -3.640625 5.875 -4.035156 5.875 -4.390625 L 5.875 -40.421875 C 5.875 -40.734375 5.828125 -41.09375 5.734375 -41.5 C 5.648438 -41.90625 5.503906 -42.285156 5.296875 -42.640625 C 5.097656 -43.003906 4.863281 -43.3125 4.59375 -43.5625 C 4.320312 -43.8125 4.007812 -43.9375 3.65625 -43.9375 L 3.3125 -43.9375 Z M 3.3125 -44.609375 "/></g></g></g><g fill="#ffffff" fill-opacity="0.4"><g transform="translate(242.921314, 358.059441)"><g><path d="M 28.859375 -0.671875 L 29.203125 -0.671875 C 30.285156 -0.671875 30.828125 -1.164062 30.828125 -2.15625 C 30.828125 -2.519531 30.757812 -2.90625 30.625 -3.3125 L 24.53125 -19.734375 L 12.703125 -19.734375 L 6.828125 -3.578125 C 6.691406 -3.222656 6.625 -2.882812 6.625 -2.5625 C 6.625 -1.976562 6.78125 -1.515625 7.09375 -1.171875 C 7.414062 -0.835938 7.753906 -0.671875 8.109375 -0.671875 L 8.453125 -0.671875 L 8.453125 0 L 0.953125 0 L 0.953125 -0.671875 L 1.28125 -0.671875 C 1.863281 -0.671875 2.4375 -1.019531 3 -1.71875 C 3.570312 -2.414062 4.035156 -3.238281 4.390625 -4.1875 L 19.875 -45.421875 L 35.015625 -4.59375 C 35.328125 -3.695312 35.765625 -2.816406 36.328125 -1.953125 C 36.890625 -1.097656 37.625 -0.671875 38.53125 -0.671875 L 38.859375 -0.671875 L 38.859375 0 L 28.859375 0 Z M 13.390625 -22.03125 L 23.796875 -22.03125 L 18.59375 -36.15625 Z M 13.390625 -22.03125 "/></g></g></g><g fill="#ffffff" fill-opacity="1"><g transform="translate(91.17733, 355.072127)"><g><path d="M 25.828125 -45.28125 C 29.335938 -45.28125 32.488281 -44.660156 35.28125 -43.421875 C 38.070312 -42.179688 40.445312 -40.515625 42.40625 -38.421875 C 44.375 -36.328125 45.882812 -33.894531 46.9375 -31.125 C 48 -28.351562 48.53125 -25.457031 48.53125 -22.4375 C 48.53125 -19.0625 47.910156 -15.953125 46.671875 -13.109375 C 45.429688 -10.273438 43.726562 -7.84375 41.5625 -5.8125 C 39.40625 -3.78125 36.894531 -2.191406 34.03125 -1.046875 C 31.164062 0.0976562 28.113281 0.671875 24.875 0.671875 C 21.40625 0.671875 18.285156 0.0390625 15.515625 -1.21875 C 12.742188 -2.476562 10.398438 -4.144531 8.484375 -6.21875 C 6.566406 -8.289062 5.085938 -10.675781 4.046875 -13.375 C 3.015625 -16.082031 2.5 -18.898438 2.5 -21.828125 C 2.5 -24.710938 3.015625 -27.5625 4.046875 -30.375 C 5.085938 -33.195312 6.609375 -35.710938 8.609375 -37.921875 C 10.617188 -40.128906 13.066406 -41.90625 15.953125 -43.25 C 18.835938 -44.601562 22.128906 -45.28125 25.828125 -45.28125 Z M 25.75 -1.6875 C 28.769531 -1.820312 31.414062 -2.507812 33.6875 -3.75 C 35.96875 -4.988281 37.875 -6.566406 39.40625 -8.484375 C 40.9375 -10.398438 42.070312 -12.503906 42.8125 -14.796875 C 43.5625 -17.097656 43.9375 -19.375 43.9375 -21.625 C 43.9375 -24.101562 43.484375 -26.601562 42.578125 -29.125 C 41.679688 -31.65625 40.398438 -33.941406 38.734375 -35.984375 C 37.066406 -38.035156 35.070312 -39.703125 32.75 -40.984375 C 30.425781 -42.273438 27.820312 -42.921875 24.9375 -42.921875 C 22.144531 -42.921875 19.644531 -42.300781 17.4375 -41.0625 C 15.226562 -39.820312 13.347656 -38.234375 11.796875 -36.296875 C 10.242188 -34.359375 9.0625 -32.191406 8.25 -29.796875 C 7.4375 -27.410156 7.03125 -25.070312 7.03125 -22.78125 C 7.03125 -20.300781 7.503906 -17.8125 8.453125 -15.3125 C 9.398438 -12.8125 10.707031 -10.546875 12.375 -8.515625 C 14.039062 -6.484375 16.007812 -4.835938 18.28125 -3.578125 C 20.5625 -2.316406 23.050781 -1.6875 25.75 -1.6875 Z M 25.75 -1.6875 "/></g></g></g><g fill="#ffffff" fill-opacity="1"><g transform="translate(141.258635, 355.072127)"><g><path d="M 3.046875 -0.671875 L 3.375 -0.671875 C 3.738281 -0.671875 4.054688 -0.796875 4.328125 -1.046875 C 4.597656 -1.296875 4.832031 -1.597656 5.03125 -1.953125 C 5.238281 -2.316406 5.394531 -2.703125 5.5 -3.109375 C 5.613281 -3.515625 5.671875 -3.898438 5.671875 -4.265625 L 5.671875 -40.421875 C 5.671875 -40.734375 5.613281 -41.09375 5.5 -41.5 C 5.394531 -41.90625 5.238281 -42.285156 5.03125 -42.640625 C 4.832031 -43.003906 4.597656 -43.3125 4.328125 -43.5625 C 4.054688 -43.8125 3.738281 -43.9375 3.375 -43.9375 L 3.046875 -43.9375 L 3.046875 -44.609375 L 12.78125 -44.609375 L 12.78125 -43.9375 L 12.4375 -43.9375 C 12.070312 -43.9375 11.753906 -43.8125 11.484375 -43.5625 C 11.210938 -43.3125 10.988281 -43.003906 10.8125 -42.640625 C 10.632812 -42.285156 10.488281 -41.90625 10.375 -41.5 C 10.257812 -41.09375 10.203125 -40.734375 10.203125 -40.421875 L 10.203125 -2.5 L 25.015625 -2.5 C 25.867188 -2.5 26.609375 -2.703125 27.234375 -3.109375 C 27.867188 -3.515625 28.398438 -4.019531 28.828125 -4.625 C 29.253906 -5.238281 29.566406 -5.894531 29.765625 -6.59375 C 29.972656 -7.289062 30.078125 -7.929688 30.078125 -8.515625 L 30.75 -8.515625 L 30.75 0 L 3.046875 0 Z M 3.046875 -0.671875 "/></g></g></g><g fill="#ffffff" fill-opacity="1"><g transform="translate(171.334382, 355.072127)"><g><path d="M 3.3125 -44.609375 L 12.984375 -44.609375 L 12.984375 -43.9375 L 12.640625 -43.9375 C 12.328125 -43.9375 12.035156 -43.8125 11.765625 -43.5625 C 11.492188 -43.3125 11.265625 -43.015625 11.078125 -42.671875 C 10.898438 -42.335938 10.753906 -41.957031 10.640625 -41.53125 C 10.535156 -41.101562 10.484375 -40.734375 10.484375 -40.421875 L 10.484375 -4.390625 C 10.484375 -4.035156 10.523438 -3.640625 10.609375 -3.203125 C 10.703125 -2.773438 10.847656 -2.378906 11.046875 -2.015625 C 11.253906 -1.660156 11.476562 -1.347656 11.71875 -1.078125 C 11.96875 -0.804688 12.273438 -0.671875 12.640625 -0.671875 L 12.984375 -0.671875 L 12.984375 0 L 3.3125 0 L 3.3125 -0.671875 L 3.65625 -0.671875 C 4.007812 -0.671875 4.320312 -0.796875 4.59375 -1.046875 C 4.863281 -1.296875 5.097656 -1.609375 5.296875 -1.984375 C 5.503906 -2.367188 5.648438 -2.773438 5.734375 -3.203125 C 5.828125 -3.640625 5.875 -4.035156 5.875 -4.390625 L 5.875 -40.421875 C 5.875 -40.734375 5.828125 -41.09375 5.734375 -41.5 C 5.648438 -41.90625 5.503906 -42.285156 5.296875 -42.640625 C 5.097656 -43.003906 4.863281 -43.3125 4.59375 -43.5625 C 4.320312 -43.8125 4.007812 -43.9375 3.65625 -43.9375 L 3.3125 -43.9375 Z M 3.3125 -44.609375 "/></g></g></g><g fill="#ffffff" fill-opacity="1"><g transform="translate(186.405953, 355.072127)"><g><path d="M 8.578125 -42.25 C 8.578125 -41.976562 8.644531 -41.640625 8.78125 -41.234375 L 20.6875 -9.1875 L 32.578125 -41.5625 C 32.617188 -41.65625 32.660156 -41.789062 32.703125 -41.96875 C 32.753906 -42.15625 32.78125 -42.289062 32.78125 -42.375 C 32.78125 -42.914062 32.566406 -43.3125 32.140625 -43.5625 C 31.710938 -43.8125 31.316406 -43.9375 30.953125 -43.9375 L 30.953125 -44.609375 L 38.328125 -44.609375 L 38.328125 -43.9375 C 37.648438 -43.9375 37.03125 -43.753906 36.46875 -43.390625 C 35.90625 -43.035156 35.46875 -42.425781 35.15625 -41.5625 L 19.671875 0.8125 L 3.859375 -41.375 C 3.585938 -42.039062 3.191406 -42.625 2.671875 -43.125 C 2.148438 -43.625 1.507812 -43.894531 0.75 -43.9375 L 0.75 -44.609375 L 10.34375 -44.609375 L 10.34375 -43.9375 C 9.9375 -43.9375 9.539062 -43.789062 9.15625 -43.5 C 8.769531 -43.207031 8.578125 -42.789062 8.578125 -42.25 Z M 8.578125 -42.25 "/></g></g></g><g fill="#ffffff" fill-opacity="1"><g transform="translate(224.862415, 355.072127)"><g><path d="M 3.3125 -44.609375 L 12.984375 -44.609375 L 12.984375 -43.9375 L 12.640625 -43.9375 C 12.328125 -43.9375 12.035156 -43.8125 11.765625 -43.5625 C 11.492188 -43.3125 11.265625 -43.015625 11.078125 -42.671875 C 10.898438 -42.335938 10.753906 -41.957031 10.640625 -41.53125 C 10.535156 -41.101562 10.484375 -40.734375 10.484375 -40.421875 L 10.484375 -4.390625 C 10.484375 -4.035156 10.523438 -3.640625 10.609375 -3.203125 C 10.703125 -2.773438 10.847656 -2.378906 11.046875 -2.015625 C 11.253906 -1.660156 11.476562 -1.347656 11.71875 -1.078125 C 11.96875 -0.804688 12.273438 -0.671875 12.640625 -0.671875 L 12.984375 -0.671875 L 12.984375 0 L 3.3125 0 L 3.3125 -0.671875 L 3.65625 -0.671875 C 4.007812 -0.671875 4.320312 -0.796875 4.59375 -1.046875 C 4.863281 -1.296875 5.097656 -1.609375 5.296875 -1.984375 C 5.503906 -2.367188 5.648438 -2.773438 5.734375 -3.203125 C 5.828125 -3.640625 5.875 -4.035156 5.875 -4.390625 L 5.875 -40.421875 C 5.875 -40.734375 5.828125 -41.09375 5.734375 -41.5 C 5.648438 -41.90625 5.503906 -42.285156 5.296875 -42.640625 C 5.097656 -43.003906 4.863281 -43.3125 4.59375 -43.5625 C 4.320312 -43.8125 4.007812 -43.9375 3.65625 -43.9375 L 3.3125 -43.9375 Z M 3.3125 -44.609375 "/></g></g></g><g fill="#ffffff" fill-opacity="1"><g transform="translate(239.933986, 355.072127)"><g><path d="M 28.859375 -0.671875 L 29.203125 -0.671875 C 30.285156 -0.671875 30.828125 -1.164062 30.828125 -2.15625 C 30.828125 -2.519531 30.757812 -2.90625 30.625 -3.3125 L 24.53125 -19.734375 L 12.703125 -19.734375 L 6.828125 -3.578125 C 6.691406 -3.222656 6.625 -2.882812 6.625 -2.5625 C 6.625 -1.976562 6.78125 -1.515625 7.09375 -1.171875 C 7.414062 -0.835938 7.753906 -0.671875 8.109375 -0.671875 L 8.453125 -0.671875 L 8.453125 0 L 0.953125 0 L 0.953125 -0.671875 L 1.28125 -0.671875 C 1.863281 -0.671875 2.4375 -1.019531 3 -1.71875 C 3.570312 -2.414062 4.035156 -3.238281 4.390625 -4.1875 L 19.875 -45.421875 L 35.015625 -4.59375 C 35.328125 -3.695312 35.765625 -2.816406 36.328125 -1.953125 C 36.890625 -1.097656 37.625 -0.671875 38.53125 -0.671875 L 38.859375 -0.671875 L 38.859375 0 L 28.859375 0 Z M 13.390625 -22.03125 L 23.796875 -22.03125 L 18.59375 -36.15625 Z M 13.390625 -22.03125 "/></g></g></g><path stroke-linecap="round" transform="matrix(3.750646, 0.000000000000000015, -0.000000000000000013, 3.310345, 51.39837, 276.04419)" fill="none" stroke-linejoin="miter" d="M 0.499932 -0.000368881 L 72.087606 -0.000368881 " stroke="#e7d49e" stroke-width="1" stroke-opacity="1" stroke-miterlimit="4"/><g clip-path="url(#id1)"><g clip-path="url(#id2)"><path fill="url(#id3)" d="M 51.398438 0.21875 L 51.398438 257.027344 L 319.863281 257.027344 L 319.863281 0.21875 Z M 51.398438 0.21875 " fill-rule="nonzero"/></g></g></svg>