<svg xmlns="http://www.w3.org/2000/svg" xmlns:xlink="http://www.w3.org/1999/xlink" width="1920" zoomAndPan="magnify" viewBox="0 0 1440 299.999988" height="400" preserveAspectRatio="xMidYMid meet" version="1.0"><defs><filter x="0%" y="0%" width="100%" height="100%" id="id1"><feColorMatrix values="0 0 0 0 1 0 0 0 0 1 0 0 0 0 1 0 0 0 1 0" color-interpolation-filters="sRGB"/></filter><g/><clipPath id="id2"><path d="M 1106 135 L 1272.300781 135 L 1272.300781 231.648438 L 1106 231.648438 Z M 1106 135 " clip-rule="nonzero"/></clipPath><clipPath id="id3"><path d="M 1136.125 185 L 1146.402344 185 L 1146.402344 231.648438 L 1136.125 231.648438 Z M 1136.125 185 " clip-rule="nonzero"/></clipPath><clipPath id="id4"><path d="M 1094.160156 221 L 1409.875 221 L 1409.875 231.648438 L 1094.160156 231.648438 Z M 1094.160156 221 " clip-rule="nonzero"/></clipPath><clipPath id="id5"><path d="M 1223.480469 202.085938 L 1387.917969 202.085938 L 1387.917969 231.648438 L 1223.480469 231.648438 Z M 1223.480469 202.085938 " clip-rule="nonzero"/></clipPath><mask id="id6"><g filter="url(#id1)"><rect x="-144" width="1728" fill="#000000" y="-29.999999" height="359.999986" fill-opacity="0.9686"/></g></mask><clipPath id="id7"><path d="M 0.320312 0.601562 L 30.558594 0.601562 L 30.558594 9 L 0.320312 9 Z M 0.320312 0.601562 " clip-rule="nonzero"/></clipPath><clipPath id="id8"><path d="M 0.320312 214 L 30.558594 214 L 30.558594 222 L 0.320312 222 Z M 0.320312 214 " clip-rule="nonzero"/></clipPath><clipPath id="id9"><rect x="0" width="31" y="0" height="226"/></clipPath></defs><path fill="#b3614b" d="M 1153.339844 81.296875 C 1153.324219 81.398438 1153.257812 81.492188 1153.160156 81.527344 C 1153.160156 81.53125 1153.15625 81.53125 1153.152344 81.53125 C 1153.015625 81.574219 1152.9375 81.480469 1152.867188 81.390625 C 1151.558594 79.648438 1151.261719 76.820312 1151.03125 74.726562 C 1150.300781 68.050781 1150.371094 62.765625 1151.003906 61.261719 C 1151.386719 60.355469 1153.308594 55.925781 1157.851562 51.535156 C 1165.195312 44.429688 1177.289062 40.707031 1183.4375 39.433594 C 1188.421875 38.398438 1193.6875 37.867188 1198.832031 38.226562 C 1201.703125 38.425781 1204.707031 38.792969 1207.496094 39.503906 C 1209.789062 40.082031 1212.058594 41.179688 1213.4375 43.105469 C 1214.921875 45.179688 1215.28125 47.800781 1217.054688 49.699219 C 1218.992188 51.769531 1221.636719 53.007812 1223.617188 55.035156 C 1226.277344 57.738281 1228.910156 62.003906 1229.296875 65.820312 C 1229.640625 69.265625 1228.136719 72.511719 1226.394531 75.378906 C 1226.085938 75.894531 1222.453125 81.535156 1221.964844 81.554688 C 1221.953125 81.546875 1221.941406 81.542969 1221.929688 81.539062 C 1221.210938 80.78125 1219.539062 75.753906 1213.613281 68.238281 C 1211.945312 66.121094 1211.15625 65.246094 1210.515625 64.617188 C 1210.085938 64.195312 1208.769531 62.945312 1206.816406 61.589844 C 1206.1875 61.152344 1204.84375 60.164062 1204.484375 60.777344 C 1203.746094 61.988281 1202.480469 63.703125 1200.40625 64.996094 C 1197.230469 66.980469 1193.988281 66.847656 1191.113281 66.78125 C 1191.113281 66.78125 1181.570312 66.550781 1171.222656 67.265625 C 1167.460938 67.527344 1163.449219 67.730469 1160.054688 69.539062 C 1155.683594 71.875 1154.164062 76.742188 1153.339844 81.296875 " fill-opacity="1" fill-rule="evenodd"/><path fill="#f4baa6" d="M 1205.089844 129.878906 C 1203.3125 131.0625 1200.203125 132.90625 1195.875 133.933594 C 1194.546875 134.246094 1189.425781 135.351562 1182.992188 133.933594 C 1181.902344 133.691406 1177.257812 132.601562 1172.183594 129.117188 C 1171.441406 128.609375 1170.695312 128.054688 1169.949219 127.441406 C 1168.449219 126.210938 1162.855469 121.398438 1159.839844 113.007812 C 1158.863281 110.289062 1158.273438 107.046875 1158.046875 105.382812 C 1149.300781 102.839844 1143.609375 89.882812 1153.15625 81.539062 L 1153.152344 81.53125 C 1153.15625 81.53125 1153.160156 81.53125 1153.160156 81.527344 C 1153.257812 81.492188 1153.324219 81.398438 1153.339844 81.296875 C 1154.164062 76.742188 1155.683594 71.875 1160.054688 69.539062 C 1163.445312 67.730469 1167.460938 67.527344 1171.222656 67.265625 C 1181.570312 66.550781 1191.109375 66.78125 1191.109375 66.78125 C 1193.984375 66.847656 1197.230469 66.980469 1200.40625 64.996094 C 1202.480469 63.703125 1203.742188 61.988281 1204.484375 60.777344 C 1204.84375 60.164062 1206.1875 61.152344 1206.816406 61.589844 C 1208.769531 62.945312 1210.085938 64.195312 1210.515625 64.617188 C 1211.15625 65.242188 1211.945312 66.121094 1213.613281 68.238281 C 1219.539062 75.753906 1221.210938 80.78125 1221.929688 81.539062 C 1221.9375 81.546875 1221.945312 81.554688 1221.960938 81.554688 L 1221.964844 81.554688 C 1233.007812 85.148438 1229.269531 103.726562 1220.730469 105.167969 C 1219.78125 109.613281 1217.621094 117.132812 1212.339844 123.386719 C 1209.382812 126.890625 1206.53125 128.898438 1205.816406 129.390625 C 1205.605469 129.535156 1205.367188 129.699219 1205.089844 129.878906 " fill-opacity="1" fill-rule="evenodd"/><path fill="#ebb39e" d="M 1208.105469 148.003906 L 1188.40625 165.59375 L 1170.0625 148.351562 C 1171.539062 145.363281 1173.027344 139.628906 1173.140625 135.230469 C 1173.210938 132.480469 1172.679688 131.097656 1172.175781 129.128906 L 1172.183594 129.121094 C 1177.257812 132.601562 1181.902344 133.691406 1182.992188 133.933594 C 1189.425781 135.351562 1194.546875 134.246094 1195.875 133.933594 C 1200.203125 132.90625 1203.3125 131.0625 1205.09375 129.878906 L 1205.09375 129.882812 C 1204.648438 131.488281 1204.242188 132.796875 1204.300781 135.230469 C 1204.4375 140.246094 1206.304688 144.789062 1208.105469 148.003906 " fill-opacity="1" fill-rule="evenodd"/><path fill="#f7e07f" d="M 1247.558594 226.707031 L 1111.058594 226.707031 C 1111.035156 220.386719 1111.09375 189.734375 1116.929688 170.914062 C 1118.359375 166.285156 1120.019531 162.777344 1122.144531 159.558594 C 1123.339844 157.753906 1128.5625 150.15625 1138.773438 144.960938 C 1148.261719 140.132812 1157.058594 139.917969 1161.277344 140.09375 L 1170.0625 148.351562 L 1188.40625 165.59375 L 1208.109375 148.003906 L 1216.972656 140.09375 C 1221.160156 139.921875 1229.855469 140.125 1239.261719 144.855469 L 1239.261719 207.832031 L 1228.699219 207.832031 C 1228.699219 218.257812 1237.144531 226.707031 1247.558594 226.707031 " fill-opacity="1" fill-rule="evenodd"/><path fill="#698899" d="M 1371.941406 207.832031 L 1382.503906 207.832031 C 1382.503906 213.046875 1380.390625 217.765625 1376.980469 221.179688 C 1373.566406 224.59375 1368.851562 226.707031 1363.644531 226.707031 L 1247.558594 226.707031 C 1237.144531 226.707031 1228.699219 218.257812 1228.699219 207.832031 L 1371.941406 207.832031 " fill-opacity="1" fill-rule="evenodd"/><path fill="#557180" d="M 1371.941406 131.484375 L 1371.941406 207.832031 L 1239.261719 207.832031 L 1239.261719 131.484375 C 1239.261719 126.941406 1242.941406 123.253906 1247.484375 123.253906 L 1363.722656 123.253906 C 1368.261719 123.253906 1371.941406 126.941406 1371.941406 131.484375 " fill-opacity="1" fill-rule="evenodd"/><path fill="#333333" d="M 1221.96875 86.488281 C 1220.613281 86.488281 1219.285156 85.925781 1218.34375 84.9375 C 1217.644531 84.195312 1217.230469 83.371094 1216.605469 82.125 C 1215.578125 80.085938 1213.671875 76.292969 1209.738281 71.300781 C 1208.121094 69.246094 1207.476562 68.554688 1207.066406 68.144531 C 1206.84375 67.929688 1206.410156 67.523438 1205.792969 67.011719 C 1204.945312 67.835938 1204.019531 68.5625 1203.019531 69.183594 C 1198.664062 71.902344 1194.355469 71.796875 1191.207031 71.722656 L 1190.992188 71.714844 C 1190.902344 71.714844 1181.542969 71.503906 1171.558594 72.191406 L 1171.082031 72.226562 C 1167.796875 72.449219 1164.695312 72.660156 1162.375 73.898438 C 1160.316406 74.996094 1159.027344 77.546875 1158.195312 82.167969 C 1157.863281 84.023438 1156.5625 85.558594 1154.800781 86.183594 C 1152.671875 86.933594 1150.308594 86.203125 1148.925781 84.359375 C 1146.816406 81.554688 1146.40625 77.820312 1146.132812 75.351562 L 1146.125 75.265625 C 1145.632812 70.785156 1145.019531 62.761719 1146.453125 59.351562 C 1147.226562 57.5 1149.558594 52.683594 1154.421875 47.980469 C 1163.898438 38.808594 1179.417969 35.21875 1182.433594 34.59375 C 1188.3125 33.375 1193.949219 32.933594 1199.171875 33.300781 C 1202.851562 33.554688 1205.96875 34.015625 1208.707031 34.714844 C 1212.539062 35.683594 1215.558594 37.589844 1217.449219 40.230469 C 1218.417969 41.578125 1218.992188 42.925781 1219.496094 44.113281 C 1219.90625 45.066406 1220.257812 45.894531 1220.660156 46.320312 C 1221.320312 47.027344 1222.277344 47.710938 1223.292969 48.4375 C 1224.503906 49.304688 1225.878906 50.285156 1227.140625 51.574219 C 1230.203125 54.695312 1233.664062 59.949219 1234.203125 65.328125 C 1234.710938 70.410156 1232.554688 74.738281 1230.617188 77.9375 C 1230.402344 78.296875 1229.359375 79.910156 1228.332031 81.421875 C 1226.375 84.289062 1225.082031 86.183594 1222.496094 86.460938 C 1222.316406 86.480469 1222.144531 86.488281 1221.96875 86.488281 Z M 1204.863281 55.644531 C 1206.933594 55.644531 1208.589844 56.800781 1209.550781 57.476562 L 1209.636719 57.535156 C 1211.75 59.003906 1213.253906 60.390625 1213.96875 61.089844 C 1214.738281 61.847656 1215.636719 62.832031 1217.488281 65.179688 C 1219.621094 67.890625 1221.242188 70.292969 1222.476562 72.320312 C 1223.957031 69.777344 1224.546875 67.90625 1224.386719 66.316406 C 1224.164062 64.089844 1222.359375 60.800781 1220.101562 58.492188 C 1219.445312 57.824219 1218.53125 57.171875 1217.566406 56.484375 C 1216.265625 55.554688 1214.789062 54.503906 1213.457031 53.078125 C 1211.871094 51.378906 1211.070312 49.507812 1210.429688 48 C 1210.074219 47.171875 1209.769531 46.460938 1209.429688 45.984375 C 1208.933594 45.289062 1207.789062 44.671875 1206.289062 44.292969 C 1204.125 43.742188 1201.574219 43.371094 1198.492188 43.15625 C 1194.167969 42.859375 1189.441406 43.230469 1184.441406 44.269531 C 1177.40625 45.734375 1167.117188 49.445312 1161.277344 55.085938 C 1157.808594 58.445312 1156.132812 61.839844 1155.621094 63.019531 C 1155.519531 63.527344 1155.421875 64.761719 1155.441406 66.691406 C 1156.132812 66.140625 1156.898438 65.632812 1157.738281 65.183594 C 1161.917969 62.953125 1166.429688 62.644531 1170.414062 62.375 L 1170.882812 62.339844 C 1181.339844 61.621094 1190.832031 61.835938 1191.230469 61.847656 L 1191.453125 61.851562 C 1193.867188 61.914062 1195.953125 61.964844 1197.796875 60.8125 C 1198.753906 60.210938 1199.585938 59.339844 1200.265625 58.226562 C 1201.015625 56.976562 1202.269531 56.082031 1203.695312 55.773438 C 1204.097656 55.679688 1204.484375 55.644531 1204.863281 55.644531 Z M 1208.703125 63.335938 C 1208.703125 63.335938 1208.703125 63.339844 1208.703125 63.335938 Z M 1208.703125 63.328125 C 1208.703125 63.332031 1208.703125 63.332031 1208.703125 63.332031 C 1208.703125 63.332031 1208.703125 63.332031 1208.703125 63.328125 Z M 1208.726562 63.292969 C 1208.722656 63.304688 1208.714844 63.316406 1208.707031 63.328125 C 1208.714844 63.316406 1208.722656 63.304688 1208.726562 63.292969 Z M 1208.726562 63.292969 " fill-opacity="1" fill-rule="evenodd"/><path fill="#333333" d="M 1189.492188 139.578125 C 1187.242188 139.578125 1184.683594 139.363281 1181.929688 138.753906 C 1179.476562 138.210938 1173.085938 136.394531 1166.824219 131.261719 C 1163.820312 128.800781 1158.320312 123.375 1155.195312 114.679688 C 1154.480469 112.683594 1153.980469 110.570312 1153.648438 108.921875 C 1148.726562 106.402344 1144.964844 101.546875 1143.707031 95.839844 C 1142.222656 89.132812 1144.484375 82.5625 1149.910156 77.820312 C 1151.960938 76.023438 1155.082031 76.238281 1156.871094 78.289062 C 1158.664062 80.347656 1158.453125 83.46875 1156.398438 85.261719 C 1152.984375 88.246094 1152.851562 91.5 1153.335938 93.710938 C 1154.054688 96.960938 1156.554688 99.808594 1159.417969 100.640625 C 1161.296875 101.1875 1162.671875 102.785156 1162.933594 104.722656 C 1163.164062 106.429688 1163.703125 109.179688 1164.480469 111.335938 C 1166.890625 118.039062 1171.292969 122.164062 1173.070312 123.625 C 1177.816406 127.511719 1182.675781 128.804688 1184.050781 129.109375 C 1189.070312 130.21875 1193.195312 129.492188 1194.738281 129.125 C 1198.9375 128.132812 1201.800781 126.164062 1203.019531 125.320312 C 1203.902344 124.714844 1206.210938 123 1208.570312 120.199219 C 1211.992188 116.144531 1214.53125 110.589844 1215.902344 104.136719 C 1216.324219 102.15625 1217.910156 100.632812 1219.910156 100.296875 C 1221.980469 99.949219 1224.78125 95.839844 1225.085938 91.539062 C 1225.402344 87.203125 1223.148438 86.480469 1222.40625 86.238281 C 1219.816406 85.40625 1218.386719 82.621094 1219.222656 80.027344 C 1220.054688 77.429688 1222.832031 76 1225.429688 76.835938 C 1231.824219 78.898438 1235.464844 84.800781 1234.929688 92.246094 C 1234.457031 98.789062 1230.695312 106.070312 1224.902344 108.941406 C 1223.078125 115.898438 1220.125 121.820312 1216.113281 126.574219 C 1213.089844 130.15625 1210.121094 132.421875 1208.617188 133.457031 C 1207.082031 134.511719 1203.007812 137.320312 1197.007812 138.734375 C 1195.386719 139.117188 1192.765625 139.578125 1189.492188 139.578125 " fill-opacity="1" fill-rule="evenodd"/><path fill="#333333" d="M 1170.058594 151.792969 C 1169.320312 151.792969 1168.574219 151.628906 1167.867188 151.277344 C 1165.425781 150.066406 1164.425781 147.101562 1165.636719 144.65625 C 1166.554688 142.8125 1168.101562 139.117188 1168.207031 135.101562 C 1168.246094 133.65625 1168.074219 133.046875 1167.730469 131.832031 C 1167.625 131.472656 1167.511719 131.066406 1167.394531 130.605469 C 1166.71875 127.964844 1168.3125 125.273438 1170.949219 124.597656 C 1173.585938 123.921875 1176.273438 125.511719 1176.949219 128.152344 C 1177.035156 128.488281 1177.125 128.800781 1177.21875 129.136719 C 1177.652344 130.671875 1178.148438 132.410156 1178.070312 135.355469 C 1177.914062 141.269531 1175.75 146.472656 1174.476562 149.046875 C 1173.621094 150.78125 1171.875 151.792969 1170.058594 151.792969 " fill-opacity="1" fill-rule="evenodd"/><path fill="#333333" d="M 1208.113281 152.945312 C 1206.386719 152.945312 1204.710938 152.03125 1203.804688 150.417969 C 1201.875 146.964844 1199.535156 141.550781 1199.371094 135.355469 C 1199.296875 132.40625 1199.785156 130.671875 1200.222656 129.136719 C 1200.261719 129 1200.300781 128.859375 1200.339844 128.710938 C 1201.070312 126.082031 1203.785156 124.542969 1206.414062 125.273438 C 1209.039062 126.003906 1210.574219 128.726562 1209.847656 131.355469 C 1209.800781 131.515625 1209.757812 131.671875 1209.714844 131.824219 C 1209.371094 133.042969 1209.199219 133.652344 1209.238281 135.101562 C 1209.347656 139.273438 1211.023438 143.105469 1212.410156 145.589844 C 1213.746094 147.964844 1212.898438 150.976562 1210.523438 152.308594 C 1209.757812 152.742188 1208.929688 152.945312 1208.113281 152.945312 " fill-opacity="1" fill-rule="evenodd"/><g clip-path="url(#id2)"><path fill="#333333" d="M 1267.191406 231.648438 L 1111.058594 231.648438 C 1108.339844 231.648438 1106.132812 229.445312 1106.121094 226.726562 C 1106.085938 215.53125 1106.605469 187.542969 1112.21875 169.449219 C 1113.738281 164.546875 1115.582031 160.539062 1118.03125 156.835938 C 1120.082031 153.726562 1125.996094 145.921875 1136.539062 140.558594 C 1146.199219 135.644531 1155.433594 134.910156 1161.480469 135.160156 C 1162.664062 135.207031 1163.789062 135.679688 1164.652344 136.492188 L 1188.492188 158.898438 L 1213.6875 136.40625 C 1214.539062 135.648438 1215.625 135.207031 1216.765625 135.160156 C 1222.753906 134.910156 1231.898438 135.628906 1241.476562 140.441406 C 1243.914062 141.667969 1244.894531 144.632812 1243.671875 147.070312 C 1242.449219 149.511719 1239.484375 150.496094 1237.046875 149.269531 C 1230.222656 145.839844 1223.65625 145 1218.890625 144.996094 L 1191.691406 169.28125 C 1189.78125 170.984375 1186.890625 170.945312 1185.027344 169.195312 L 1159.28125 144.992188 C 1154.472656 145.007812 1147.871094 145.871094 1141.011719 149.363281 C 1132.5625 153.664062 1127.878906 159.828125 1126.257812 162.285156 C 1124.316406 165.226562 1122.890625 168.335938 1121.636719 172.375 C 1117.078125 187.09375 1116.167969 210.113281 1116.015625 221.773438 L 1267.191406 221.773438 C 1269.914062 221.773438 1272.121094 223.980469 1272.121094 226.707031 C 1272.121094 229.433594 1269.914062 231.648438 1267.191406 231.648438 " fill-opacity="1" fill-rule="evenodd"/></g><g clip-path="url(#id3)"><path fill="#333333" d="M 1141.277344 231.648438 C 1138.554688 231.648438 1136.34375 229.433594 1136.34375 226.707031 L 1136.34375 189.941406 C 1136.34375 187.21875 1138.554688 185.003906 1141.277344 185.003906 C 1144 185.003906 1146.210938 187.21875 1146.210938 189.941406 L 1146.210938 226.707031 C 1146.210938 229.4375 1144 231.648438 1141.277344 231.648438 " fill-opacity="1" fill-rule="evenodd"/></g><g clip-path="url(#id4)"><path fill="#333333" d="M 1404.945312 231.648438 L 1099.09375 231.648438 C 1096.371094 231.648438 1094.160156 229.433594 1094.160156 226.707031 C 1094.160156 223.980469 1096.371094 221.773438 1099.09375 221.773438 L 1404.945312 221.773438 C 1407.667969 221.773438 1409.878906 223.980469 1409.878906 226.707031 C 1409.878906 229.433594 1407.667969 231.648438 1404.945312 231.648438 " fill-opacity="1" fill-rule="evenodd"/></g><g clip-path="url(#id5)"><path fill="#333333" d="M 1363.644531 231.648438 L 1247.558594 231.648438 C 1234.441406 231.648438 1223.769531 220.964844 1223.769531 207.832031 C 1223.769531 205.105469 1225.980469 202.890625 1228.703125 202.890625 L 1382.503906 202.890625 C 1385.226562 202.890625 1387.4375 205.105469 1387.4375 207.832031 C 1387.433594 220.964844 1376.761719 231.648438 1363.644531 231.648438 Z M 1234.535156 212.769531 C 1236.53125 218.027344 1241.617188 221.773438 1247.558594 221.773438 L 1363.640625 221.773438 C 1369.585938 221.773438 1374.667969 218.027344 1376.664062 212.769531 L 1234.535156 212.769531 " fill-opacity="1" fill-rule="evenodd"/></g><path fill="#333333" d="M 1371.941406 212.769531 L 1239.261719 212.769531 C 1236.539062 212.769531 1234.328125 210.558594 1234.328125 207.832031 L 1234.328125 131.484375 C 1234.328125 124.222656 1240.230469 118.320312 1247.484375 118.320312 L 1363.722656 118.320312 C 1370.972656 118.320312 1376.875 124.222656 1376.875 131.484375 L 1376.875 207.832031 C 1376.875 210.558594 1374.664062 212.769531 1371.941406 212.769531 Z M 1244.195312 202.890625 L 1367.011719 202.890625 L 1367.011719 131.484375 C 1367.011719 129.671875 1365.535156 128.195312 1363.722656 128.195312 L 1247.484375 128.195312 C 1245.671875 128.195312 1244.195312 129.671875 1244.195312 131.484375 L 1244.195312 202.890625 " fill-opacity="1" fill-rule="evenodd"/><path fill="#333333" d="M 1283.476562 97.34375 C 1282.429688 97.34375 1281.378906 97.011719 1280.484375 96.332031 L 1254.28125 76.292969 C 1253.054688 75.355469 1252.339844 73.90625 1252.339844 72.371094 C 1252.339844 70.828125 1253.058594 69.378906 1254.28125 68.445312 L 1280.480469 48.40625 C 1282.648438 46.75 1285.742188 47.164062 1287.398438 49.335938 C 1289.050781 51.503906 1288.636719 54.601562 1286.472656 56.257812 L 1265.402344 72.371094 L 1286.472656 88.484375 C 1288.636719 90.140625 1289.050781 93.238281 1287.398438 95.40625 C 1286.425781 96.675781 1284.957031 97.34375 1283.476562 97.34375 " fill-opacity="1" fill-rule="evenodd"/><path fill="#333333" d="M 1327.730469 97.34375 C 1326.246094 97.34375 1324.777344 96.675781 1323.804688 95.402344 C 1322.152344 93.234375 1322.566406 90.132812 1324.734375 88.480469 L 1345.804688 72.371094 L 1324.734375 56.257812 C 1322.570312 54.597656 1322.152344 51.5 1323.804688 49.332031 C 1325.460938 47.164062 1328.558594 46.75 1330.722656 48.40625 L 1356.921875 68.441406 C 1358.144531 69.375 1358.859375 70.824219 1358.859375 72.367188 C 1358.859375 73.90625 1358.144531 75.355469 1356.921875 76.292969 L 1330.722656 96.328125 C 1329.824219 97.011719 1328.773438 97.34375 1327.730469 97.34375 " fill-opacity="1" fill-rule="evenodd"/><path fill="#333333" d="M 1297.042969 107.984375 C 1296.601562 107.984375 1296.15625 107.921875 1295.710938 107.796875 C 1293.089844 107.066406 1291.554688 104.34375 1292.289062 101.714844 L 1309.414062 40.363281 C 1310.148438 37.738281 1312.867188 36.203125 1315.492188 36.9375 C 1318.117188 37.675781 1319.648438 40.398438 1318.914062 43.023438 L 1301.789062 104.371094 C 1301.179688 106.554688 1299.199219 107.984375 1297.042969 107.984375 " fill-opacity="1" fill-rule="evenodd"/><g fill="#000000" fill-opacity="0.4"><g transform="translate(68.409703, 219.87151)"><g><path d="M 7.203125 -4.5625 C 7.203125 -28.707031 7.359375 -52.8125 7.671875 -76.875 C 7.992188 -100.9375 8.15625 -125.039062 8.15625 -149.1875 C 8.15625 -150.625 8.796875 -151.820312 10.078125 -152.78125 C 11.359375 -153.738281 12.914062 -154.5 14.75 -155.0625 C 16.59375 -155.625 18.550781 -156.023438 20.625 -156.265625 C 22.707031 -156.503906 24.546875 -156.625 26.140625 -156.625 C 27.742188 -156.625 29.503906 -156.503906 31.421875 -156.265625 C 33.335938 -156.023438 35.132812 -155.582031 36.8125 -154.9375 C 38.488281 -154.300781 39.882812 -153.378906 41 -152.171875 C 42.125 -150.972656 42.6875 -149.5 42.6875 -147.75 C 42.6875 -124.40625 42.523438 -101.140625 42.203125 -77.953125 C 41.890625 -54.765625 41.734375 -31.5 41.734375 -8.15625 C 41.734375 -5.4375 41.332031 -3.273438 40.53125 -1.671875 C 39.726562 -0.078125 38.609375 1.117188 37.171875 1.921875 C 35.734375 2.722656 33.972656 3.242188 31.890625 3.484375 C 29.816406 3.722656 27.582031 3.84375 25.1875 3.84375 C 24.0625 3.84375 22.5 3.800781 20.5 3.71875 C 18.507812 3.632812 16.515625 3.3125 14.515625 2.75 C 12.515625 2.195312 10.796875 1.359375 9.359375 0.234375 C 7.921875 -0.878906 7.203125 -2.476562 7.203125 -4.5625 Z M 14.625 -130 C 14.3125 -128.238281 14.191406 -125.957031 14.265625 -123.15625 C 14.347656 -120.363281 14.390625 -117.925781 14.390625 -115.84375 C 14.390625 -114.726562 14.347656 -112.691406 14.265625 -109.734375 C 14.191406 -106.773438 14.113281 -103.414062 14.03125 -99.65625 C 13.945312 -95.894531 13.863281 -91.894531 13.78125 -87.65625 C 13.707031 -83.425781 13.671875 -79.507812 13.671875 -75.90625 C 13.671875 -72.3125 13.671875 -69.234375 13.671875 -66.671875 C 13.671875 -64.117188 13.832031 -62.601562 14.15625 -62.125 C 14.46875 -61.320312 15.1875 -60.921875 16.3125 -60.921875 C 18.070312 -60.921875 18.953125 -61.71875 18.953125 -63.3125 C 18.953125 -65.550781 19.03125 -68.789062 19.1875 -73.03125 C 19.34375 -77.269531 19.460938 -81.707031 19.546875 -86.34375 C 19.628906 -90.976562 19.671875 -95.453125 19.671875 -99.765625 C 19.671875 -104.085938 19.585938 -107.53125 19.421875 -110.09375 L 19.421875 -129.75 C 19.421875 -130.226562 19.140625 -130.707031 18.578125 -131.1875 C 18.023438 -131.675781 17.507812 -131.921875 17.03125 -131.921875 C 15.75 -131.921875 14.945312 -131.28125 14.625 -130 Z M 13.4375 -54.921875 C 13.4375 -53.003906 14.472656 -52.046875 16.546875 -52.046875 C 18.460938 -52.046875 19.421875 -53.003906 19.421875 -54.921875 C 19.585938 -55.878906 19.347656 -56.597656 18.703125 -57.078125 C 18.066406 -57.554688 17.347656 -57.796875 16.546875 -57.796875 C 14.785156 -57.796875 13.75 -56.835938 13.4375 -54.921875 Z M 13.4375 -45.8125 C 13.4375 -43.894531 14.472656 -42.9375 16.546875 -42.9375 C 18.460938 -42.9375 19.421875 -43.894531 19.421875 -45.8125 C 19.585938 -46.769531 19.347656 -47.488281 18.703125 -47.96875 C 18.066406 -48.445312 17.347656 -48.6875 16.546875 -48.6875 C 14.785156 -48.6875 13.75 -47.726562 13.4375 -45.8125 Z M 13.4375 -45.8125 "/></g></g></g><g fill="#000000" fill-opacity="0.4"><g transform="translate(122.852953, 219.87151)"><g><path d="M 7.203125 -145.828125 C 7.203125 -147.898438 7.921875 -149.613281 9.359375 -150.96875 C 10.796875 -152.332031 12.515625 -153.414062 14.515625 -154.21875 C 16.515625 -155.019531 18.628906 -155.578125 20.859375 -155.890625 C 23.097656 -156.210938 24.941406 -156.375 26.390625 -156.375 C 29.421875 -156.375 32.453125 -155.894531 35.484375 -154.9375 C 38.523438 -153.976562 41.007812 -152.21875 42.9375 -149.65625 C 44.375 -147.90625 45.691406 -145.75 46.890625 -143.1875 C 48.085938 -140.625 49.285156 -137.984375 50.484375 -135.265625 C 51.679688 -132.546875 52.800781 -129.828125 53.84375 -127.109375 C 54.882812 -124.398438 55.882812 -122.003906 56.84375 -119.921875 C 61.476562 -109.367188 66.15625 -98.972656 70.875 -88.734375 C 75.59375 -78.503906 80.585938 -68.351562 85.859375 -58.28125 C 85.546875 -61 85.347656 -63.71875 85.265625 -66.4375 C 85.179688 -69.15625 85.140625 -71.875 85.140625 -74.59375 C 85.140625 -87.0625 84.941406 -99.488281 84.546875 -111.875 C 84.148438 -124.269531 83.953125 -136.707031 83.953125 -149.1875 C 83.953125 -150.78125 84.75 -152.097656 86.34375 -153.140625 C 87.945312 -154.179688 89.828125 -154.976562 91.984375 -155.53125 C 94.140625 -156.09375 96.253906 -156.453125 98.328125 -156.609375 C 100.410156 -156.773438 102.015625 -156.859375 103.140625 -156.859375 C 104.734375 -156.859375 106.445312 -156.738281 108.28125 -156.5 C 110.125 -156.257812 111.84375 -155.78125 113.4375 -155.0625 C 115.039062 -154.34375 116.363281 -153.34375 117.40625 -152.0625 C 118.445312 -150.78125 118.96875 -149.101562 118.96875 -147.03125 C 118.96875 -123.519531 118.484375 -100.09375 117.515625 -76.75 C 116.554688 -53.40625 116.078125 -29.976562 116.078125 -6.46875 C 116.078125 -3.914062 115.597656 -1.921875 114.640625 -0.484375 C 113.679688 0.953125 112.441406 1.988281 110.921875 2.625 C 109.410156 3.269531 107.65625 3.632812 105.65625 3.71875 C 103.65625 3.800781 101.695312 3.84375 99.78125 3.84375 C 96.582031 3.84375 93.625 3 90.90625 1.3125 C 88.1875 -0.363281 85.867188 -2.476562 83.953125 -5.03125 C 80.585938 -9.351562 77.585938 -14.3125 74.953125 -19.90625 C 72.316406 -25.5 69.796875 -30.773438 67.390625 -35.734375 C 62.753906 -45.003906 58.15625 -54.273438 53.59375 -63.546875 C 49.039062 -72.828125 44.367188 -82.023438 39.578125 -91.140625 C 40.378906 -77.234375 40.898438 -63.320312 41.140625 -49.40625 C 41.378906 -35.5 41.5 -21.585938 41.5 -7.671875 C 41.5 -3.035156 39.859375 0.078125 36.578125 1.671875 C 33.296875 3.273438 29.738281 4.078125 25.90625 4.078125 C 24.46875 4.078125 22.707031 3.957031 20.625 3.71875 C 18.550781 3.476562 16.515625 3.035156 14.515625 2.390625 C 12.515625 1.753906 10.796875 0.835938 9.359375 -0.359375 C 7.921875 -1.554688 7.203125 -3.113281 7.203125 -5.03125 Z M 13.90625 -124.234375 C 13.59375 -122.472656 13.472656 -120.191406 13.546875 -117.390625 C 13.628906 -114.597656 13.671875 -112.164062 13.671875 -110.09375 C 13.671875 -108.96875 13.671875 -106.566406 13.671875 -102.890625 C 13.671875 -99.210938 13.628906 -94.9375 13.546875 -90.0625 C 13.472656 -85.1875 13.4375 -80.03125 13.4375 -74.59375 C 13.4375 -69.15625 13.4375 -64.117188 13.4375 -59.484375 C 13.4375 -54.847656 13.515625 -50.890625 13.671875 -47.609375 C 13.828125 -44.328125 13.988281 -42.445312 14.15625 -41.96875 C 14.46875 -41.175781 15.1875 -40.78125 16.3125 -40.78125 C 18.070312 -40.78125 18.953125 -41.578125 18.953125 -43.171875 C 18.953125 -45.410156 18.988281 -49.367188 19.0625 -55.046875 C 19.144531 -60.722656 19.1875 -66.796875 19.1875 -73.265625 C 19.1875 -79.742188 19.144531 -85.898438 19.0625 -91.734375 C 18.988281 -97.578125 18.867188 -101.773438 18.703125 -104.328125 L 18.703125 -124 C 18.703125 -124.476562 18.421875 -124.957031 17.859375 -125.4375 C 17.304688 -125.914062 16.789062 -126.15625 16.3125 -126.15625 C 15.03125 -126.15625 14.226562 -125.515625 13.90625 -124.234375 Z M 13.90625 -34.78125 C 13.90625 -32.863281 14.945312 -31.90625 17.03125 -31.90625 C 18.945312 -31.90625 19.90625 -32.863281 19.90625 -34.78125 C 20.0625 -35.738281 19.820312 -36.457031 19.1875 -36.9375 C 18.550781 -37.414062 17.832031 -37.65625 17.03125 -37.65625 C 15.269531 -37.65625 14.226562 -36.695312 13.90625 -34.78125 Z M 91.140625 -79.625 C 91.140625 -78.988281 91.457031 -78.507812 92.09375 -78.1875 C 92.738281 -77.863281 93.378906 -77.703125 94.015625 -77.703125 C 94.492188 -77.703125 95.015625 -77.941406 95.578125 -78.421875 C 96.140625 -78.910156 96.421875 -79.394531 96.421875 -79.875 C 96.421875 -86.582031 96.421875 -92.210938 96.421875 -96.765625 C 96.421875 -101.328125 96.421875 -105.328125 96.421875 -108.765625 C 96.421875 -112.203125 96.378906 -115.320312 96.296875 -118.125 C 96.210938 -120.925781 96.171875 -123.925781 96.171875 -127.125 C 96.171875 -128.71875 95.296875 -129.515625 93.546875 -129.515625 C 92.421875 -129.515625 91.695312 -129.113281 91.375 -128.3125 C 91.21875 -127.832031 91.054688 -126.429688 90.890625 -124.109375 C 90.734375 -121.796875 90.65625 -119.039062 90.65625 -115.84375 C 90.65625 -112.644531 90.695312 -109.164062 90.78125 -105.40625 C 90.863281 -101.65625 90.90625 -98.0625 90.90625 -94.625 C 90.90625 -91.1875 90.941406 -88.109375 91.015625 -85.390625 C 91.097656 -82.671875 91.140625 -80.75 91.140625 -79.625 Z M 91.140625 -135.515625 C 91.460938 -133.597656 92.503906 -132.640625 94.265625 -132.640625 C 95.054688 -132.640625 95.769531 -132.878906 96.40625 -133.359375 C 97.050781 -133.835938 97.296875 -134.554688 97.140625 -135.515625 C 97.140625 -137.429688 96.179688 -138.390625 94.265625 -138.390625 C 92.179688 -138.390625 91.140625 -137.429688 91.140625 -135.515625 Z M 91.140625 -135.515625 "/></g></g></g><g fill="#000000" fill-opacity="0.4"><g transform="translate(252.844629, 219.87151)"><g><path d="M 61.40625 7.4375 C 53.5625 7.4375 46.203125 5.914062 39.328125 2.875 C 32.453125 -0.15625 26.457031 -4.75 21.34375 -10.90625 C 16.226562 -17.0625 12.191406 -24.816406 9.234375 -34.171875 C 6.273438 -43.523438 4.796875 -54.519531 4.796875 -67.15625 C 4.796875 -79.625 5.632812 -91.414062 7.3125 -102.53125 C 8.988281 -113.644531 11.863281 -123.359375 15.9375 -131.671875 C 20.019531 -139.984375 25.539062 -146.578125 32.5 -151.453125 C 39.457031 -156.335938 48.289062 -158.78125 59 -158.78125 C 66.351562 -158.78125 72.664062 -157.457031 77.9375 -154.8125 C 83.21875 -152.175781 87.578125 -148.738281 91.015625 -144.5 C 94.453125 -140.269531 97.128906 -135.515625 99.046875 -130.234375 C 100.972656 -124.960938 102.253906 -119.726562 102.890625 -114.53125 C 103.535156 -109.332031 103.65625 -104.332031 103.25 -99.53125 C 102.851562 -94.738281 102.09375 -90.820312 100.96875 -87.78125 C 100.007812 -85.0625 97.734375 -82.941406 94.140625 -81.421875 C 90.546875 -79.910156 86.90625 -79.15625 83.21875 -79.15625 C 80.34375 -79.15625 77.863281 -79.710938 75.78125 -80.828125 C 73.707031 -81.941406 72.671875 -83.703125 72.671875 -86.109375 C 72.671875 -88.828125 72.789062 -92.625 73.03125 -97.5 C 73.269531 -102.375 73.066406 -107.171875 72.421875 -111.890625 C 71.785156 -116.609375 70.46875 -120.722656 68.46875 -124.234375 C 66.476562 -127.753906 63.242188 -129.515625 58.765625 -129.515625 C 55.722656 -129.515625 53.003906 -127.875 50.609375 -124.59375 C 48.210938 -121.320312 46.171875 -116.847656 44.484375 -111.171875 C 42.804688 -105.492188 41.566406 -98.9375 40.765625 -91.5 C 39.972656 -84.0625 39.578125 -76.1875 39.578125 -67.875 C 39.578125 -62.113281 40.015625 -56.351562 40.890625 -50.59375 C 41.773438 -44.84375 43.132812 -39.648438 44.96875 -35.015625 C 46.8125 -30.378906 49.171875 -26.617188 52.046875 -23.734375 C 54.921875 -20.859375 58.4375 -19.421875 62.59375 -19.421875 C 65.632812 -19.421875 68.3125 -20.179688 70.625 -21.703125 C 72.945312 -23.222656 75.023438 -25.140625 76.859375 -27.453125 C 78.703125 -29.773438 80.265625 -32.375 81.546875 -35.25 C 82.828125 -38.132812 83.867188 -41.015625 84.671875 -43.890625 C 85.148438 -45.492188 86.265625 -46.65625 88.015625 -47.375 C 89.773438 -48.09375 91.773438 -48.453125 94.015625 -48.453125 C 97.210938 -48.453125 100.332031 -47.648438 103.375 -46.046875 C 106.414062 -44.453125 107.9375 -42.054688 107.9375 -38.859375 C 107.9375 -32.941406 106.9375 -27.179688 104.9375 -21.578125 C 102.9375 -15.984375 99.976562 -11.023438 96.0625 -6.703125 C 92.144531 -2.390625 87.304688 1.039062 81.546875 3.59375 C 75.785156 6.15625 69.070312 7.4375 61.40625 7.4375 Z M 9.109375 -67.640625 C 9.109375 -66.035156 9.910156 -65.234375 11.515625 -65.234375 C 12.796875 -65.234375 13.59375 -66.035156 13.90625 -67.640625 C 14.226562 -69.398438 14.347656 -71.316406 14.265625 -73.390625 C 14.191406 -75.472656 14.234375 -77.394531 14.390625 -79.15625 C 14.710938 -83.46875 15.148438 -88.140625 15.703125 -93.171875 C 16.265625 -98.210938 17.101562 -103.210938 18.21875 -108.171875 C 19.34375 -113.128906 20.820312 -117.882812 22.65625 -122.4375 C 24.5 -127 26.703125 -131.035156 29.265625 -134.546875 C 29.898438 -135.347656 31.097656 -136.664062 32.859375 -138.5 C 34.617188 -140.34375 35.5 -141.664062 35.5 -142.46875 C 35.5 -144.0625 34.695312 -144.859375 33.09375 -144.859375 C 32.300781 -144.859375 31.222656 -144.175781 29.859375 -142.8125 C 28.503906 -141.457031 27.585938 -140.382812 27.109375 -139.59375 C 23.429688 -134.789062 20.429688 -129.429688 18.109375 -123.515625 C 15.785156 -117.597656 13.941406 -111.484375 12.578125 -105.171875 C 11.222656 -98.859375 10.304688 -92.503906 9.828125 -86.109375 C 9.347656 -79.710938 9.109375 -73.554688 9.109375 -67.640625 Z M 8.640625 -59.484375 C 8.640625 -57.566406 9.675781 -56.609375 11.75 -56.609375 C 13.664062 -56.609375 14.625 -57.566406 14.625 -59.484375 C 14.625 -61.554688 13.664062 -62.59375 11.75 -62.59375 C 9.675781 -62.59375 8.640625 -61.554688 8.640625 -59.484375 Z M 9.359375 -50.609375 C 9.359375 -48.691406 10.394531 -47.734375 12.46875 -47.734375 C 14.382812 -47.734375 15.34375 -48.691406 15.34375 -50.609375 C 15.34375 -52.679688 14.382812 -53.71875 12.46875 -53.71875 C 10.394531 -53.71875 9.359375 -52.679688 9.359375 -50.609375 Z M 9.359375 -50.609375 "/></g></g></g><g fill="#000000" fill-opacity="0.4"><g transform="translate(369.885125, 219.87151)"><g><path d="M 62.359375 7.4375 C 43.972656 7.4375 29.78125 0.84375 19.78125 -12.34375 C 9.789062 -25.539062 4.796875 -43.8125 4.796875 -67.15625 C 4.796875 -79.625 5.710938 -91.414062 7.546875 -102.53125 C 9.390625 -113.644531 12.46875 -123.359375 16.78125 -131.671875 C 21.101562 -139.984375 26.859375 -146.578125 34.046875 -151.453125 C 41.242188 -156.335938 50.28125 -158.78125 61.15625 -158.78125 C 72.03125 -158.78125 81.101562 -156.820312 88.375 -152.90625 C 95.65625 -148.988281 101.535156 -143.507812 106.015625 -136.46875 C 110.492188 -129.4375 113.691406 -121.082031 115.609375 -111.40625 C 117.523438 -101.726562 118.484375 -91.132812 118.484375 -79.625 C 118.484375 -65.394531 117.601562 -52.84375 115.84375 -41.96875 C 114.082031 -31.09375 111.082031 -22.019531 106.84375 -14.75 C 102.613281 -7.476562 96.898438 -1.960938 89.703125 1.796875 C 82.503906 5.554688 73.390625 7.4375 62.359375 7.4375 Z M 40.78125 -67.875 C 40.78125 -54.125 42.535156 -43.09375 46.046875 -34.78125 C 49.566406 -26.46875 55.082031 -22.3125 62.59375 -22.3125 C 66.4375 -22.3125 69.675781 -23.585938 72.3125 -26.140625 C 74.945312 -28.703125 77.0625 -32.300781 78.65625 -36.9375 C 80.257812 -41.570312 81.378906 -47.164062 82.015625 -53.71875 C 82.660156 -60.28125 82.984375 -67.640625 82.984375 -75.796875 C 82.984375 -82.023438 82.660156 -88.21875 82.015625 -94.375 C 81.378906 -100.53125 80.222656 -106.003906 78.546875 -110.796875 C 76.867188 -115.597656 74.628906 -119.476562 71.828125 -122.4375 C 69.035156 -125.394531 65.5625 -126.875 61.40625 -126.875 C 57.726562 -126.875 54.566406 -125.15625 51.921875 -121.71875 C 49.285156 -118.28125 47.128906 -113.765625 45.453125 -108.171875 C 43.773438 -102.578125 42.578125 -96.257812 41.859375 -89.21875 C 41.140625 -82.1875 40.78125 -75.070312 40.78125 -67.875 Z M 9.359375 -66.203125 C 9.359375 -64.597656 10.15625 -63.796875 11.75 -63.796875 C 13.03125 -63.796875 13.832031 -64.597656 14.15625 -66.203125 C 14.46875 -67.953125 14.582031 -69.867188 14.5 -71.953125 C 14.425781 -74.035156 14.46875 -75.953125 14.625 -77.703125 C 14.945312 -82.023438 15.390625 -86.703125 15.953125 -91.734375 C 16.515625 -96.773438 17.351562 -101.773438 18.46875 -106.734375 C 19.582031 -111.691406 21.054688 -116.445312 22.890625 -121 C 24.734375 -125.5625 26.9375 -129.597656 29.5 -133.109375 C 30.132812 -133.910156 31.332031 -135.226562 33.09375 -137.0625 C 34.851562 -138.90625 35.734375 -140.226562 35.734375 -141.03125 C 35.734375 -142.625 34.9375 -143.421875 33.34375 -143.421875 C 32.539062 -143.421875 31.457031 -142.738281 30.09375 -141.375 C 28.738281 -140.019531 27.820312 -138.945312 27.34375 -138.15625 C 23.664062 -133.351562 20.664062 -127.992188 18.34375 -122.078125 C 16.03125 -116.160156 14.191406 -110.046875 12.828125 -103.734375 C 11.472656 -97.421875 10.554688 -91.066406 10.078125 -84.671875 C 9.597656 -78.273438 9.359375 -72.117188 9.359375 -66.203125 Z M 8.875 -58.046875 C 8.875 -56.128906 9.914062 -55.171875 12 -55.171875 C 13.914062 -55.171875 14.875 -56.128906 14.875 -58.046875 C 14.875 -60.117188 13.914062 -61.15625 12 -61.15625 C 9.914062 -61.15625 8.875 -60.117188 8.875 -58.046875 Z M 9.59375 -49.171875 C 9.59375 -47.253906 10.632812 -46.296875 12.71875 -46.296875 C 14.632812 -46.296875 15.59375 -47.253906 15.59375 -49.171875 C 15.59375 -51.242188 14.632812 -52.28125 12.71875 -52.28125 C 10.632812 -52.28125 9.59375 -51.242188 9.59375 -49.171875 Z M 9.59375 -49.171875 "/></g></g></g><g fill="#000000" fill-opacity="0.4"><g transform="translate(497.718253, 219.87151)"><g/></g></g><g fill="#000000" fill-opacity="0.4"><g transform="translate(562.234622, 219.87151)"><g><path d="M 1.4375 -5.75 C 1.4375 -6.875 1.835938 -9.59375 2.640625 -13.90625 C 3.441406 -18.226562 4.5625 -23.546875 6 -29.859375 C 7.4375 -36.171875 9.070312 -43.242188 10.90625 -51.078125 C 12.75 -58.921875 14.628906 -66.914062 16.546875 -75.0625 C 18.460938 -83.21875 20.421875 -91.289062 22.421875 -99.28125 C 24.421875 -107.28125 26.257812 -114.597656 27.9375 -121.234375 C 29.613281 -127.867188 31.050781 -133.546875 32.25 -138.265625 C 33.457031 -142.984375 34.378906 -146.222656 35.015625 -147.984375 C 35.660156 -149.898438 36.941406 -151.5 38.859375 -152.78125 C 40.773438 -154.0625 42.929688 -155.019531 45.328125 -155.65625 C 47.722656 -156.300781 50.160156 -156.742188 52.640625 -156.984375 C 55.117188 -157.222656 57.238281 -157.34375 59 -157.34375 C 60.757812 -157.34375 62.796875 -157.222656 65.109375 -156.984375 C 67.429688 -156.742188 69.710938 -156.34375 71.953125 -155.78125 C 74.191406 -155.21875 76.226562 -154.375 78.0625 -153.25 C 79.90625 -152.132812 81.226562 -150.617188 82.03125 -148.703125 C 82.1875 -148.546875 82.742188 -146.382812 83.703125 -142.21875 C 84.660156 -138.0625 85.898438 -132.625 87.421875 -125.90625 C 88.941406 -119.195312 90.617188 -111.644531 92.453125 -103.25 C 94.296875 -94.851562 96.175781 -86.257812 98.09375 -77.46875 C 100.007812 -68.675781 101.882812 -60.039062 103.71875 -51.5625 C 105.5625 -43.09375 107.203125 -35.5 108.640625 -28.78125 C 110.085938 -22.0625 111.25 -16.582031 112.125 -12.34375 C 113.007812 -8.113281 113.453125 -5.835938 113.453125 -5.515625 C 113.453125 -3.117188 112.726562 -1.320312 111.28125 -0.125 C 109.84375 1.070312 108.125 1.988281 106.125 2.625 C 104.132812 3.269531 102.019531 3.632812 99.78125 3.71875 C 97.539062 3.800781 95.617188 3.84375 94.015625 3.84375 C 89.054688 3.84375 85.335938 3.203125 82.859375 1.921875 C 80.390625 0.640625 78.550781 -1.273438 77.34375 -3.828125 C 76.144531 -6.390625 75.265625 -9.46875 74.703125 -13.0625 C 74.148438 -16.664062 73.3125 -20.785156 72.1875 -25.421875 C 68.507812 -25.421875 64.953125 -25.457031 61.515625 -25.53125 C 58.078125 -25.613281 54.519531 -25.65625 50.84375 -25.65625 C 48.769531 -25.65625 46.734375 -25.65625 44.734375 -25.65625 C 42.734375 -25.65625 40.691406 -25.578125 38.609375 -25.421875 C 37.972656 -21.742188 37.375 -18.144531 36.8125 -14.625 C 36.257812 -11.113281 35.582031 -7.519531 34.78125 -3.84375 C 33.976562 -0.320312 32.535156 1.835938 30.453125 2.640625 C 28.378906 3.441406 25.984375 3.84375 23.265625 3.84375 C 21.828125 3.84375 19.867188 3.722656 17.390625 3.484375 C 14.910156 3.242188 12.46875 2.800781 10.0625 2.15625 C 7.664062 1.519531 5.628906 0.5625 3.953125 -0.71875 C 2.273438 -2 1.4375 -3.675781 1.4375 -5.75 Z M 68.59375 -50.609375 C 66.832031 -61.316406 64.753906 -72.304688 62.359375 -83.578125 C 59.960938 -94.859375 58.046875 -106.253906 56.609375 -117.765625 C 54.203125 -107.210938 51.957031 -96.019531 49.875 -84.1875 C 47.800781 -72.351562 45.644531 -61.160156 43.40625 -50.609375 Z M 14.625 -32.859375 C 14.625 -31.253906 15.425781 -30.453125 17.03125 -30.453125 C 17.988281 -30.453125 18.707031 -30.851562 19.1875 -31.65625 C 19.1875 -31.820312 19.425781 -32.898438 19.90625 -34.890625 C 20.382812 -36.890625 20.90625 -39.128906 21.46875 -41.609375 C 22.03125 -44.085938 22.585938 -46.484375 23.140625 -48.796875 C 23.703125 -51.117188 24.0625 -52.601562 24.21875 -53.25 C 25.5 -58.207031 26.617188 -62.882812 27.578125 -67.28125 C 28.535156 -71.675781 29.492188 -75.988281 30.453125 -80.21875 C 31.421875 -84.457031 32.421875 -88.773438 33.453125 -93.171875 C 34.492188 -97.578125 35.65625 -102.175781 36.9375 -106.96875 C 37.09375 -107.769531 37.410156 -109.050781 37.890625 -110.8125 C 38.367188 -112.570312 38.847656 -114.410156 39.328125 -116.328125 C 39.804688 -118.242188 40.242188 -120.039062 40.640625 -121.71875 C 41.046875 -123.394531 41.25 -124.472656 41.25 -124.953125 C 41.25 -126.554688 40.453125 -127.359375 38.859375 -127.359375 C 37.898438 -127.359375 37.179688 -126.957031 36.703125 -126.15625 C 36.535156 -126 36.171875 -124.921875 35.609375 -122.921875 C 35.054688 -120.921875 34.5 -118.679688 33.9375 -116.203125 C 33.375 -113.722656 32.8125 -111.40625 32.25 -109.25 C 31.695312 -107.09375 31.34375 -105.613281 31.1875 -104.8125 C 29.90625 -99.53125 28.703125 -94.570312 27.578125 -89.9375 C 26.460938 -85.300781 25.382812 -80.664062 24.34375 -76.03125 C 23.300781 -71.394531 22.257812 -66.757812 21.21875 -62.125 C 20.1875 -57.488281 19.03125 -52.53125 17.75 -47.25 C 17.269531 -45.164062 16.628906 -42.722656 15.828125 -39.921875 C 15.023438 -37.128906 14.625 -34.773438 14.625 -32.859375 Z M 37.890625 -133.59375 C 37.890625 -131.507812 38.929688 -130.46875 41.015625 -130.46875 C 42.929688 -130.46875 43.890625 -131.507812 43.890625 -133.59375 C 43.890625 -135.507812 42.929688 -136.46875 41.015625 -136.46875 C 38.929688 -136.46875 37.890625 -135.507812 37.890625 -133.59375 Z M 37.890625 -133.59375 "/></g></g></g><g fill="#000000" fill-opacity="0.4"><g transform="translate(681.913346, 219.87151)"><g><path d="M 26.859375 -36.9375 C 26.859375 -41.570312 27.617188 -45.890625 29.140625 -49.890625 C 30.660156 -53.890625 32.660156 -57.6875 35.140625 -61.28125 C 37.617188 -64.875 40.535156 -68.269531 43.890625 -71.46875 C 47.242188 -74.664062 50.757812 -77.707031 54.4375 -80.59375 C 50.28125 -88.582031 46.960938 -96.253906 44.484375 -103.609375 C 42.015625 -110.960938 40.78125 -117.679688 40.78125 -123.765625 C 40.78125 -129.359375 41.859375 -134.632812 44.015625 -139.59375 C 46.171875 -144.550781 49.164062 -148.90625 53 -152.65625 C 56.84375 -156.414062 61.398438 -159.414062 66.671875 -161.65625 C 71.953125 -163.894531 77.710938 -165.015625 83.953125 -165.015625 C 89.703125 -165.015625 95.015625 -164.050781 99.890625 -162.125 C 104.765625 -160.207031 108.960938 -157.53125 112.484375 -154.09375 C 116.003906 -150.65625 118.765625 -146.65625 120.765625 -142.09375 C 122.765625 -137.539062 123.765625 -132.628906 123.765625 -127.359375 C 123.765625 -121.441406 122.5625 -116.082031 120.15625 -111.28125 C 117.757812 -106.488281 114.679688 -102.09375 110.921875 -98.09375 C 107.171875 -94.09375 102.972656 -90.332031 98.328125 -86.8125 C 93.691406 -83.300781 89.054688 -79.867188 84.421875 -76.515625 C 88.421875 -70.117188 92.738281 -63.800781 97.375 -57.5625 C 102.007812 -51.320312 106.726562 -45.484375 111.53125 -40.046875 C 114.25 -43.890625 116.566406 -47.847656 118.484375 -51.921875 C 120.398438 -56.003906 121.835938 -59.960938 122.796875 -63.796875 C 118.316406 -63.796875 114.359375 -64.195312 110.921875 -65 C 107.484375 -65.800781 105.765625 -68.195312 105.765625 -72.1875 C 105.765625 -74.113281 106.441406 -76.113281 107.796875 -78.1875 C 109.160156 -80.269531 111.921875 -81.3125 116.078125 -81.3125 C 116.878906 -81.3125 119.28125 -81.269531 123.28125 -81.1875 C 127.28125 -81.101562 132.796875 -81.0625 139.828125 -81.0625 L 151.828125 -81.0625 C 154.054688 -81.0625 155.53125 -80.378906 156.25 -79.015625 C 156.976562 -77.660156 157.34375 -75.863281 157.34375 -73.625 C 157.34375 -72.03125 157.179688 -70.632812 156.859375 -69.4375 C 156.535156 -68.238281 155.851562 -67.238281 154.8125 -66.4375 C 153.78125 -65.632812 152.265625 -65.03125 150.265625 -64.625 C 148.265625 -64.226562 145.664062 -64.03125 142.46875 -64.03125 C 140.226562 -57.957031 137.585938 -51.722656 134.546875 -45.328125 C 131.515625 -38.929688 128 -32.859375 124 -27.109375 C 128.632812 -22.941406 132.953125 -19.578125 136.953125 -17.015625 C 140.953125 -14.460938 144.390625 -13.1875 147.265625 -13.1875 C 149.335938 -13.1875 151.132812 -12.503906 152.65625 -11.140625 C 154.175781 -9.785156 154.9375 -7.832031 154.9375 -5.28125 C 154.9375 -2.082031 153.695312 0.191406 151.21875 1.546875 C 148.738281 2.910156 145.984375 3.59375 142.953125 3.59375 C 138.304688 3.59375 133.222656 2.234375 127.703125 -0.484375 C 122.191406 -3.203125 116.476562 -6.878906 110.5625 -11.515625 C 105.613281 -7.191406 100.179688 -3.75 94.265625 -1.1875 C 88.347656 1.363281 81.789062 2.640625 74.59375 2.640625 C 68.832031 2.640625 63.113281 1.796875 57.4375 0.109375 C 51.757812 -1.566406 46.640625 -4.082031 42.078125 -7.4375 C 37.523438 -10.789062 33.847656 -14.945312 31.046875 -19.90625 C 28.253906 -24.863281 26.859375 -30.539062 26.859375 -36.9375 Z M 74.359375 -94.5 C 78.191406 -97.21875 81.863281 -99.816406 85.375 -102.296875 C 88.894531 -104.773438 91.972656 -107.289062 94.609375 -109.84375 C 97.253906 -112.40625 99.335938 -115.003906 100.859375 -117.640625 C 102.378906 -120.273438 103.140625 -123.035156 103.140625 -125.921875 C 103.140625 -127.835938 102.738281 -129.832031 101.9375 -131.90625 C 101.132812 -133.988281 99.929688 -135.867188 98.328125 -137.546875 C 96.734375 -139.222656 94.773438 -140.582031 92.453125 -141.625 C 90.140625 -142.664062 87.382812 -143.1875 84.1875 -143.1875 C 80.664062 -143.1875 77.707031 -142.503906 75.3125 -141.140625 C 72.914062 -139.785156 71.035156 -138.109375 69.671875 -136.109375 C 68.316406 -134.109375 67.359375 -131.910156 66.796875 -129.515625 C 66.234375 -127.117188 65.953125 -124.878906 65.953125 -122.796875 C 65.953125 -119.117188 66.671875 -114.84375 68.109375 -109.96875 C 69.554688 -105.09375 71.640625 -99.9375 74.359375 -94.5 Z M 95.703125 -24.9375 C 90.421875 -30.21875 85.257812 -35.894531 80.21875 -41.96875 C 75.1875 -48.050781 70.515625 -54.367188 66.203125 -60.921875 C 63.316406 -57.722656 60.992188 -54.285156 59.234375 -50.609375 C 57.484375 -46.929688 56.609375 -42.929688 56.609375 -38.609375 C 56.609375 -32.210938 58.445312 -27.375 62.125 -24.09375 C 65.800781 -20.820312 70.675781 -19.1875 76.75 -19.1875 C 83.300781 -19.1875 89.617188 -21.101562 95.703125 -24.9375 Z M 48.203125 -141.984375 C 48.523438 -140.066406 49.566406 -139.109375 51.328125 -139.109375 C 52.128906 -139.109375 52.847656 -139.347656 53.484375 -139.828125 C 54.117188 -140.304688 54.359375 -141.023438 54.203125 -141.984375 C 54.203125 -143.898438 53.242188 -144.859375 51.328125 -144.859375 C 49.242188 -144.859375 48.203125 -143.898438 48.203125 -141.984375 Z M 45.09375 -127.359375 C 45.09375 -121.117188 45.890625 -114.640625 47.484375 -107.921875 C 49.085938 -101.210938 51.328125 -95.0625 54.203125 -89.46875 C 54.523438 -88.664062 55.003906 -87.664062 55.640625 -86.46875 C 56.285156 -85.269531 57.164062 -84.671875 58.28125 -84.671875 C 59.882812 -84.671875 60.6875 -85.46875 60.6875 -87.0625 C 60.6875 -87.382812 60.523438 -87.90625 60.203125 -88.625 C 59.878906 -89.34375 59.476562 -90.140625 59 -91.015625 C 58.519531 -91.898438 58.039062 -92.738281 57.5625 -93.53125 C 57.082031 -94.332031 56.765625 -94.894531 56.609375 -95.21875 C 54.367188 -99.851562 52.6875 -105.085938 51.5625 -110.921875 C 50.445312 -116.765625 49.890625 -122.242188 49.890625 -127.359375 C 49.890625 -128.640625 50.046875 -129.878906 50.359375 -131.078125 C 50.679688 -132.273438 50.84375 -133.515625 50.84375 -134.796875 C 50.84375 -136.390625 50.046875 -137.1875 48.453125 -137.1875 C 47.648438 -137.1875 47.007812 -136.785156 46.53125 -135.984375 C 46.050781 -135.191406 45.691406 -134.273438 45.453125 -133.234375 C 45.210938 -132.191406 45.09375 -131.109375 45.09375 -129.984375 C 45.09375 -128.867188 45.09375 -127.992188 45.09375 -127.359375 Z M 45.09375 -127.359375 "/></g></g></g><g fill="#000000" fill-opacity="0.4"><g transform="translate(862.030772, 219.87151)"><g><path d="M 6.71875 -8.640625 C 6.71875 -28.304688 6.796875 -47.851562 6.953125 -67.28125 C 7.117188 -86.707031 7.203125 -106.332031 7.203125 -126.15625 C 7.203125 -136.707031 11.273438 -144.78125 19.421875 -150.375 C 27.578125 -155.976562 38.210938 -158.78125 51.328125 -158.78125 C 54.203125 -158.78125 57.554688 -158.617188 61.390625 -158.296875 C 65.234375 -157.972656 69.191406 -157.210938 73.265625 -156.015625 C 77.347656 -154.816406 81.382812 -153.097656 85.375 -150.859375 C 89.375 -148.617188 92.929688 -145.539062 96.046875 -141.625 C 99.171875 -137.707031 101.691406 -132.867188 103.609375 -127.109375 C 105.523438 -121.359375 106.484375 -114.40625 106.484375 -106.25 C 106.484375 -97.9375 105.644531 -90.019531 103.96875 -82.5 C 102.289062 -74.988281 99.410156 -68.429688 95.328125 -62.828125 C 91.253906 -57.234375 85.816406 -52.757812 79.015625 -49.40625 C 72.222656 -46.050781 63.789062 -44.375 53.71875 -44.375 C 52.445312 -44.375 50.648438 -44.453125 48.328125 -44.609375 C 46.003906 -44.765625 43.726562 -45.003906 41.5 -45.328125 L 41.5 -41.96875 C 41.5 -36.851562 41.617188 -31.21875 41.859375 -25.0625 C 42.097656 -18.90625 42.21875 -13.269531 42.21875 -8.15625 C 42.21875 -5.4375 41.816406 -3.273438 41.015625 -1.671875 C 40.210938 -0.078125 39.128906 1.117188 37.765625 1.921875 C 36.410156 2.722656 34.894531 3.242188 33.21875 3.484375 C 31.539062 3.722656 29.820312 3.84375 28.0625 3.84375 C 21.1875 3.84375 15.910156 2.84375 12.234375 0.84375 C 8.554688 -1.15625 6.71875 -4.316406 6.71875 -8.640625 Z M 45.8125 -64.28125 C 55.5625 -64.28125 62.554688 -67.632812 66.796875 -74.34375 C 71.035156 -81.0625 73.15625 -90.019531 73.15625 -101.21875 C 73.15625 -111.769531 71.195312 -119.722656 67.28125 -125.078125 C 63.363281 -130.429688 58.445312 -133.109375 52.53125 -133.109375 C 48.6875 -133.109375 45.164062 -131.910156 41.96875 -129.515625 C 41.96875 -125.203125 41.925781 -120.523438 41.84375 -115.484375 C 41.769531 -110.453125 41.691406 -105.492188 41.609375 -100.609375 C 41.535156 -95.734375 41.457031 -90.976562 41.375 -86.34375 C 41.289062 -81.707031 41.25 -77.550781 41.25 -73.875 L 41.25 -64.515625 C 42.050781 -64.359375 42.8125 -64.28125 43.53125 -64.28125 C 44.25 -64.28125 45.007812 -64.28125 45.8125 -64.28125 Z M 13.90625 -43.65625 C 13.90625 -43.007812 14.222656 -42.523438 14.859375 -42.203125 C 15.503906 -41.890625 16.148438 -41.734375 16.796875 -41.734375 C 17.273438 -41.734375 17.789062 -41.972656 18.34375 -42.453125 C 18.90625 -42.929688 19.1875 -43.410156 19.1875 -43.890625 C 19.1875 -50.609375 19.222656 -56.960938 19.296875 -62.953125 C 19.378906 -68.953125 19.421875 -74.867188 19.421875 -80.703125 C 19.421875 -86.546875 19.378906 -92.460938 19.296875 -98.453125 C 19.222656 -104.453125 19.109375 -110.8125 18.953125 -117.53125 C 18.953125 -119.125 18.070312 -119.921875 16.3125 -119.921875 C 15.1875 -119.921875 14.46875 -119.519531 14.15625 -118.71875 C 13.988281 -118.5625 13.863281 -117.484375 13.78125 -115.484375 C 13.707031 -113.484375 13.628906 -111.285156 13.546875 -108.890625 C 13.472656 -106.492188 13.4375 -104.210938 13.4375 -102.046875 C 13.4375 -99.890625 13.4375 -98.410156 13.4375 -97.609375 C 13.269531 -88.015625 13.304688 -78.976562 13.546875 -70.5 C 13.785156 -62.03125 13.90625 -53.082031 13.90625 -43.65625 Z M 94.015625 -78.671875 C 94.015625 -77.066406 94.816406 -76.265625 96.421875 -76.265625 C 97.535156 -76.265625 98.492188 -77.34375 99.296875 -79.5 C 100.097656 -81.664062 100.773438 -84.144531 101.328125 -86.9375 C 101.890625 -89.738281 102.289062 -92.414062 102.53125 -94.96875 C 102.769531 -97.53125 102.890625 -99.289062 102.890625 -100.25 C 102.890625 -101.050781 102.890625 -102.25 102.890625 -103.84375 C 102.890625 -105.445312 102.804688 -107.085938 102.640625 -108.765625 C 102.484375 -110.441406 102.328125 -112 102.171875 -113.4375 C 102.015625 -114.882812 101.773438 -115.847656 101.453125 -116.328125 C 100.972656 -117.128906 100.253906 -117.53125 99.296875 -117.53125 C 97.691406 -117.53125 96.890625 -116.726562 96.890625 -115.125 C 96.890625 -114.007812 96.96875 -113.007812 97.125 -112.125 C 97.289062 -111.25 97.453125 -110.25 97.609375 -109.125 C 97.929688 -107.363281 98.09375 -105.882812 98.09375 -104.6875 C 98.09375 -103.488281 98.09375 -102.007812 98.09375 -100.25 C 98.09375 -98.175781 97.851562 -95.539062 97.375 -92.34375 C 96.894531 -89.144531 96.414062 -86.503906 95.9375 -84.421875 C 95.613281 -83.617188 95.210938 -82.617188 94.734375 -81.421875 C 94.253906 -80.222656 94.015625 -79.304688 94.015625 -78.671875 Z M 13.90625 -125.921875 C 14.226562 -124.003906 15.269531 -123.046875 17.03125 -123.046875 C 17.832031 -123.046875 18.550781 -123.285156 19.1875 -123.765625 C 19.820312 -124.242188 20.0625 -124.960938 19.90625 -125.921875 C 19.90625 -127.835938 18.945312 -128.796875 17.03125 -128.796875 C 14.945312 -128.796875 13.90625 -127.835938 13.90625 -125.921875 Z M 13.90625 -125.921875 "/></g></g></g><g fill="#ffffff" fill-opacity="1"><g transform="translate(61.201517, 212.663326)"><g><path d="M 7.203125 -4.5625 C 7.203125 -28.707031 7.359375 -52.8125 7.671875 -76.875 C 7.992188 -100.9375 8.15625 -125.039062 8.15625 -149.1875 C 8.15625 -150.625 8.796875 -151.820312 10.078125 -152.78125 C 11.359375 -153.738281 12.914062 -154.5 14.75 -155.0625 C 16.59375 -155.625 18.550781 -156.023438 20.625 -156.265625 C 22.707031 -156.503906 24.546875 -156.625 26.140625 -156.625 C 27.742188 -156.625 29.503906 -156.503906 31.421875 -156.265625 C 33.335938 -156.023438 35.132812 -155.582031 36.8125 -154.9375 C 38.488281 -154.300781 39.882812 -153.378906 41 -152.171875 C 42.125 -150.972656 42.6875 -149.5 42.6875 -147.75 C 42.6875 -124.40625 42.523438 -101.140625 42.203125 -77.953125 C 41.890625 -54.765625 41.734375 -31.5 41.734375 -8.15625 C 41.734375 -5.4375 41.332031 -3.273438 40.53125 -1.671875 C 39.726562 -0.078125 38.609375 1.117188 37.171875 1.921875 C 35.734375 2.722656 33.972656 3.242188 31.890625 3.484375 C 29.816406 3.722656 27.582031 3.84375 25.1875 3.84375 C 24.0625 3.84375 22.5 3.800781 20.5 3.71875 C 18.507812 3.632812 16.515625 3.3125 14.515625 2.75 C 12.515625 2.195312 10.796875 1.359375 9.359375 0.234375 C 7.921875 -0.878906 7.203125 -2.476562 7.203125 -4.5625 Z M 14.625 -130 C 14.3125 -128.238281 14.191406 -125.957031 14.265625 -123.15625 C 14.347656 -120.363281 14.390625 -117.925781 14.390625 -115.84375 C 14.390625 -114.726562 14.347656 -112.691406 14.265625 -109.734375 C 14.191406 -106.773438 14.113281 -103.414062 14.03125 -99.65625 C 13.945312 -95.894531 13.863281 -91.894531 13.78125 -87.65625 C 13.707031 -83.425781 13.671875 -79.507812 13.671875 -75.90625 C 13.671875 -72.3125 13.671875 -69.234375 13.671875 -66.671875 C 13.671875 -64.117188 13.832031 -62.601562 14.15625 -62.125 C 14.46875 -61.320312 15.1875 -60.921875 16.3125 -60.921875 C 18.070312 -60.921875 18.953125 -61.71875 18.953125 -63.3125 C 18.953125 -65.550781 19.03125 -68.789062 19.1875 -73.03125 C 19.34375 -77.269531 19.460938 -81.707031 19.546875 -86.34375 C 19.628906 -90.976562 19.671875 -95.453125 19.671875 -99.765625 C 19.671875 -104.085938 19.585938 -107.53125 19.421875 -110.09375 L 19.421875 -129.75 C 19.421875 -130.226562 19.140625 -130.707031 18.578125 -131.1875 C 18.023438 -131.675781 17.507812 -131.921875 17.03125 -131.921875 C 15.75 -131.921875 14.945312 -131.28125 14.625 -130 Z M 13.4375 -54.921875 C 13.4375 -53.003906 14.472656 -52.046875 16.546875 -52.046875 C 18.460938 -52.046875 19.421875 -53.003906 19.421875 -54.921875 C 19.585938 -55.878906 19.347656 -56.597656 18.703125 -57.078125 C 18.066406 -57.554688 17.347656 -57.796875 16.546875 -57.796875 C 14.785156 -57.796875 13.75 -56.835938 13.4375 -54.921875 Z M 13.4375 -45.8125 C 13.4375 -43.894531 14.472656 -42.9375 16.546875 -42.9375 C 18.460938 -42.9375 19.421875 -43.894531 19.421875 -45.8125 C 19.585938 -46.769531 19.347656 -47.488281 18.703125 -47.96875 C 18.066406 -48.445312 17.347656 -48.6875 16.546875 -48.6875 C 14.785156 -48.6875 13.75 -47.726562 13.4375 -45.8125 Z M 13.4375 -45.8125 "/></g></g></g><g fill="#ffffff" fill-opacity="1"><g transform="translate(115.644767, 212.663326)"><g><path d="M 7.203125 -145.828125 C 7.203125 -147.898438 7.921875 -149.613281 9.359375 -150.96875 C 10.796875 -152.332031 12.515625 -153.414062 14.515625 -154.21875 C 16.515625 -155.019531 18.628906 -155.578125 20.859375 -155.890625 C 23.097656 -156.210938 24.941406 -156.375 26.390625 -156.375 C 29.421875 -156.375 32.453125 -155.894531 35.484375 -154.9375 C 38.523438 -153.976562 41.007812 -152.21875 42.9375 -149.65625 C 44.375 -147.90625 45.691406 -145.75 46.890625 -143.1875 C 48.085938 -140.625 49.285156 -137.984375 50.484375 -135.265625 C 51.679688 -132.546875 52.800781 -129.828125 53.84375 -127.109375 C 54.882812 -124.398438 55.882812 -122.003906 56.84375 -119.921875 C 61.476562 -109.367188 66.15625 -98.972656 70.875 -88.734375 C 75.59375 -78.503906 80.585938 -68.351562 85.859375 -58.28125 C 85.546875 -61 85.347656 -63.71875 85.265625 -66.4375 C 85.179688 -69.15625 85.140625 -71.875 85.140625 -74.59375 C 85.140625 -87.0625 84.941406 -99.488281 84.546875 -111.875 C 84.148438 -124.269531 83.953125 -136.707031 83.953125 -149.1875 C 83.953125 -150.78125 84.75 -152.097656 86.34375 -153.140625 C 87.945312 -154.179688 89.828125 -154.976562 91.984375 -155.53125 C 94.140625 -156.09375 96.253906 -156.453125 98.328125 -156.609375 C 100.410156 -156.773438 102.015625 -156.859375 103.140625 -156.859375 C 104.734375 -156.859375 106.445312 -156.738281 108.28125 -156.5 C 110.125 -156.257812 111.84375 -155.78125 113.4375 -155.0625 C 115.039062 -154.34375 116.363281 -153.34375 117.40625 -152.0625 C 118.445312 -150.78125 118.96875 -149.101562 118.96875 -147.03125 C 118.96875 -123.519531 118.484375 -100.09375 117.515625 -76.75 C 116.554688 -53.40625 116.078125 -29.976562 116.078125 -6.46875 C 116.078125 -3.914062 115.597656 -1.921875 114.640625 -0.484375 C 113.679688 0.953125 112.441406 1.988281 110.921875 2.625 C 109.410156 3.269531 107.65625 3.632812 105.65625 3.71875 C 103.65625 3.800781 101.695312 3.84375 99.78125 3.84375 C 96.582031 3.84375 93.625 3 90.90625 1.3125 C 88.1875 -0.363281 85.867188 -2.476562 83.953125 -5.03125 C 80.585938 -9.351562 77.585938 -14.3125 74.953125 -19.90625 C 72.316406 -25.5 69.796875 -30.773438 67.390625 -35.734375 C 62.753906 -45.003906 58.15625 -54.273438 53.59375 -63.546875 C 49.039062 -72.828125 44.367188 -82.023438 39.578125 -91.140625 C 40.378906 -77.234375 40.898438 -63.320312 41.140625 -49.40625 C 41.378906 -35.5 41.5 -21.585938 41.5 -7.671875 C 41.5 -3.035156 39.859375 0.078125 36.578125 1.671875 C 33.296875 3.273438 29.738281 4.078125 25.90625 4.078125 C 24.46875 4.078125 22.707031 3.957031 20.625 3.71875 C 18.550781 3.476562 16.515625 3.035156 14.515625 2.390625 C 12.515625 1.753906 10.796875 0.835938 9.359375 -0.359375 C 7.921875 -1.554688 7.203125 -3.113281 7.203125 -5.03125 Z M 13.90625 -124.234375 C 13.59375 -122.472656 13.472656 -120.191406 13.546875 -117.390625 C 13.628906 -114.597656 13.671875 -112.164062 13.671875 -110.09375 C 13.671875 -108.96875 13.671875 -106.566406 13.671875 -102.890625 C 13.671875 -99.210938 13.628906 -94.9375 13.546875 -90.0625 C 13.472656 -85.1875 13.4375 -80.03125 13.4375 -74.59375 C 13.4375 -69.15625 13.4375 -64.117188 13.4375 -59.484375 C 13.4375 -54.847656 13.515625 -50.890625 13.671875 -47.609375 C 13.828125 -44.328125 13.988281 -42.445312 14.15625 -41.96875 C 14.46875 -41.175781 15.1875 -40.78125 16.3125 -40.78125 C 18.070312 -40.78125 18.953125 -41.578125 18.953125 -43.171875 C 18.953125 -45.410156 18.988281 -49.367188 19.0625 -55.046875 C 19.144531 -60.722656 19.1875 -66.796875 19.1875 -73.265625 C 19.1875 -79.742188 19.144531 -85.898438 19.0625 -91.734375 C 18.988281 -97.578125 18.867188 -101.773438 18.703125 -104.328125 L 18.703125 -124 C 18.703125 -124.476562 18.421875 -124.957031 17.859375 -125.4375 C 17.304688 -125.914062 16.789062 -126.15625 16.3125 -126.15625 C 15.03125 -126.15625 14.226562 -125.515625 13.90625 -124.234375 Z M 13.90625 -34.78125 C 13.90625 -32.863281 14.945312 -31.90625 17.03125 -31.90625 C 18.945312 -31.90625 19.90625 -32.863281 19.90625 -34.78125 C 20.0625 -35.738281 19.820312 -36.457031 19.1875 -36.9375 C 18.550781 -37.414062 17.832031 -37.65625 17.03125 -37.65625 C 15.269531 -37.65625 14.226562 -36.695312 13.90625 -34.78125 Z M 91.140625 -79.625 C 91.140625 -78.988281 91.457031 -78.507812 92.09375 -78.1875 C 92.738281 -77.863281 93.378906 -77.703125 94.015625 -77.703125 C 94.492188 -77.703125 95.015625 -77.941406 95.578125 -78.421875 C 96.140625 -78.910156 96.421875 -79.394531 96.421875 -79.875 C 96.421875 -86.582031 96.421875 -92.210938 96.421875 -96.765625 C 96.421875 -101.328125 96.421875 -105.328125 96.421875 -108.765625 C 96.421875 -112.203125 96.378906 -115.320312 96.296875 -118.125 C 96.210938 -120.925781 96.171875 -123.925781 96.171875 -127.125 C 96.171875 -128.71875 95.296875 -129.515625 93.546875 -129.515625 C 92.421875 -129.515625 91.695312 -129.113281 91.375 -128.3125 C 91.21875 -127.832031 91.054688 -126.429688 90.890625 -124.109375 C 90.734375 -121.796875 90.65625 -119.039062 90.65625 -115.84375 C 90.65625 -112.644531 90.695312 -109.164062 90.78125 -105.40625 C 90.863281 -101.65625 90.90625 -98.0625 90.90625 -94.625 C 90.90625 -91.1875 90.941406 -88.109375 91.015625 -85.390625 C 91.097656 -82.671875 91.140625 -80.75 91.140625 -79.625 Z M 91.140625 -135.515625 C 91.460938 -133.597656 92.503906 -132.640625 94.265625 -132.640625 C 95.054688 -132.640625 95.769531 -132.878906 96.40625 -133.359375 C 97.050781 -133.835938 97.296875 -134.554688 97.140625 -135.515625 C 97.140625 -137.429688 96.179688 -138.390625 94.265625 -138.390625 C 92.179688 -138.390625 91.140625 -137.429688 91.140625 -135.515625 Z M 91.140625 -135.515625 "/></g></g></g><g fill="#ffffff" fill-opacity="1"><g transform="translate(245.636444, 212.663326)"><g><path d="M 61.40625 7.4375 C 53.5625 7.4375 46.203125 5.914062 39.328125 2.875 C 32.453125 -0.15625 26.457031 -4.75 21.34375 -10.90625 C 16.226562 -17.0625 12.191406 -24.816406 9.234375 -34.171875 C 6.273438 -43.523438 4.796875 -54.519531 4.796875 -67.15625 C 4.796875 -79.625 5.632812 -91.414062 7.3125 -102.53125 C 8.988281 -113.644531 11.863281 -123.359375 15.9375 -131.671875 C 20.019531 -139.984375 25.539062 -146.578125 32.5 -151.453125 C 39.457031 -156.335938 48.289062 -158.78125 59 -158.78125 C 66.351562 -158.78125 72.664062 -157.457031 77.9375 -154.8125 C 83.21875 -152.175781 87.578125 -148.738281 91.015625 -144.5 C 94.453125 -140.269531 97.128906 -135.515625 99.046875 -130.234375 C 100.972656 -124.960938 102.253906 -119.726562 102.890625 -114.53125 C 103.535156 -109.332031 103.65625 -104.332031 103.25 -99.53125 C 102.851562 -94.738281 102.09375 -90.820312 100.96875 -87.78125 C 100.007812 -85.0625 97.734375 -82.941406 94.140625 -81.421875 C 90.546875 -79.910156 86.90625 -79.15625 83.21875 -79.15625 C 80.34375 -79.15625 77.863281 -79.710938 75.78125 -80.828125 C 73.707031 -81.941406 72.671875 -83.703125 72.671875 -86.109375 C 72.671875 -88.828125 72.789062 -92.625 73.03125 -97.5 C 73.269531 -102.375 73.066406 -107.171875 72.421875 -111.890625 C 71.785156 -116.609375 70.46875 -120.722656 68.46875 -124.234375 C 66.476562 -127.753906 63.242188 -129.515625 58.765625 -129.515625 C 55.722656 -129.515625 53.003906 -127.875 50.609375 -124.59375 C 48.210938 -121.320312 46.171875 -116.847656 44.484375 -111.171875 C 42.804688 -105.492188 41.566406 -98.9375 40.765625 -91.5 C 39.972656 -84.0625 39.578125 -76.1875 39.578125 -67.875 C 39.578125 -62.113281 40.015625 -56.351562 40.890625 -50.59375 C 41.773438 -44.84375 43.132812 -39.648438 44.96875 -35.015625 C 46.8125 -30.378906 49.171875 -26.617188 52.046875 -23.734375 C 54.921875 -20.859375 58.4375 -19.421875 62.59375 -19.421875 C 65.632812 -19.421875 68.3125 -20.179688 70.625 -21.703125 C 72.945312 -23.222656 75.023438 -25.140625 76.859375 -27.453125 C 78.703125 -29.773438 80.265625 -32.375 81.546875 -35.25 C 82.828125 -38.132812 83.867188 -41.015625 84.671875 -43.890625 C 85.148438 -45.492188 86.265625 -46.65625 88.015625 -47.375 C 89.773438 -48.09375 91.773438 -48.453125 94.015625 -48.453125 C 97.210938 -48.453125 100.332031 -47.648438 103.375 -46.046875 C 106.414062 -44.453125 107.9375 -42.054688 107.9375 -38.859375 C 107.9375 -32.941406 106.9375 -27.179688 104.9375 -21.578125 C 102.9375 -15.984375 99.976562 -11.023438 96.0625 -6.703125 C 92.144531 -2.390625 87.304688 1.039062 81.546875 3.59375 C 75.785156 6.15625 69.070312 7.4375 61.40625 7.4375 Z M 9.109375 -67.640625 C 9.109375 -66.035156 9.910156 -65.234375 11.515625 -65.234375 C 12.796875 -65.234375 13.59375 -66.035156 13.90625 -67.640625 C 14.226562 -69.398438 14.347656 -71.316406 14.265625 -73.390625 C 14.191406 -75.472656 14.234375 -77.394531 14.390625 -79.15625 C 14.710938 -83.46875 15.148438 -88.140625 15.703125 -93.171875 C 16.265625 -98.210938 17.101562 -103.210938 18.21875 -108.171875 C 19.34375 -113.128906 20.820312 -117.882812 22.65625 -122.4375 C 24.5 -127 26.703125 -131.035156 29.265625 -134.546875 C 29.898438 -135.347656 31.097656 -136.664062 32.859375 -138.5 C 34.617188 -140.34375 35.5 -141.664062 35.5 -142.46875 C 35.5 -144.0625 34.695312 -144.859375 33.09375 -144.859375 C 32.300781 -144.859375 31.222656 -144.175781 29.859375 -142.8125 C 28.503906 -141.457031 27.585938 -140.382812 27.109375 -139.59375 C 23.429688 -134.789062 20.429688 -129.429688 18.109375 -123.515625 C 15.785156 -117.597656 13.941406 -111.484375 12.578125 -105.171875 C 11.222656 -98.859375 10.304688 -92.503906 9.828125 -86.109375 C 9.347656 -79.710938 9.109375 -73.554688 9.109375 -67.640625 Z M 8.640625 -59.484375 C 8.640625 -57.566406 9.675781 -56.609375 11.75 -56.609375 C 13.664062 -56.609375 14.625 -57.566406 14.625 -59.484375 C 14.625 -61.554688 13.664062 -62.59375 11.75 -62.59375 C 9.675781 -62.59375 8.640625 -61.554688 8.640625 -59.484375 Z M 9.359375 -50.609375 C 9.359375 -48.691406 10.394531 -47.734375 12.46875 -47.734375 C 14.382812 -47.734375 15.34375 -48.691406 15.34375 -50.609375 C 15.34375 -52.679688 14.382812 -53.71875 12.46875 -53.71875 C 10.394531 -53.71875 9.359375 -52.679688 9.359375 -50.609375 Z M 9.359375 -50.609375 "/></g></g></g><g fill="#ffffff" fill-opacity="1"><g transform="translate(362.676939, 212.663326)"><g><path d="M 62.359375 7.4375 C 43.972656 7.4375 29.78125 0.84375 19.78125 -12.34375 C 9.789062 -25.539062 4.796875 -43.8125 4.796875 -67.15625 C 4.796875 -79.625 5.710938 -91.414062 7.546875 -102.53125 C 9.390625 -113.644531 12.46875 -123.359375 16.78125 -131.671875 C 21.101562 -139.984375 26.859375 -146.578125 34.046875 -151.453125 C 41.242188 -156.335938 50.28125 -158.78125 61.15625 -158.78125 C 72.03125 -158.78125 81.101562 -156.820312 88.375 -152.90625 C 95.65625 -148.988281 101.535156 -143.507812 106.015625 -136.46875 C 110.492188 -129.4375 113.691406 -121.082031 115.609375 -111.40625 C 117.523438 -101.726562 118.484375 -91.132812 118.484375 -79.625 C 118.484375 -65.394531 117.601562 -52.84375 115.84375 -41.96875 C 114.082031 -31.09375 111.082031 -22.019531 106.84375 -14.75 C 102.613281 -7.476562 96.898438 -1.960938 89.703125 1.796875 C 82.503906 5.554688 73.390625 7.4375 62.359375 7.4375 Z M 40.78125 -67.875 C 40.78125 -54.125 42.535156 -43.09375 46.046875 -34.78125 C 49.566406 -26.46875 55.082031 -22.3125 62.59375 -22.3125 C 66.4375 -22.3125 69.675781 -23.585938 72.3125 -26.140625 C 74.945312 -28.703125 77.0625 -32.300781 78.65625 -36.9375 C 80.257812 -41.570312 81.378906 -47.164062 82.015625 -53.71875 C 82.660156 -60.28125 82.984375 -67.640625 82.984375 -75.796875 C 82.984375 -82.023438 82.660156 -88.21875 82.015625 -94.375 C 81.378906 -100.53125 80.222656 -106.003906 78.546875 -110.796875 C 76.867188 -115.597656 74.628906 -119.476562 71.828125 -122.4375 C 69.035156 -125.394531 65.5625 -126.875 61.40625 -126.875 C 57.726562 -126.875 54.566406 -125.15625 51.921875 -121.71875 C 49.285156 -118.28125 47.128906 -113.765625 45.453125 -108.171875 C 43.773438 -102.578125 42.578125 -96.257812 41.859375 -89.21875 C 41.140625 -82.1875 40.78125 -75.070312 40.78125 -67.875 Z M 9.359375 -66.203125 C 9.359375 -64.597656 10.15625 -63.796875 11.75 -63.796875 C 13.03125 -63.796875 13.832031 -64.597656 14.15625 -66.203125 C 14.46875 -67.953125 14.582031 -69.867188 14.5 -71.953125 C 14.425781 -74.035156 14.46875 -75.953125 14.625 -77.703125 C 14.945312 -82.023438 15.390625 -86.703125 15.953125 -91.734375 C 16.515625 -96.773438 17.351562 -101.773438 18.46875 -106.734375 C 19.582031 -111.691406 21.054688 -116.445312 22.890625 -121 C 24.734375 -125.5625 26.9375 -129.597656 29.5 -133.109375 C 30.132812 -133.910156 31.332031 -135.226562 33.09375 -137.0625 C 34.851562 -138.90625 35.734375 -140.226562 35.734375 -141.03125 C 35.734375 -142.625 34.9375 -143.421875 33.34375 -143.421875 C 32.539062 -143.421875 31.457031 -142.738281 30.09375 -141.375 C 28.738281 -140.019531 27.820312 -138.945312 27.34375 -138.15625 C 23.664062 -133.351562 20.664062 -127.992188 18.34375 -122.078125 C 16.03125 -116.160156 14.191406 -110.046875 12.828125 -103.734375 C 11.472656 -97.421875 10.554688 -91.066406 10.078125 -84.671875 C 9.597656 -78.273438 9.359375 -72.117188 9.359375 -66.203125 Z M 8.875 -58.046875 C 8.875 -56.128906 9.914062 -55.171875 12 -55.171875 C 13.914062 -55.171875 14.875 -56.128906 14.875 -58.046875 C 14.875 -60.117188 13.914062 -61.15625 12 -61.15625 C 9.914062 -61.15625 8.875 -60.117188 8.875 -58.046875 Z M 9.59375 -49.171875 C 9.59375 -47.253906 10.632812 -46.296875 12.71875 -46.296875 C 14.632812 -46.296875 15.59375 -47.253906 15.59375 -49.171875 C 15.59375 -51.242188 14.632812 -52.28125 12.71875 -52.28125 C 10.632812 -52.28125 9.59375 -51.242188 9.59375 -49.171875 Z M 9.59375 -49.171875 "/></g></g></g><g fill="#ffffff" fill-opacity="1"><g transform="translate(490.510067, 212.663326)"><g/></g></g><g fill="#ffffff" fill-opacity="1"><g transform="translate(555.026437, 212.663326)"><g><path d="M 1.4375 -5.75 C 1.4375 -6.875 1.835938 -9.59375 2.640625 -13.90625 C 3.441406 -18.226562 4.5625 -23.546875 6 -29.859375 C 7.4375 -36.171875 9.070312 -43.242188 10.90625 -51.078125 C 12.75 -58.921875 14.628906 -66.914062 16.546875 -75.0625 C 18.460938 -83.21875 20.421875 -91.289062 22.421875 -99.28125 C 24.421875 -107.28125 26.257812 -114.597656 27.9375 -121.234375 C 29.613281 -127.867188 31.050781 -133.546875 32.25 -138.265625 C 33.457031 -142.984375 34.378906 -146.222656 35.015625 -147.984375 C 35.660156 -149.898438 36.941406 -151.5 38.859375 -152.78125 C 40.773438 -154.0625 42.929688 -155.019531 45.328125 -155.65625 C 47.722656 -156.300781 50.160156 -156.742188 52.640625 -156.984375 C 55.117188 -157.222656 57.238281 -157.34375 59 -157.34375 C 60.757812 -157.34375 62.796875 -157.222656 65.109375 -156.984375 C 67.429688 -156.742188 69.710938 -156.34375 71.953125 -155.78125 C 74.191406 -155.21875 76.226562 -154.375 78.0625 -153.25 C 79.90625 -152.132812 81.226562 -150.617188 82.03125 -148.703125 C 82.1875 -148.546875 82.742188 -146.382812 83.703125 -142.21875 C 84.660156 -138.0625 85.898438 -132.625 87.421875 -125.90625 C 88.941406 -119.195312 90.617188 -111.644531 92.453125 -103.25 C 94.296875 -94.851562 96.175781 -86.257812 98.09375 -77.46875 C 100.007812 -68.675781 101.882812 -60.039062 103.71875 -51.5625 C 105.5625 -43.09375 107.203125 -35.5 108.640625 -28.78125 C 110.085938 -22.0625 111.25 -16.582031 112.125 -12.34375 C 113.007812 -8.113281 113.453125 -5.835938 113.453125 -5.515625 C 113.453125 -3.117188 112.726562 -1.320312 111.28125 -0.125 C 109.84375 1.070312 108.125 1.988281 106.125 2.625 C 104.132812 3.269531 102.019531 3.632812 99.78125 3.71875 C 97.539062 3.800781 95.617188 3.84375 94.015625 3.84375 C 89.054688 3.84375 85.335938 3.203125 82.859375 1.921875 C 80.390625 0.640625 78.550781 -1.273438 77.34375 -3.828125 C 76.144531 -6.390625 75.265625 -9.46875 74.703125 -13.0625 C 74.148438 -16.664062 73.3125 -20.785156 72.1875 -25.421875 C 68.507812 -25.421875 64.953125 -25.457031 61.515625 -25.53125 C 58.078125 -25.613281 54.519531 -25.65625 50.84375 -25.65625 C 48.769531 -25.65625 46.734375 -25.65625 44.734375 -25.65625 C 42.734375 -25.65625 40.691406 -25.578125 38.609375 -25.421875 C 37.972656 -21.742188 37.375 -18.144531 36.8125 -14.625 C 36.257812 -11.113281 35.582031 -7.519531 34.78125 -3.84375 C 33.976562 -0.320312 32.535156 1.835938 30.453125 2.640625 C 28.378906 3.441406 25.984375 3.84375 23.265625 3.84375 C 21.828125 3.84375 19.867188 3.722656 17.390625 3.484375 C 14.910156 3.242188 12.46875 2.800781 10.0625 2.15625 C 7.664062 1.519531 5.628906 0.5625 3.953125 -0.71875 C 2.273438 -2 1.4375 -3.675781 1.4375 -5.75 Z M 68.59375 -50.609375 C 66.832031 -61.316406 64.753906 -72.304688 62.359375 -83.578125 C 59.960938 -94.859375 58.046875 -106.253906 56.609375 -117.765625 C 54.203125 -107.210938 51.957031 -96.019531 49.875 -84.1875 C 47.800781 -72.351562 45.644531 -61.160156 43.40625 -50.609375 Z M 14.625 -32.859375 C 14.625 -31.253906 15.425781 -30.453125 17.03125 -30.453125 C 17.988281 -30.453125 18.707031 -30.851562 19.1875 -31.65625 C 19.1875 -31.820312 19.425781 -32.898438 19.90625 -34.890625 C 20.382812 -36.890625 20.90625 -39.128906 21.46875 -41.609375 C 22.03125 -44.085938 22.585938 -46.484375 23.140625 -48.796875 C 23.703125 -51.117188 24.0625 -52.601562 24.21875 -53.25 C 25.5 -58.207031 26.617188 -62.882812 27.578125 -67.28125 C 28.535156 -71.675781 29.492188 -75.988281 30.453125 -80.21875 C 31.421875 -84.457031 32.421875 -88.773438 33.453125 -93.171875 C 34.492188 -97.578125 35.65625 -102.175781 36.9375 -106.96875 C 37.09375 -107.769531 37.410156 -109.050781 37.890625 -110.8125 C 38.367188 -112.570312 38.847656 -114.410156 39.328125 -116.328125 C 39.804688 -118.242188 40.242188 -120.039062 40.640625 -121.71875 C 41.046875 -123.394531 41.25 -124.472656 41.25 -124.953125 C 41.25 -126.554688 40.453125 -127.359375 38.859375 -127.359375 C 37.898438 -127.359375 37.179688 -126.957031 36.703125 -126.15625 C 36.535156 -126 36.171875 -124.921875 35.609375 -122.921875 C 35.054688 -120.921875 34.5 -118.679688 33.9375 -116.203125 C 33.375 -113.722656 32.8125 -111.40625 32.25 -109.25 C 31.695312 -107.09375 31.34375 -105.613281 31.1875 -104.8125 C 29.90625 -99.53125 28.703125 -94.570312 27.578125 -89.9375 C 26.460938 -85.300781 25.382812 -80.664062 24.34375 -76.03125 C 23.300781 -71.394531 22.257812 -66.757812 21.21875 -62.125 C 20.1875 -57.488281 19.03125 -52.53125 17.75 -47.25 C 17.269531 -45.164062 16.628906 -42.722656 15.828125 -39.921875 C 15.023438 -37.128906 14.625 -34.773438 14.625 -32.859375 Z M 37.890625 -133.59375 C 37.890625 -131.507812 38.929688 -130.46875 41.015625 -130.46875 C 42.929688 -130.46875 43.890625 -131.507812 43.890625 -133.59375 C 43.890625 -135.507812 42.929688 -136.46875 41.015625 -136.46875 C 38.929688 -136.46875 37.890625 -135.507812 37.890625 -133.59375 Z M 37.890625 -133.59375 "/></g></g></g><g fill="#ffffff" fill-opacity="1"><g transform="translate(674.705161, 212.663326)"><g><path d="M 26.859375 -36.9375 C 26.859375 -41.570312 27.617188 -45.890625 29.140625 -49.890625 C 30.660156 -53.890625 32.660156 -57.6875 35.140625 -61.28125 C 37.617188 -64.875 40.535156 -68.269531 43.890625 -71.46875 C 47.242188 -74.664062 50.757812 -77.707031 54.4375 -80.59375 C 50.28125 -88.582031 46.960938 -96.253906 44.484375 -103.609375 C 42.015625 -110.960938 40.78125 -117.679688 40.78125 -123.765625 C 40.78125 -129.359375 41.859375 -134.632812 44.015625 -139.59375 C 46.171875 -144.550781 49.164062 -148.90625 53 -152.65625 C 56.84375 -156.414062 61.398438 -159.414062 66.671875 -161.65625 C 71.953125 -163.894531 77.710938 -165.015625 83.953125 -165.015625 C 89.703125 -165.015625 95.015625 -164.050781 99.890625 -162.125 C 104.765625 -160.207031 108.960938 -157.53125 112.484375 -154.09375 C 116.003906 -150.65625 118.765625 -146.65625 120.765625 -142.09375 C 122.765625 -137.539062 123.765625 -132.628906 123.765625 -127.359375 C 123.765625 -121.441406 122.5625 -116.082031 120.15625 -111.28125 C 117.757812 -106.488281 114.679688 -102.09375 110.921875 -98.09375 C 107.171875 -94.09375 102.972656 -90.332031 98.328125 -86.8125 C 93.691406 -83.300781 89.054688 -79.867188 84.421875 -76.515625 C 88.421875 -70.117188 92.738281 -63.800781 97.375 -57.5625 C 102.007812 -51.320312 106.726562 -45.484375 111.53125 -40.046875 C 114.25 -43.890625 116.566406 -47.847656 118.484375 -51.921875 C 120.398438 -56.003906 121.835938 -59.960938 122.796875 -63.796875 C 118.316406 -63.796875 114.359375 -64.195312 110.921875 -65 C 107.484375 -65.800781 105.765625 -68.195312 105.765625 -72.1875 C 105.765625 -74.113281 106.441406 -76.113281 107.796875 -78.1875 C 109.160156 -80.269531 111.921875 -81.3125 116.078125 -81.3125 C 116.878906 -81.3125 119.28125 -81.269531 123.28125 -81.1875 C 127.28125 -81.101562 132.796875 -81.0625 139.828125 -81.0625 L 151.828125 -81.0625 C 154.054688 -81.0625 155.53125 -80.378906 156.25 -79.015625 C 156.976562 -77.660156 157.34375 -75.863281 157.34375 -73.625 C 157.34375 -72.03125 157.179688 -70.632812 156.859375 -69.4375 C 156.535156 -68.238281 155.851562 -67.238281 154.8125 -66.4375 C 153.78125 -65.632812 152.265625 -65.03125 150.265625 -64.625 C 148.265625 -64.226562 145.664062 -64.03125 142.46875 -64.03125 C 140.226562 -57.957031 137.585938 -51.722656 134.546875 -45.328125 C 131.515625 -38.929688 128 -32.859375 124 -27.109375 C 128.632812 -22.941406 132.953125 -19.578125 136.953125 -17.015625 C 140.953125 -14.460938 144.390625 -13.1875 147.265625 -13.1875 C 149.335938 -13.1875 151.132812 -12.503906 152.65625 -11.140625 C 154.175781 -9.785156 154.9375 -7.832031 154.9375 -5.28125 C 154.9375 -2.082031 153.695312 0.191406 151.21875 1.546875 C 148.738281 2.910156 145.984375 3.59375 142.953125 3.59375 C 138.304688 3.59375 133.222656 2.234375 127.703125 -0.484375 C 122.191406 -3.203125 116.476562 -6.878906 110.5625 -11.515625 C 105.613281 -7.191406 100.179688 -3.75 94.265625 -1.1875 C 88.347656 1.363281 81.789062 2.640625 74.59375 2.640625 C 68.832031 2.640625 63.113281 1.796875 57.4375 0.109375 C 51.757812 -1.566406 46.640625 -4.082031 42.078125 -7.4375 C 37.523438 -10.789062 33.847656 -14.945312 31.046875 -19.90625 C 28.253906 -24.863281 26.859375 -30.539062 26.859375 -36.9375 Z M 74.359375 -94.5 C 78.191406 -97.21875 81.863281 -99.816406 85.375 -102.296875 C 88.894531 -104.773438 91.972656 -107.289062 94.609375 -109.84375 C 97.253906 -112.40625 99.335938 -115.003906 100.859375 -117.640625 C 102.378906 -120.273438 103.140625 -123.035156 103.140625 -125.921875 C 103.140625 -127.835938 102.738281 -129.832031 101.9375 -131.90625 C 101.132812 -133.988281 99.929688 -135.867188 98.328125 -137.546875 C 96.734375 -139.222656 94.773438 -140.582031 92.453125 -141.625 C 90.140625 -142.664062 87.382812 -143.1875 84.1875 -143.1875 C 80.664062 -143.1875 77.707031 -142.503906 75.3125 -141.140625 C 72.914062 -139.785156 71.035156 -138.109375 69.671875 -136.109375 C 68.316406 -134.109375 67.359375 -131.910156 66.796875 -129.515625 C 66.234375 -127.117188 65.953125 -124.878906 65.953125 -122.796875 C 65.953125 -119.117188 66.671875 -114.84375 68.109375 -109.96875 C 69.554688 -105.09375 71.640625 -99.9375 74.359375 -94.5 Z M 95.703125 -24.9375 C 90.421875 -30.21875 85.257812 -35.894531 80.21875 -41.96875 C 75.1875 -48.050781 70.515625 -54.367188 66.203125 -60.921875 C 63.316406 -57.722656 60.992188 -54.285156 59.234375 -50.609375 C 57.484375 -46.929688 56.609375 -42.929688 56.609375 -38.609375 C 56.609375 -32.210938 58.445312 -27.375 62.125 -24.09375 C 65.800781 -20.820312 70.675781 -19.1875 76.75 -19.1875 C 83.300781 -19.1875 89.617188 -21.101562 95.703125 -24.9375 Z M 48.203125 -141.984375 C 48.523438 -140.066406 49.566406 -139.109375 51.328125 -139.109375 C 52.128906 -139.109375 52.847656 -139.347656 53.484375 -139.828125 C 54.117188 -140.304688 54.359375 -141.023438 54.203125 -141.984375 C 54.203125 -143.898438 53.242188 -144.859375 51.328125 -144.859375 C 49.242188 -144.859375 48.203125 -143.898438 48.203125 -141.984375 Z M 45.09375 -127.359375 C 45.09375 -121.117188 45.890625 -114.640625 47.484375 -107.921875 C 49.085938 -101.210938 51.328125 -95.0625 54.203125 -89.46875 C 54.523438 -88.664062 55.003906 -87.664062 55.640625 -86.46875 C 56.285156 -85.269531 57.164062 -84.671875 58.28125 -84.671875 C 59.882812 -84.671875 60.6875 -85.46875 60.6875 -87.0625 C 60.6875 -87.382812 60.523438 -87.90625 60.203125 -88.625 C 59.878906 -89.34375 59.476562 -90.140625 59 -91.015625 C 58.519531 -91.898438 58.039062 -92.738281 57.5625 -93.53125 C 57.082031 -94.332031 56.765625 -94.894531 56.609375 -95.21875 C 54.367188 -99.851562 52.6875 -105.085938 51.5625 -110.921875 C 50.445312 -116.765625 49.890625 -122.242188 49.890625 -127.359375 C 49.890625 -128.640625 50.046875 -129.878906 50.359375 -131.078125 C 50.679688 -132.273438 50.84375 -133.515625 50.84375 -134.796875 C 50.84375 -136.390625 50.046875 -137.1875 48.453125 -137.1875 C 47.648438 -137.1875 47.007812 -136.785156 46.53125 -135.984375 C 46.050781 -135.191406 45.691406 -134.273438 45.453125 -133.234375 C 45.210938 -132.191406 45.09375 -131.109375 45.09375 -129.984375 C 45.09375 -128.867188 45.09375 -127.992188 45.09375 -127.359375 Z M 45.09375 -127.359375 "/></g></g></g><g fill="#ffffff" fill-opacity="1"><g transform="translate(854.822587, 212.663326)"><g><path d="M 6.71875 -8.640625 C 6.71875 -28.304688 6.796875 -47.851562 6.953125 -67.28125 C 7.117188 -86.707031 7.203125 -106.332031 7.203125 -126.15625 C 7.203125 -136.707031 11.273438 -144.78125 19.421875 -150.375 C 27.578125 -155.976562 38.210938 -158.78125 51.328125 -158.78125 C 54.203125 -158.78125 57.554688 -158.617188 61.390625 -158.296875 C 65.234375 -157.972656 69.191406 -157.210938 73.265625 -156.015625 C 77.347656 -154.816406 81.382812 -153.097656 85.375 -150.859375 C 89.375 -148.617188 92.929688 -145.539062 96.046875 -141.625 C 99.171875 -137.707031 101.691406 -132.867188 103.609375 -127.109375 C 105.523438 -121.359375 106.484375 -114.40625 106.484375 -106.25 C 106.484375 -97.9375 105.644531 -90.019531 103.96875 -82.5 C 102.289062 -74.988281 99.410156 -68.429688 95.328125 -62.828125 C 91.253906 -57.234375 85.816406 -52.757812 79.015625 -49.40625 C 72.222656 -46.050781 63.789062 -44.375 53.71875 -44.375 C 52.445312 -44.375 50.648438 -44.453125 48.328125 -44.609375 C 46.003906 -44.765625 43.726562 -45.003906 41.5 -45.328125 L 41.5 -41.96875 C 41.5 -36.851562 41.617188 -31.21875 41.859375 -25.0625 C 42.097656 -18.90625 42.21875 -13.269531 42.21875 -8.15625 C 42.21875 -5.4375 41.816406 -3.273438 41.015625 -1.671875 C 40.210938 -0.078125 39.128906 1.117188 37.765625 1.921875 C 36.410156 2.722656 34.894531 3.242188 33.21875 3.484375 C 31.539062 3.722656 29.820312 3.84375 28.0625 3.84375 C 21.1875 3.84375 15.910156 2.84375 12.234375 0.84375 C 8.554688 -1.15625 6.71875 -4.316406 6.71875 -8.640625 Z M 45.8125 -64.28125 C 55.5625 -64.28125 62.554688 -67.632812 66.796875 -74.34375 C 71.035156 -81.0625 73.15625 -90.019531 73.15625 -101.21875 C 73.15625 -111.769531 71.195312 -119.722656 67.28125 -125.078125 C 63.363281 -130.429688 58.445312 -133.109375 52.53125 -133.109375 C 48.6875 -133.109375 45.164062 -131.910156 41.96875 -129.515625 C 41.96875 -125.203125 41.925781 -120.523438 41.84375 -115.484375 C 41.769531 -110.453125 41.691406 -105.492188 41.609375 -100.609375 C 41.535156 -95.734375 41.457031 -90.976562 41.375 -86.34375 C 41.289062 -81.707031 41.25 -77.550781 41.25 -73.875 L 41.25 -64.515625 C 42.050781 -64.359375 42.8125 -64.28125 43.53125 -64.28125 C 44.25 -64.28125 45.007812 -64.28125 45.8125 -64.28125 Z M 13.90625 -43.65625 C 13.90625 -43.007812 14.222656 -42.523438 14.859375 -42.203125 C 15.503906 -41.890625 16.148438 -41.734375 16.796875 -41.734375 C 17.273438 -41.734375 17.789062 -41.972656 18.34375 -42.453125 C 18.90625 -42.929688 19.1875 -43.410156 19.1875 -43.890625 C 19.1875 -50.609375 19.222656 -56.960938 19.296875 -62.953125 C 19.378906 -68.953125 19.421875 -74.867188 19.421875 -80.703125 C 19.421875 -86.546875 19.378906 -92.460938 19.296875 -98.453125 C 19.222656 -104.453125 19.109375 -110.8125 18.953125 -117.53125 C 18.953125 -119.125 18.070312 -119.921875 16.3125 -119.921875 C 15.1875 -119.921875 14.46875 -119.519531 14.15625 -118.71875 C 13.988281 -118.5625 13.863281 -117.484375 13.78125 -115.484375 C 13.707031 -113.484375 13.628906 -111.285156 13.546875 -108.890625 C 13.472656 -106.492188 13.4375 -104.210938 13.4375 -102.046875 C 13.4375 -99.890625 13.4375 -98.410156 13.4375 -97.609375 C 13.269531 -88.015625 13.304688 -78.976562 13.546875 -70.5 C 13.785156 -62.03125 13.90625 -53.082031 13.90625 -43.65625 Z M 94.015625 -78.671875 C 94.015625 -77.066406 94.816406 -76.265625 96.421875 -76.265625 C 97.535156 -76.265625 98.492188 -77.34375 99.296875 -79.5 C 100.097656 -81.664062 100.773438 -84.144531 101.328125 -86.9375 C 101.890625 -89.738281 102.289062 -92.414062 102.53125 -94.96875 C 102.769531 -97.53125 102.890625 -99.289062 102.890625 -100.25 C 102.890625 -101.050781 102.890625 -102.25 102.890625 -103.84375 C 102.890625 -105.445312 102.804688 -107.085938 102.640625 -108.765625 C 102.484375 -110.441406 102.328125 -112 102.171875 -113.4375 C 102.015625 -114.882812 101.773438 -115.847656 101.453125 -116.328125 C 100.972656 -117.128906 100.253906 -117.53125 99.296875 -117.53125 C 97.691406 -117.53125 96.890625 -116.726562 96.890625 -115.125 C 96.890625 -114.007812 96.96875 -113.007812 97.125 -112.125 C 97.289062 -111.25 97.453125 -110.25 97.609375 -109.125 C 97.929688 -107.363281 98.09375 -105.882812 98.09375 -104.6875 C 98.09375 -103.488281 98.09375 -102.007812 98.09375 -100.25 C 98.09375 -98.175781 97.851562 -95.539062 97.375 -92.34375 C 96.894531 -89.144531 96.414062 -86.503906 95.9375 -84.421875 C 95.613281 -83.617188 95.210938 -82.617188 94.734375 -81.421875 C 94.253906 -80.222656 94.015625 -79.304688 94.015625 -78.671875 Z M 13.90625 -125.921875 C 14.226562 -124.003906 15.269531 -123.046875 17.03125 -123.046875 C 17.832031 -123.046875 18.550781 -123.285156 19.1875 -123.765625 C 19.820312 -124.242188 20.0625 -124.960938 19.90625 -125.921875 C 19.90625 -127.835938 18.945312 -128.796875 17.03125 -128.796875 C 14.945312 -128.796875 13.90625 -127.835938 13.90625 -125.921875 Z M 13.90625 -125.921875 "/></g></g></g><g mask="url(#id6)"><g transform="matrix(1, 0, 0, 1, 1012, 21)"><g clip-path="url(#id9)"><path stroke-linecap="butt" transform="matrix(0.00000000000000046, 7.507554, -7.499999, 0.000000000000000459, 15.431039, 0.704394)" fill="none" stroke-linejoin="miter" d="M 0.750117 0.000180164 L 28.720904 0.000180164 " stroke="#000000" stroke-width="1" stroke-opacity="1" stroke-miterlimit="4"/><g clip-path="url(#id7)"><path fill="#000000" d="M 30.429688 4.457031 C 30.429688 4.957031 30.335938 5.433594 30.144531 5.894531 C 29.957031 6.355469 29.683594 6.761719 29.332031 7.113281 C 28.980469 7.464844 28.574219 7.734375 28.117188 7.925781 C 27.65625 8.117188 27.179688 8.210938 26.679688 8.210938 L 4.179688 8.210938 C 3.683594 8.210938 3.207031 8.117188 2.746094 7.925781 C 2.285156 7.734375 1.882812 7.464844 1.53125 7.113281 C 1.179688 6.761719 0.90625 6.355469 0.714844 5.894531 C 0.527344 5.433594 0.429688 4.957031 0.429688 4.457031 C 0.429688 3.960938 0.527344 3.480469 0.714844 3.023438 C 0.90625 2.5625 1.179688 2.15625 1.53125 1.804688 C 1.882812 1.453125 2.285156 1.179688 2.746094 0.988281 C 3.207031 0.800781 3.683594 0.703125 4.179688 0.703125 L 26.679688 0.703125 C 27.179688 0.703125 27.65625 0.800781 28.117188 0.988281 C 28.574219 1.179688 28.980469 1.453125 29.332031 1.804688 C 29.683594 2.15625 29.957031 2.5625 30.144531 3.023438 C 30.335938 3.480469 30.429688 3.960938 30.429688 4.457031 Z M 30.429688 4.457031 " fill-opacity="1" fill-rule="nonzero"/></g><g clip-path="url(#id8)"><path fill="#000000" d="M 30.429688 218.203125 C 30.429688 218.703125 30.335938 219.179688 30.144531 219.640625 C 29.957031 220.101562 29.683594 220.507812 29.332031 220.859375 C 28.980469 221.210938 28.574219 221.480469 28.117188 221.671875 C 27.65625 221.863281 27.179688 221.957031 26.679688 221.957031 L 4.179688 221.957031 C 3.683594 221.957031 3.207031 221.863281 2.746094 221.671875 C 2.285156 221.480469 1.882812 221.210938 1.53125 220.859375 C 1.179688 220.507812 0.90625 220.101562 0.714844 219.640625 C 0.527344 219.179688 0.429688 218.703125 0.429688 218.203125 C 0.429688 217.707031 0.527344 217.226562 0.714844 216.765625 C 0.90625 216.308594 1.179688 215.902344 1.53125 215.550781 C 1.882812 215.199219 2.285156 214.925781 2.746094 214.734375 C 3.207031 214.546875 3.683594 214.449219 4.179688 214.449219 L 26.679688 214.449219 C 27.179688 214.449219 27.65625 214.546875 28.117188 214.734375 C 28.574219 214.925781 28.980469 215.199219 29.332031 215.550781 C 29.683594 215.902344 29.957031 216.308594 30.144531 216.765625 C 30.335938 217.226562 30.429688 217.707031 30.429688 218.203125 Z M 30.429688 218.203125 " fill-opacity="1" fill-rule="nonzero"/></g></g></g></g></svg>