<?xml version="1.0" standalone="no"?>
<!DOCTYPE svg PUBLIC "-//W3C//DTD SVG 20010904//EN"
 "http://www.w3.org/TR/2001/REC-SVG-20010904/DTD/svg10.dtd">
<svg version="1.0" xmlns="http://www.w3.org/2000/svg"
 width="300.000000pt" height="267.000000pt" viewBox="0 0 300.000000 267.000000"
 preserveAspectRatio="xMidYMid meet">
<metadata>
Created by potrace 1.10, written by Peter Selinger 2001-2011
</metadata>
<g transform="translate(0.000000,267.000000) scale(0.100000,-0.100000)"
fill="#ffffff" stroke="none">
<path d="M1225 2468 c-15 -18 -44 -51 -64 -73 -136 -150 -194 -218 -181 -212
180 74 451 197 451 203 -1 5 -14 9 -30 9 -17 0 -27 -4 -24 -12 3 -6 -10 -14
-29 -18 -18 -4 -36 -12 -39 -17 -4 -6 -18 -11 -32 -11 -14 -1 -23 -5 -21 -9 6
-9 -34 -21 -46 -13 -5 3 -10 2 -10 -3 0 -14 -48 -32 -67 -26 -15 5 -16 4 -3
-5 17 -12 17 -12 -25 -16 -16 -2 -24 -1 -17 2 6 3 10 9 7 13 -3 5 5 16 17 24
12 9 19 16 14 16 -5 0 10 19 32 43 23 23 55 57 72 76 29 33 30 34 49 17 11
-10 24 -15 30 -12 5 3 16 -1 24 -9 9 -8 22 -15 31 -15 8 0 18 -4 21 -10 3 -5
11 -10 18 -10 17 0 -1 14 -58 45 -27 15 -57 33 -66 41 -21 19 -24 18 -54 -18z
m80 -16 c-3 -3 -11 0 -18 7 -9 10 -8 11 6 5 10 -3 15 -9 12 -12z"/>
<path d="M1382 2447 c47 -28 137 -83 200 -121 62 -38 128 -80 146 -93 33 -25
54 -25 35 -1 -5 7 -17 36 -27 63 -10 28 -20 57 -23 65 -4 8 -16 42 -28 75
l-22 60 -184 2 -184 3 87 -53z m269 19 c1 -6 0 -18 -1 -26 -1 -8 2 -12 6 -7
10 10 36 -52 27 -66 -3 -6 -1 -7 5 -3 7 4 15 -8 21 -31 14 -49 14 -53 -3 -53
-20 0 -127 66 -119 74 3 3 -2 6 -11 6 -17 0 -66 30 -93 56 -7 7 -31 21 -54 31
-37 16 -39 18 -18 23 47 10 239 7 240 -4z"/>
<path d="M1721 2408 c22 -51 46 -106 53 -123 16 -35 67 -152 97 -221 22 -53
18 -55 62 27 l19 34 -29 -32 -28 -33 -39 88 c-21 48 -39 97 -40 109 0 11 -4
19 -7 17 -8 -5 -61 117 -54 124 3 3 5 0 5 -6 0 -6 9 -14 21 -17 16 -5 18 -9 8
-21 -10 -12 -9 -13 4 -9 9 4 24 -3 36 -16 12 -13 21 -19 21 -14 0 4 10 -4 23
-18 12 -15 25 -27 28 -27 4 0 22 -15 42 -34 30 -28 34 -36 23 -45 -8 -7 -12
-22 -9 -34 3 -14 2 -18 -4 -10 -6 9 -12 7 -22 -8 -10 -17 -10 -20 1 -13 7 5
17 9 22 9 4 0 18 17 30 38 l21 38 -24 20 c-29 24 -176 156 -247 222 l-52 48
39 -93z"/>
<path d="M1148 2333 c7 -3 16 -2 19 1 4 3 -2 6 -13 5 -11 0 -14 -3 -6 -6z"/>
<path d="M1185 2239 c-27 -11 -64 -26 -82 -34 -17 -8 -38 -15 -46 -15 -9 0
-19 -5 -22 -11 -13 -20 4 -22 40 -5 20 10 52 20 71 23 21 3 31 9 24 13 -7 5
-3 9 12 12 22 4 24 3 14 -19 -6 -13 -16 -21 -22 -19 -7 3 -10 -3 -7 -13 2 -10
-2 -25 -10 -32 -8 -8 -18 -25 -22 -38 -6 -18 -9 -21 -16 -10 -7 11 -9 9 -9 -7
0 -11 -8 -29 -18 -40 -10 -11 -16 -26 -14 -34 3 -8 1 -11 -4 -7 -8 8 -31 -28
-55 -85 -6 -16 -15 -28 -21 -28 -5 0 -7 4 -3 9 3 5 2 12 -2 14 -5 3 -8 56 -8
118 0 91 3 113 15 116 13 4 13 3 0 -7 -13 -10 -13 -11 0 -7 8 2 16 11 18 21 3
14 -1 16 -25 10 -15 -4 -29 -8 -31 -9 -1 -1 -1 -85 0 -186 l3 -183 41 69 c88
151 205 340 229 371 30 39 22 41 -50 13z"/>
<path d="M1911 2204 c0 -11 3 -14 6 -6 3 7 2 16 -1 19 -3 4 -6 -2 -5 -13z"/>
<path d="M1485 2183 c-111 -14 -193 -120 -183 -237 13 -161 194 -246 330 -156
186 123 75 419 -147 393z m95 -33 c12 -7 9 -26 -20 -127 -18 -65 -36 -121 -40
-126 -6 -7 -90 219 -90 242 0 5 8 12 18 14 32 9 117 7 132 -3z m115 -121 c11
-33 14 -63 9 -94 -3 -25 -9 -44 -12 -41 -5 6 -82 233 -82 244 0 3 16 -9 35
-28 19 -18 42 -55 50 -81z m-288 88 c-3 -7 -17 -56 -32 -108 -15 -52 -29 -101
-32 -109 -8 -28 -23 12 -23 63 0 47 25 112 58 150 18 20 36 23 29 4z m48 -152
c17 -47 20 -65 11 -62 -8 3 -18 1 -24 -5 -5 -5 -23 -7 -40 -3 l-30 6 18 60
c10 32 15 59 12 59 -4 0 0 4 8 10 19 12 18 12 45 -65z m165 37 c0 -7 9 -31 19
-52 l19 -40 -27 -13 c-18 -9 -34 -10 -52 -3 l-26 9 19 59 c10 33 21 65 24 70
7 11 24 -9 24 -30z m-218 -162 c5 -36 2 -37 -29 -8 -29 27 -29 38 1 38 19 0
25 -6 28 -30z m178 -14 c0 -43 -1 -44 -38 -49 -20 -4 -51 -3 -67 1 -27 7 -30
13 -33 50 l-3 42 70 0 71 0 0 -44z m78 14 c-12 -16 -25 -30 -30 -30 -4 0 -8
14 -8 30 0 27 3 30 30 30 l31 0 -23 -30z"/>
<path d="M1993 2153 c-7 -20 -45 -84 -107 -183 -23 -36 -47 -75 -53 -85 -7
-11 -20 -34 -29 -52 -9 -18 -22 -37 -30 -44 -8 -6 -14 -16 -14 -21 0 -5 -9
-21 -20 -35 -11 -15 -19 -27 -17 -29 4 -4 76 21 199 69 l83 33 3 182 c3 172 0
205 -15 165z m-7 -212 l2 -118 -44 -23 c-25 -12 -52 -19 -62 -15 -9 3 -13 3
-9 -1 8 -9 -59 -43 -86 -44 -16 0 -16 2 -2 30 9 18 21 28 27 24 7 -4 8 -3 4 5
-4 6 0 24 10 39 10 15 17 31 16 36 -2 5 4 6 13 2 9 -3 14 -2 11 3 -8 13 29 78
42 73 7 -2 10 2 6 12 -3 9 -1 16 5 16 6 0 11 9 11 20 0 11 6 23 14 26 8 3 12
12 9 20 -4 10 0 12 13 7 13 -5 15 -3 9 8 -4 8 -5 11 0 7 4 -4 9 -61 11 -127z"/>
<path d="M1057 1905 c-9 -19 -12 -35 -7 -35 6 0 10 7 10 15 0 30 18 14 35 -32
26 -70 83 -202 105 -245 18 -33 18 -36 2 -33 -9 1 -16 10 -16 19 1 9 -3 15
-10 14 -18 -4 -97 62 -90 74 4 7 2 8 -4 4 -6 -3 -15 2 -21 11 -5 10 -13 18
-18 18 -4 0 -7 4 -5 8 1 5 -1 6 -5 4 -5 -3 -17 1 -28 9 -10 8 -14 14 -7 14 6
0 9 7 5 17 -5 12 -3 14 8 8 12 -8 12 -6 0 8 -7 9 -9 17 -4 17 5 0 14 14 20 31
15 38 14 37 -30 -28 l-34 -51 70 -64 c39 -34 94 -83 122 -108 27 -25 69 -64
93 -87 48 -47 49 -37 2 57 -15 30 -44 97 -65 147 -22 54 -42 90 -48 86 -5 -3
-7 -1 -3 5 3 6 1 23 -5 39 -25 59 -49 113 -52 113 -2 0 -11 -16 -20 -35z"/>
<path d="M1925 1750 c-33 -17 -100 -47 -150 -68 -194 -84 -245 -107 -245 -113
0 -4 8 -9 18 -13 9 -3 24 -9 32 -13 13 -5 13 -4 2 10 -12 14 -8 18 35 37 26
11 60 28 76 36 15 8 32 12 39 8 7 -4 8 -3 4 4 -7 12 9 16 49 13 16 -2 17 0 6
8 -11 7 -6 11 22 16 20 4 37 11 37 16 0 5 5 9 11 9 5 0 7 -6 3 -12 -5 -9 -2
-9 9 1 9 7 17 9 17 4 0 -13 -34 -43 -49 -43 -7 0 -9 -5 -5 -12 4 -6 1 -16 -7
-22 -8 -6 -26 -26 -42 -44 -15 -19 -27 -29 -27 -23 0 6 -4 11 -9 11 -5 0 -7
-8 -4 -18 2 -10 -4 -25 -14 -35 -16 -14 -25 -15 -56 -5 -20 6 -37 15 -37 20 0
4 -7 8 -16 8 -9 0 -12 5 -8 12 4 7 3 8 -4 4 -7 -4 -12 -9 -12 -10 0 -2 26 -20
57 -41 l57 -38 30 34 c16 19 61 70 100 113 39 43 78 86 86 96 8 9 28 31 44 48
36 39 28 39 -49 2z"/>
<path d="M1200 1745 c0 -2 9 -24 19 -47 18 -39 71 -177 85 -220 5 -16 23 -18
187 -18 l182 0 -79 48 c-224 137 -274 168 -327 203 -57 38 -67 44 -67 34z
m123 -92 c34 -21 64 -41 65 -45 2 -5 10 -8 18 -8 7 0 21 -11 30 -25 9 -14 21
-22 26 -19 6 4 13 2 17 -4 4 -7 17 -13 29 -15 12 -2 25 -7 29 -12 5 -4 2 -5
-6 0 -10 6 -12 4 -7 -4 5 -7 15 -10 23 -7 8 3 11 1 8 -4 -3 -6 2 -10 12 -11
16 0 16 -1 -2 -8 -11 -5 -71 -8 -133 -9 -106 0 -114 1 -109 18 3 12 0 17 -8
14 -9 -4 -17 12 -25 50 -6 31 -16 58 -21 62 -6 3 -8 17 -4 31 4 16 2 22 -5 18
-5 -3 -10 -1 -10 4 0 17 7 14 73 -26z"/>
<path d="M680 1496 c-28 -35 11 -93 48 -70 35 22 22 84 -18 84 -10 0 -23 -7
-30 -14z m50 -22 c0 -11 -14 -34 -21 -34 -4 0 -5 7 -2 17 4 11 3 14 -5 9 -7
-4 -12 -3 -12 3 0 5 9 9 20 8 11 -1 20 -2 20 -3z"/>
<path d="M1000 1493 c-19 -9 -91 -39 -160 -68 l-125 -52 -3 -53 -3 -52 28 21
c15 12 89 62 163 113 155 104 145 97 139 102 -2 2 -20 -3 -39 -11z m-133 -89
c-3 -3 -12 -4 -19 -1 -8 3 -5 6 6 6 11 1 17 -2 13 -5z m-37 -29 c0 -1 -10 -10
-22 -21 -14 -12 -18 -14 -13 -4 4 8 -8 0 -27 -18 -33 -31 -36 -32 -41 -13 -4
15 0 21 11 22 12 0 13 2 4 6 -18 7 48 40 71 35 9 -3 17 -5 17 -7z"/>
<path d="M1921 1506 c9 -9 200 -136 204 -136 2 0 2 8 -1 18 -5 13 -4 14 4 3 6
-8 15 -10 23 -6 8 5 11 5 7 0 -4 -4 -2 -15 5 -24 11 -14 10 -14 -6 -2 -9 8
-20 12 -23 9 -4 -4 77 -70 114 -92 9 -5 12 6 12 46 l0 53 -103 39 c-56 22
-130 52 -165 68 -58 26 -81 34 -71 24z m313 -162 c3 -8 1 -14 -5 -14 -6 0 -7
-6 -3 -12 5 -8 -2 -6 -16 3 -14 9 -25 20 -25 25 0 5 -4 14 -8 21 -6 9 -1 10
22 2 16 -6 32 -17 35 -25z"/>
<path d="M2200 1351 c0 -6 4 -13 10 -16 6 -3 7 1 4 9 -7 18 -14 21 -14 7z"/>
<path d="M2236 1488 c-9 -12 -16 -28 -16 -34 0 -20 29 -36 54 -30 33 8 43 42
20 67 -22 25 -39 24 -58 -3z m38 -31 c-3 -9 -10 -17 -15 -17 -6 0 -6 8 0 19 6
10 9 21 7 23 -1 3 1 2 6 -2 5 -3 6 -14 2 -23z"/>
<path d="M1179 1384 c-17 -21 0 -49 31 -49 31 0 48 28 31 49 -8 9 -21 16 -31
16 -10 0 -23 -7 -31 -16z m41 -20 c0 -8 -19 -13 -24 -6 -3 5 1 9 9 9 8 0 15
-2 15 -3z"/>
<path d="M1734 1386 c-11 -28 1 -51 28 -54 31 -4 48 29 28 53 -16 19 -49 19
-56 1z"/>
<path d="M1960 1367 c-41 -18 -103 -43 -137 -56 -47 -18 -61 -27 -60 -42 1
-22 15 -25 23 -6 2 7 17 13 32 14 24 2 25 1 8 -10 -39 -25 -61 -46 -55 -52 4
-3 13 0 21 8 8 8 27 21 43 30 17 8 59 37 96 64 36 26 76 56 90 65 35 24 23 22
-61 -15z"/>
<path d="M875 1362 c-20 -15 -33 -28 -28 -29 29 -9 189 -40 191 -38 2 1 -26
23 -62 48 l-64 45 -37 -26z m55 -6 c0 -3 -4 -8 -10 -11 -5 -3 -10 -1 -10 4 0
6 5 11 10 11 6 0 10 -2 10 -4z"/>
<path d="M956 1382 c5 -5 41 -31 79 -58 39 -28 94 -67 123 -88 l52 -38 0 44
c0 42 -1 43 -48 62 -26 10 -82 34 -125 52 -79 35 -99 41 -81 26z m194 -102 c0
-5 -5 -10 -11 -10 -5 0 -7 5 -4 10 3 6 8 10 11 10 2 0 4 -4 4 -10z m34 -39
c-8 -9 -22 12 -17 26 6 15 7 14 13 -3 4 -10 6 -21 4 -23z"/>
<path d="M2035 1370 c-10 -11 -13 -20 -7 -20 6 0 14 5 17 10 3 6 11 10 16 10
6 0 3 -7 -6 -16 -8 -9 -22 -13 -31 -10 -15 6 -84 -32 -84 -47 0 -5 4 -5 10 -2
8 5 162 35 180 35 6 0 -64 59 -71 60 -3 0 -14 -9 -24 -20z"/>
<path d="M1473 1343 c-18 -7 -16 -50 2 -57 24 -9 45 4 45 29 0 18 -22 40 -33
34 -1 0 -8 -3 -14 -6z"/>
<path d="M786 1301 c-16 -17 -38 -33 -48 -37 -10 -3 -18 -8 -18 -12 0 -10 99
-63 102 -54 2 4 1 35 -2 70 l-5 64 -29 -31z m10 -40 c-1 -25 -3 -28 -19 -19
-18 9 -18 11 -1 29 22 24 22 24 20 -10z"/>
<path d="M2150 1255 c0 -42 4 -64 10 -60 6 4 8 11 5 16 -3 5 1 6 9 3 16 -6 76
22 76 36 0 6 -5 10 -10 10 -6 0 -21 9 -33 21 -51 48 -57 46 -57 -26z m28 24
c-9 -6 -10 -9 -1 -9 8 0 10 -7 6 -17 -6 -16 -5 -16 10 -4 15 11 17 11 17 -2 0
-19 -27 -30 -37 -14 -14 22 -11 65 5 60 11 -5 11 -7 0 -14z"/>
<path d="M1730 1249 c-7 -11 -28 -38 -47 -60 -40 -44 -37 -46 24 -23 42 16 43
18 43 60 0 49 -4 54 -20 23z"/>
<path d="M1224 1221 c-1 -37 1 -40 40 -55 23 -9 45 -16 49 -16 8 0 -74 108
-83 109 -3 1 -6 -17 -6 -38z m31 -29 c-3 -3 -11 0 -18 7 -9 10 -8 11 6 5 10
-3 15 -9 12 -12z"/>
<path d="M1831 1229 c-23 -19 -23 -20 -6 -33 13 -9 15 -15 7 -20 -15 -9 -34 2
-27 15 8 11 -6 12 -24 0 -10 -6 -2 -15 30 -35 l44 -26 3 30 c2 17 2 43 0 59
l-3 29 -24 -19z"/>
<path d="M1110 1185 l0 -55 45 22 c49 24 55 33 26 43 -10 3 -26 14 -36 25 -28
31 -35 24 -35 -35z m53 -11 c-7 -18 -19 -18 -26 0 -7 18 1 26 18 19 8 -2 11
-11 8 -19z"/>
<path d="M1450 1218 c0 -19 2 -20 10 -8 8 12 10 12 11 -5 0 -11 3 -14 6 -7 7
19 23 14 23 -8 0 -27 -37 -46 -43 -22 -3 9 -5 2 -6 -16 0 -19 2 -32 7 -30 57
28 60 31 64 70 2 21 2 41 -1 44 -2 2 -19 4 -38 4 -28 0 -33 -4 -33 -22z"/>
<path d="M2255 1231 c-3 -6 -28 -22 -55 -36 -53 -27 -54 -29 -70 -125 -6 -36
-13 -78 -16 -93 l-6 -29 73 49 c41 27 100 64 132 82 l57 33 -47 56 c-26 31
-50 61 -54 65 -4 5 -10 4 -14 -2z m25 -41 c0 -5 14 -23 30 -40 29 -30 32 -50
7 -50 -7 0 -27 -13 -46 -29 -19 -17 -38 -28 -43 -25 -4 3 -15 -1 -23 -8 -45
-41 -48 -42 -40 -19 4 12 2 21 -4 21 -16 0 -13 38 5 86 12 31 26 46 57 62 39
20 57 21 57 2z"/>
<path d="M706 1218 c-3 -7 -14 -80 -26 -163 -12 -82 -24 -158 -26 -167 -10
-33 30 -20 45 15 83 187 104 233 112 242 5 5 9 16 9 24 0 8 -3 12 -6 8 -3 -3
-23 4 -43 17 -20 12 -42 26 -49 30 -7 4 -14 2 -16 -6z m65 -41 c9 -7 14 -21
13 -32 -6 -31 -103 -222 -103 -203 -1 9 4 20 9 23 6 4 8 16 5 26 -4 11 -2 26
5 34 6 7 12 37 12 67 1 29 6 59 11 66 5 6 6 12 1 12 -5 0 -2 5 6 10 19 12 21
12 41 -3z"/>
<path d="M1380 1189 l-45 -40 49 3 c48 3 49 4 53 41 2 20 0 37 -4 37 -4 -1
-28 -19 -53 -41z"/>
<path d="M1540 1212 c0 -12 6 -22 13 -22 8 0 7 -3 -3 -10 -10 -6 -11 -12 -5
-19 11 -10 95 -20 95 -11 0 3 -17 16 -38 29 -20 14 -43 32 -49 40 -11 13 -13
12 -13 -7z"/>
<path d="M1160 1135 c-44 -24 -44 -26 -62 -107 -22 -107 -23 -104 12 -75 16
14 39 28 50 32 11 3 20 10 20 14 0 4 23 18 50 31 28 13 50 30 50 37 0 14 -60
93 -70 92 -3 0 -25 -11 -50 -24z m71 -26 c29 -30 30 -32 12 -48 -10 -9 -34
-24 -53 -33 -19 -10 -46 -26 -60 -35 -18 -14 -22 -14 -15 -3 5 8 10 26 11 40
1 14 3 26 4 28 1 1 3 10 4 20 1 9 5 23 9 29 10 16 59 13 53 -3 -2 -6 2 -11 9
-11 10 0 11 5 4 19 -6 10 -15 15 -21 12 -7 -4 -8 -3 -4 4 10 17 13 16 47 -19z"/>
<path d="M1760 1158 c0 -2 -11 -67 -24 -145 -21 -133 -22 -143 -6 -143 12 0
25 19 41 58 12 31 35 83 51 114 31 64 34 78 14 78 -7 0 -25 9 -39 20 -23 18
-37 24 -37 18z m56 -75 c1 -21 -2 -30 -9 -26 -6 4 -8 0 -4 -11 4 -10 3 -15 -3
-11 -6 3 -10 -2 -10 -12 -1 -10 -7 -29 -15 -43 -15 -27 -19 -18 -6 15 5 11 4
28 -1 38 -11 22 1 45 13 26 7 -11 9 -10 9 4 0 9 -4 17 -10 17 -5 0 -10 9 -10
21 0 15 5 20 22 17 18 -2 23 -10 24 -35z m-52 -78 c-4 -8 -8 -15 -10 -15 -2 0
-4 7 -4 15 0 8 4 15 10 15 5 0 7 -7 4 -15z"/>
<path d="M1486 1118 c-27 -14 -35 -23 -27 -31 7 -7 17 -7 33 1 23 12 23 12 -2
7 -21 -5 -22 -4 -7 5 24 16 35 5 31 -30 -2 -16 1 -30 6 -30 6 0 10 -7 10 -15
0 -25 -15 -17 -27 15 -6 17 -16 30 -22 30 -10 0 0 -27 48 -132 11 -26 21 -52
21 -57 0 -6 7 -11 16 -11 8 0 13 4 10 9 -3 4 -14 63 -25 131 -11 67 -21 123
-23 125 -2 2 -20 -6 -42 -17z"/>
<path d="M791 1068 c-17 -44 -22 -72 -18 -103 9 -59 24 -95 42 -95 13 0 15 19
14 130 0 72 -4 130 -7 130 -4 0 -18 -28 -31 -62z m9 -53 c0 -14 -4 -25 -10
-25 -11 0 -14 33 -3 43 11 11 13 8 13 -18z"/>
<path d="M1839 1043 c-7 -21 -13 -40 -12 -43 1 -3 5 -14 9 -25 7 -18 6 -18 -9
-6 -15 12 -17 11 -17 -5 0 -38 21 -94 35 -94 12 0 15 20 15 105 0 58 -2 105
-4 105 -3 0 -10 -17 -17 -37z"/>
<path d="M1450 1060 c-13 -175 -1 -238 28 -136 13 44 12 52 -7 94 -11 26 -21
45 -21 42z"/>
<path d="M2260 1023 c-14 -9 -26 -17 -28 -18 -2 -2 11 -32 27 -69 20 -42 37
-66 47 -66 13 0 15 6 10 33 -4 17 -10 56 -13 85 -3 28 -9 52 -12 52 -4 0 -18
-8 -31 -17z m19 -68 c0 -5 -4 -3 -9 5 -5 8 -9 22 -9 30 0 16 17 -16 18 -35z"/>
<path d="M1200 990 c-18 -14 -21 -21 -13 -32 6 -7 16 -30 22 -50 7 -21 19 -38
27 -38 12 0 13 10 8 53 -11 84 -14 89 -44 67z"/>
<path d="M2183 976 c-7 -8 -16 -16 -22 -17 -5 -2 -12 -23 -15 -47 -4 -36 -2
-43 11 -40 14 3 24 23 47 96 8 24 -3 29 -21 8z"/>
<path d="M1132 947 c-24 -25 -30 -77 -9 -77 12 0 43 88 34 96 -2 2 -13 -6 -25
-19z"/>
<path d="M1912 890 c0 -14 2 -19 5 -12 2 6 2 18 0 25 -3 6 -5 1 -5 -13z"/>
<path d="M871 652 c-92 -46 -100 -163 -17 -217 48 -32 186 -17 186 19 0 10
-10 9 -41 -7 -34 -17 -46 -18 -78 -9 -52 16 -82 52 -88 105 -4 36 -1 48 18 71
34 38 87 45 133 16 34 -20 45 -18 28 6 -24 36 -89 43 -141 16z"/>
<path d="M1113 650 c-62 -37 -88 -112 -59 -168 24 -46 53 -62 113 -62 45 0 56
4 87 34 33 31 36 38 36 92 -1 68 -12 88 -63 109 -48 20 -75 19 -114 -5z m97
-16 c63 -38 78 -114 33 -163 -37 -40 -70 -46 -111 -21 -55 34 -78 113 -46 158
29 42 79 52 124 26z"/>
<path d="M1380 652 c-42 -20 -70 -71 -70 -125 0 -31 7 -46 34 -73 29 -29 41
-34 80 -34 26 0 60 7 75 15 54 28 80 134 45 184 -19 26 -72 51 -106 51 -13 -1
-39 -9 -58 -18z m101 -25 c19 -13 40 -39 48 -60 13 -34 12 -42 -2 -72 -51
-107 -187 -61 -187 63 0 33 6 45 31 66 38 32 66 33 110 3z"/>
<path d="M1578 653 c17 -7 17 -204 0 -221 -9 -9 -2 -12 32 -12 34 0 41 3 32
12 -8 8 -12 48 -12 116 0 103 0 103 23 96 12 -3 28 -11 35 -17 20 -16 10 -61
-15 -72 -13 -5 -23 -13 -23 -17 0 -11 6 -10 44 6 55 23 60 87 9 107 -24 9
-149 12 -125 2z"/>
<path d="M1981 611 c-34 -9 -65 -55 -65 -96 0 -51 32 -88 85 -98 48 -10 99 3
99 25 0 9 -3 9 -12 0 -17 -17 -89 -15 -115 3 -29 21 -46 75 -34 108 17 45 82
63 132 37 14 -8 17 -7 13 4 -9 23 -54 31 -103 17z"/>
<path d="M1792 541 c-18 -39 -32 -75 -32 -80 0 -5 -7 -17 -16 -25 -13 -14 -13
-16 -1 -16 8 0 22 18 31 40 13 34 20 40 45 40 23 0 31 -6 42 -32 8 -18 13 -36
11 -40 -1 -5 7 -8 18 -8 16 0 18 3 10 18 -5 9 -19 40 -30 67 -11 28 -26 63
-33 79 l-13 29 -32 -72z m43 -8 c5 -20 3 -23 -18 -23 -24 0 -25 2 -14 30 12
31 20 29 32 -7z"/>
<path d="M2118 601 c10 -6 13 -31 10 -95 -2 -71 0 -86 12 -86 12 0 14 10 12
45 l-4 45 43 0 c23 0 39 3 35 7 -4 4 -23 6 -42 4 -34 -3 -34 -2 -34 40 l0 42
45 -5 c25 -3 45 -2 45 3 0 5 -30 9 -67 9 -41 0 -63 -4 -55 -9z"/>
<path d="M2255 515 c0 -94 0 -95 25 -95 19 0 21 3 12 12 -17 17 -16 165 1 171
6 3 1 6 -13 6 -25 1 -25 1 -25 -94z"/>
</g>
</svg>
