<?xml version="1.0" standalone="no"?>
<!DOCTYPE svg PUBLIC "-//W3C//DTD SVG 20010904//EN"
 "http://www.w3.org/TR/2001/REC-SVG-20010904/DTD/svg10.dtd">
<svg version="1.0" xmlns="http://www.w3.org/2000/svg"
 width="300.000000pt" height="267.000000pt" viewBox="0 0 300.000000 267.000000"
 preserveAspectRatio="xMidYMid meet">
<metadata>
Created by potrace 1.10, written by Peter Selinger 2001-2011
</metadata>
<g transform="translate(0.000000,267.000000) scale(0.050000,-0.050000)"
fill="#000000" stroke="none">
<path d="M2285 4755 c-122 -135 -250 -275 -284 -312 -73 -78 -69 -98 12 -57
31 17 215 97 407 179 503 216 470 198 428 229 -20 14 -53 26 -74 26 -22 0 -54
16 -72 36 -35 39 -170 144 -185 144 -6 0 -110 -110 -232 -245z"/>
<path d="M2600 4990 c0 -5 37 -28 83 -52 46 -23 253 -148 460 -278 223 -140
377 -225 377 -209 0 27 -79 208 -100 229 -5 6 -13 33 -17 60 -4 28 -14 64 -22
80 -9 17 -22 64 -29 105 l-14 75 -369 0 c-203 0 -369 -4 -369 -10z"/>
<path d="M3360 4991 c0 -7 26 -64 58 -127 31 -63 118 -258 192 -434 183 -437
167 -413 214 -318 36 72 51 112 54 154 1 9 9 12 17 7 8 -5 40 25 70 67 l55 77
-175 154 c-96 85 -234 210 -306 278 -134 127 -179 162 -179 142z"/>
<path d="M2340 4459 c-71 -32 -195 -78 -275 -103 l-145 -45 0 -366 c0 -201 4
-365 8 -365 5 0 33 43 63 95 95 165 435 713 473 763 73 96 55 99 -124 21z"/>
<path d="M2920 4362 c-275 -89 -398 -350 -286 -604 187 -423 826 -281 826 183
0 270 -296 501 -540 421z m217 -55 c53 -14 54 1 -27 -297 -72 -267 -74 -267
-161 -7 -41 125 -79 238 -84 252 -18 49 158 83 272 52z m157 -92 c91 -99 139
-260 108 -365 l-17 -60 -25 60 c-49 121 -135 410 -121 410 8 0 33 -20 55 -45z
m-544 -189 c-76 -255 -69 -240 -91 -205 -49 78 -3 280 87 375 63 67 64 28 4
-170z m50 -336 c0 -59 -13 -62 -63 -17 -51 45 -46 67 13 67 40 0 50 -10 50
-50z m356 -35 l-6 -85 -118 -6 c-132 -7 -151 7 -152 111 l0 65 141 0 141 0 -6
-85z m170 36 c-46 -64 -86 -64 -86 -1 0 42 9 50 61 50 l61 0 -36 -49z"/>
<path d="M3956 4250 c-29 -55 -157 -266 -284 -470 -126 -203 -226 -372 -222
-376 4 -4 66 21 138 55 72 34 196 79 276 99 l146 37 6 194 c3 106 3 276 0 377
l-6 184 -54 -100z"/>
<path d="M2130 3835 c-5 -14 -13 -51 -18 -82 -6 -31 -20 -69 -33 -84 -12 -15
-16 -38 -8 -51 10 -16 7 -19 -9 -9 -14 8 -20 28 -14 43 18 47 1 32 -65 -60
l-63 -88 144 -127 c79 -70 210 -190 291 -266 259 -244 255 -247 99 91 -39 84
-97 219 -130 300 -139 346 -170 400 -194 333z"/>
<path d="M3930 3535 c-22 -13 -219 -101 -439 -195 -463 -199 -494 -231 -253
-257 16 -2 23 -9 16 -16 -14 -13 42 -69 122 -122 44 -29 50 -28 92 17 207 218
532 577 532 586 0 18 -26 13 -70 -13z"/>
<path d="M2420 3462 c0 -10 27 -71 59 -137 33 -66 75 -177 93 -247 19 -70 41
-135 48 -143 7 -9 174 -13 371 -10 l359 5 -90 48 c-49 26 -157 90 -240 142
-558 353 -600 376 -600 342z"/>
<path d="M1345 2981 c-42 -67 4 -140 89 -141 60 0 92 62 66 129 -24 64 -118
71 -155 12z"/>
<path d="M1964 2978 c-47 -24 -186 -85 -310 -138 l-224 -95 -6 -101 -6 -102
316 211 c400 267 485 351 230 225z"/>
<path d="M3883 2974 c29 -24 142 -100 250 -169 196 -124 428 -311 327 -263
-27 13 -75 41 -105 62 l-55 39 0 -131 0 -131 94 50 c119 63 125 75 125 209 l0
110 -174 68 c-96 38 -239 99 -318 135 -165 77 -221 86 -144 21z"/>
<path d="M4464 2996 c-13 -13 -24 -43 -24 -66 0 -23 11 -53 24 -66 13 -13 43
-24 66 -24 23 0 53 11 66 24 13 13 24 43 24 66 0 23 -11 53 -24 66 -13 13 -43
24 -66 24 -23 0 -53 -11 -66 -24z"/>
<path d="M2375 2798 c-74 -43 -21 -147 69 -135 59 9 75 94 24 131 -42 31 -47
31 -93 4z"/>
<path d="M3461 2771 c-40 -48 -7 -111 60 -111 60 0 100 69 70 119 -19 31 -102
26 -130 -8z"/>
<path d="M1763 2734 c-34 -24 -62 -50 -63 -57 0 -17 363 -101 376 -87 13 12
20 6 -128 106 l-122 81 -63 -43z"/>
<path d="M1950 2731 c67 -59 446 -331 461 -331 5 0 9 39 9 86 l0 86 -235 96
c-301 124 -306 125 -235 63z"/>
<path d="M3765 2674 c-220 -94 -245 -109 -245 -154 1 -124 30 -114 375 135
209 151 189 154 -130 19z"/>
<path d="M3995 2696 c-142 -101 -136 -108 60 -76 213 35 222 42 138 107 -85
64 -60 68 -198 -31z"/>
<path d="M2919 2669 c-36 -43 -1 -99 63 -99 40 0 48 10 48 60 0 70 -66 94
-111 39z"/>
<path d="M1567 2601 c-34 -31 -79 -67 -100 -80 -25 -16 -29 -27 -13 -34 14 -5
57 -32 97 -59 89 -60 110 -49 107 58 -4 163 -18 180 -91 115z"/>
<path d="M3394 2424 l-95 -122 -138 89 c-87 56 -161 89 -200 89 l-61 0 0 -122
c0 -67 7 -118 15 -114 100 49 124 69 136 114 l15 52 13 -49 c19 -74 137 -94
288 -48 130 38 138 49 129 158 l-6 75 -96 -122z"/>
<path d="M2444 2450 c5 -70 15 -84 81 -117 125 -61 132 -28 19 89 l-105 108 5
-80z"/>
<path d="M3635 2439 c-92 -76 -92 -78 -3 -135 89 -58 92 -55 84 84 l-6 113
-75 -62z"/>
<path d="M2220 2380 c0 -111 7 -115 109 -66 88 41 88 44 -8 111 -101 72 -101
72 -101 -45z"/>
<path d="M1412 2435 c-23 -76 -112 -702 -102 -712 24 -24 78 32 104 108 14 44
73 176 130 294 57 118 99 217 94 220 -113 69 -220 112 -226 90z"/>
<path d="M2764 2384 c-100 -86 -97 -101 21 -85 81 11 85 14 91 86 8 93 -4 93
-112 -1z"/>
<path d="M4400 2392 l-110 -63 -36 -207 c-43 -248 -45 -245 89 -143 59 44 167
113 241 152 168 88 171 94 94 173 -34 36 -76 86 -93 111 -37 57 -51 55 -185
-23z"/>
<path d="M2325 2270 l-99 -45 -34 -175 c-42 -211 -42 -211 83 -112 54 43 146
102 202 131 123 62 122 56 24 162 l-78 85 -98 -46z"/>
<path d="M3512 2266 c-6 -31 -20 -114 -32 -186 -11 -71 -31 -172 -42 -224 -32
-138 55 -186 89 -50 17 65 136 318 146 308 4 -4 -6 -40 -23 -80 -50 -121 -20
-323 46 -310 19 4 33 22 32 41 -1 19 -3 117 -5 216 -1 100 -11 177 -20 171
-10 -6 -13 9 -9 34 9 44 1 51 -157 130 -7 3 -18 -19 -25 -50z"/>
<path d="M2976 2238 l-74 -38 76 -165 c42 -91 91 -200 110 -243 53 -121 81
-66 45 90 -16 70 -35 178 -43 238 -20 156 -27 163 -114 118z"/>
<path d="M1585 2144 c-52 -133 -54 -176 -18 -314 50 -192 82 -131 89 165 6
295 -5 318 -71 149z"/>
<path d="M2891 1946 c-21 -255 18 -309 69 -96 25 103 24 119 -14 196 l-41 84
-14 -184z"/>
<path d="M4510 2040 c-61 -68 58 -379 121 -316 20 20 -38 342 -62 350 -12 4
-39 -12 -59 -34z"/>
<path d="M2396 1988 c-52 -52 41 -297 100 -261 18 11 12 60 -27 248 -12 53
-29 56 -73 13z"/>
<path d="M4334 1928 c-45 -42 -55 -66 -50 -125 12 -140 74 -78 123 122 17 69
-2 69 -73 3z"/>
<path d="M2263 1903 c-36 -28 -45 -51 -40 -104 9 -93 41 -82 72 24 32 110 26
124 -32 80z"/>
<path d="M1723 1306 c-149 -73 -181 -284 -62 -404 112 -112 419 -103 419 13 0
26 -7 25 -49 -3 -71 -46 -214 -41 -278 9 -201 158 -29 454 197 339 96 -49 90
-49 90 0 0 79 -193 107 -317 46z"/>
<path d="M2204 1299 c-138 -84 -161 -291 -45 -407 147 -147 398 -46 431 173
33 216 -193 353 -386 234z m236 -57 c113 -80 127 -242 27 -321 -192 -151 -439
161 -254 321 74 65 135 64 227 0z"/>
<path d="M2746 1302 c-185 -116 -163 -405 35 -465 249 -74 454 234 283 425
-74 83 -220 101 -318 40z m187 -35 c195 -93 162 -387 -44 -387 -193 0 -285
282 -123 381 78 47 81 47 167 6z"/>
<path d="M3155 1307 c34 -14 35 -409 1 -443 -19 -19 -5 -24 60 -24 46 0 84 9
84 20 0 11 -9 20 -20 20 -12 0 -20 80 -20 200 l0 200 50 0 c66 0 105 -75 71
-137 -12 -24 -36 -43 -52 -43 -16 0 -29 -10 -29 -22 0 -30 99 -5 145 37 109
98 11 206 -184 203 -72 0 -120 -6 -106 -11z"/>
<path d="M3956 1226 c-157 -62 -179 -302 -35 -377 92 -47 279 -32 279 23 0 21
-12 23 -51 8 -150 -57 -269 22 -269 178 0 113 134 179 243 120 45 -24 75 -8
44 23 -43 43 -138 54 -211 25z"/>
<path d="M3608 1149 c-18 -44 -58 -130 -88 -192 -31 -63 -51 -119 -45 -125 31
-31 59 -4 81 78 34 128 129 134 166 10 17 -56 36 -80 61 -80 40 0 47 20 20 51
-9 10 -42 82 -73 159 -75 184 -83 191 -122 99z m58 -89 c8 -30 1 -40 -30 -40
-29 0 -37 9 -28 32 7 17 12 40 12 51 0 32 34 0 46 -43z"/>
<path d="M4239 1181 c12 -21 21 -89 21 -151 0 -62 -9 -130 -21 -151 -18 -35
-14 -39 41 -39 35 0 58 7 53 15 -5 8 -14 49 -21 90 l-12 75 81 0 c52 0 77 8
68 21 -7 12 -37 16 -69 9 -68 -15 -87 10 -69 93 13 59 17 61 91 51 43 -5 78
-2 78 8 0 10 -59 18 -131 18 -123 0 -129 -2 -110 -39z"/>
<path d="M4510 1030 c0 -177 3 -190 40 -190 37 0 40 13 40 190 0 177 -3 190
-40 190 -37 0 -40 -13 -40 -190z"/>
</g>
</svg>
