<?xml version="1.0" standalone="no"?>
<!DOCTYPE svg PUBLIC "-//W3C//DTD SVG 20010904//EN"
 "http://www.w3.org/TR/2001/REC-SVG-20010904/DTD/svg10.dtd">
<svg version="1.0" xmlns="http://www.w3.org/2000/svg"
 width="300.000000pt" height="192.000000pt" viewBox="0 0 300.000000 192.000000"
 preserveAspectRatio="xMidYMid meet">
<metadata>
Created by potrace 1.10, written by Peter Selinger 2001-2011
</metadata>
<g transform="translate(0.000000,192.000000) scale(0.050000,-0.050000)"
fill="#000000" stroke="none">
<path d="M2285 3255 c-122 -135 -250 -275 -284 -312 -73 -78 -69 -98 12 -56
32 16 179 80 327 143 561 236 589 253 453 278 -31 5 -72 27 -90 47 -36 40
-171 145 -186 145 -6 0 -110 -110 -232 -245z"/>
<path d="M2600 3490 c0 -5 37 -28 82 -51 86 -44 473 -281 703 -431 93 -61 135
-79 135 -59 0 28 -79 210 -100 231 -5 6 -11 19 -12 30 -2 11 -19 81 -38 155
l-36 135 -367 0 c-202 0 -367 -4 -367 -10z"/>
<path d="M3360 3491 c0 -7 26 -64 58 -127 31 -63 118 -258 192 -434 183 -437
167 -413 214 -318 36 72 51 112 54 154 1 9 13 10 25 2 16 -10 20 -4 11 20 -8
19 -5 29 5 23 10 -6 37 15 59 47 l42 58 -175 155 c-96 85 -234 210 -306 278
-134 127 -179 162 -179 142z"/>
<path d="M2355 2962 c-63 -31 -119 -51 -125 -46 -5 6 -10 0 -10 -14 0 -13 -7
-20 -16 -14 -9 5 -41 -3 -71 -18 -30 -16 -56 -27 -58 -26 -3 1 -39 -4 -80 -12
l-75 -14 0 -369 c0 -203 4 -369 8 -369 5 0 33 43 63 95 103 178 398 655 454
733 91 129 79 136 -90 54z"/>
<path d="M2920 2862 c-206 -67 -322 -214 -324 -410 -5 -571 808 -605 858 -36
24 280 -275 531 -534 446z m217 -55 c53 -14 54 1 -27 -297 -72 -267 -74 -267
-161 -7 -41 125 -79 238 -84 252 -18 49 158 83 272 52z m157 -92 c91 -99 139
-260 108 -365 l-17 -60 -25 60 c-49 121 -135 410 -121 410 8 0 33 -20 55 -45z
m-544 -189 c-76 -255 -69 -240 -91 -205 -49 78 -3 280 87 375 63 67 64 28 4
-170z m50 -336 c0 -59 -13 -62 -63 -17 -51 45 -46 67 13 67 40 0 50 -10 50
-50z m356 -35 l-6 -85 -118 -6 c-132 -7 -151 7 -152 111 l0 65 141 0 141 0 -6
-85z m170 36 c-46 -64 -86 -64 -86 -1 0 42 9 50 61 50 l61 0 -36 -49z"/>
<path d="M3956 2750 c-29 -55 -157 -266 -284 -469 -127 -203 -227 -373 -223
-377 4 -4 66 20 137 54 71 34 142 62 157 62 21 1 20 5 -3 22 -25 18 -24 20 5
10 37 -11 233 24 260 48 9 7 13 179 10 381 l-5 369 -54 -100z"/>
<path d="M2117 2275 c-13 -47 -37 -103 -53 -125 -29 -40 -29 -40 -15 0 15 45
3 34 -75 -73 l-54 -74 144 -126 c79 -70 210 -190 291 -266 259 -244 255 -247
99 91 -39 84 -97 219 -130 300 -158 393 -168 407 -207 273z"/>
<path d="M3930 2035 c-22 -13 -219 -101 -439 -195 -219 -94 -401 -181 -406
-194 -9 -28 60 -54 165 -63 30 -3 33 -8 13 -20 -23 -16 116 -143 157 -143 14
0 580 614 580 630 0 16 -27 11 -70 -15z"/>
<path d="M2420 1962 c0 -10 26 -71 58 -135 32 -64 73 -175 93 -247 47 -173 16
-162 420 -155 l359 5 -90 48 c-49 26 -157 90 -240 142 -558 353 -600 376 -600
342z"/>
<path d="M1347 1475 c-39 -90 19 -155 111 -126 50 16 65 60 42 121 -26 67
-125 71 -153 5z"/>
<path d="M1970 1480 c-44 -22 -183 -84 -310 -138 l-230 -97 -6 -102 -6 -101
316 211 c396 265 485 351 236 227z"/>
<path d="M3840 1509 c0 -5 88 -67 196 -137 108 -70 257 -174 331 -230 164
-124 153 -124 153 3 l-1 105 -174 68 c-96 38 -239 99 -318 135 -136 64 -187
79 -187 56z"/>
<path d="M4464 1496 c-13 -13 -24 -43 -24 -66 0 -23 11 -53 24 -66 13 -13 43
-24 66 -24 23 0 53 11 66 24 13 13 24 43 24 66 0 23 -11 53 -24 66 -13 13 -43
24 -66 24 -23 0 -53 -11 -66 -24z"/>
<path d="M2375 1298 c-74 -43 -21 -147 69 -135 59 9 75 94 24 131 -42 31 -47
31 -93 4z"/>
<path d="M3462 1272 c-45 -54 -8 -115 65 -108 55 5 63 13 63 66 0 69 -83 96
-128 42z"/>
<path d="M1764 1234 c-89 -62 -85 -66 119 -113 154 -35 231 -41 195 -15 -31
23 -212 149 -230 159 -11 7 -50 -7 -84 -31z"/>
<path d="M1950 1229 c70 -60 447 -329 461 -329 5 0 9 39 9 86 l0 86 -165 68
c-91 37 -210 84 -265 104 l-100 37 60 -52z"/>
<path d="M3765 1174 c-220 -94 -245 -109 -245 -154 1 -88 27 -106 85 -61 28
23 57 41 63 41 15 0 317 209 381 264 45 38 -55 6 -284 -90z"/>
<path d="M3995 1196 c-142 -101 -136 -108 60 -76 213 35 222 42 138 107 -85
64 -60 68 -198 -31z"/>
<path d="M2919 1169 c-36 -43 -1 -99 63 -99 40 0 48 10 48 60 0 70 -66 94
-111 39z"/>
<path d="M1567 1101 c-34 -31 -79 -67 -100 -80 -25 -16 -29 -27 -13 -34 14 -5
57 -32 97 -59 39 -27 81 -43 91 -37 15 10 7 246 -9 262 -2 2 -31 -22 -66 -52z"/>
<path d="M4300 1010 l0 -128 100 52 c55 28 100 58 100 66 0 8 -45 42 -100 76
l-100 62 0 -128z"/>
<path d="M3394 924 l-95 -122 -138 89 c-87 56 -161 89 -200 89 l-61 0 0 -122
c0 -67 7 -118 15 -114 100 49 124 69 136 114 l15 52 13 -50 c18 -70 153 -92
291 -47 130 42 134 46 126 147 l-6 86 -96 -122z"/>
<path d="M2444 950 c5 -71 15 -84 83 -116 124 -58 130 -28 17 88 l-105 108 5
-80z"/>
<path d="M3630 931 c-44 -37 -75 -71 -70 -76 141 -117 164 -113 156 32 l-6
112 -80 -68z"/>
<path d="M2220 880 c0 -111 7 -115 109 -66 88 41 88 44 -8 111 -101 72 -101
72 -101 -45z"/>
<path d="M1412 935 c-23 -76 -112 -702 -102 -712 24 -24 78 32 104 108 14 44
73 176 130 294 57 118 99 217 94 220 -113 69 -220 112 -226 90z"/>
<path d="M2764 884 c-100 -86 -97 -101 21 -85 81 11 85 14 91 86 8 93 -4 93
-112 -1z"/>
<path d="M4492 945 c-8 -8 -56 -38 -108 -65 l-94 -51 -36 -207 c-43 -248 -45
-245 89 -143 59 44 161 109 227 144 183 96 180 86 74 219 -91 114 -121 135
-152 103z"/>
<path d="M2319 771 l-91 -48 -34 -175 c-41 -211 -43 -208 81 -110 54 43 146
102 202 131 123 62 122 55 29 159 -91 102 -79 99 -187 43z"/>
<path d="M3512 766 c-6 -31 -25 -141 -43 -246 -17 -104 -37 -211 -43 -237 -25
-103 73 -41 123 77 89 214 113 264 122 255 5 -5 -5 -43 -22 -85 -51 -121 10
-388 68 -296 18 30 4 429 -15 417 -9 -5 -12 10 -8 35 9 44 1 51 -157 130 -7 3
-18 -19 -25 -50z"/>
<path d="M2976 738 l-74 -38 76 -165 c42 -91 91 -200 110 -243 50 -115 74 -65
43 88 -15 72 -33 180 -41 240 -20 156 -27 163 -114 118z"/>
<path d="M1585 644 c-52 -133 -54 -176 -18 -314 50 -192 82 -131 89 165 6 295
-5 318 -71 149z"/>
<path d="M2891 446 c-21 -255 18 -309 69 -96 25 103 24 119 -14 196 l-41 84
-14 -184z"/>
<path d="M4510 540 c-61 -68 58 -379 121 -316 19 20 -38 342 -63 350 -11 4
-38 -12 -58 -34z"/>
<path d="M2404 489 l-43 -31 39 -102 c73 -193 128 -185 91 14 -29 155 -31 158
-87 119z"/>
<path d="M4334 428 c-45 -42 -55 -66 -50 -125 12 -140 74 -78 123 122 17 69
-2 69 -73 3z"/>
<path d="M2263 403 c-36 -28 -45 -51 -40 -104 9 -93 41 -82 72 24 32 110 26
124 -32 80z"/>
</g>
</svg>
