<svg xmlns="http://www.w3.org/2000/svg" xmlns:xlink="http://www.w3.org/1999/xlink" width="500" zoomAndPan="magnify" viewBox="0 0 375 374.999991" height="500" preserveAspectRatio="xMidYMid meet" version="1.0"><defs><g/><clipPath id="id1"><path d="M 15.1875 75 L 99.1875 75 L 99.1875 155.492188 L 15.1875 155.492188 Z M 15.1875 75 " clip-rule="nonzero"/></clipPath><clipPath id="id2"><path d="M 43.304688 140.703125 C 38.390625 140.136719 33.917969 138.367188 30.195312 135.453125 L 30.273438 135.363281 C 32.164062 135.683594 34.089844 135.839844 36.03125 135.839844 C 39.410156 135.839844 42.84375 135.363281 46.226562 134.457031 C 48.976562 133.714844 51.695312 132.683594 54.335938 131.382812 C 60.230469 128.484375 65.726562 124.246094 70.296875 118.875 C 75.703125 112.515625 78.035156 106.640625 77.425781 100.910156 C 77.335938 100.066406 77.183594 99.230469 76.960938 98.390625 C 85.171875 106.929688 87.425781 114.257812 77.917969 125.441406 C 71.265625 133.261719 62.472656 138.535156 53.160156 140.285156 C 53.15625 140.285156 53.144531 140.285156 53.140625 140.289062 C 51.6875 140.558594 50.253906 140.742188 48.839844 140.828125 C 46.945312 140.945312 45.097656 140.902344 43.304688 140.703125 Z M 48.703125 129.152344 C 55.464844 126.621094 61.890625 122.132812 67.042969 116.070312 C 71.433594 110.910156 73.28125 106.589844 73.28125 102.664062 C 73.28125 98.535156 71.230469 94.835938 67.960938 91.046875 L 64.746094 94.824219 L 64.742188 94.824219 L 64.742188 94.828125 L 64.738281 94.839844 L 52.949219 108.695312 L 51.511719 110.386719 L 40.628906 123.1875 L 33.609375 131.441406 L 33.613281 131.441406 C 38.578125 131.832031 43.730469 131.023438 48.703125 129.152344 Z M 99.175781 83.226562 L 93.578125 86.914062 C 93.371094 87.636719 93.054688 88.347656 92.625 89.035156 C 89.886719 93.464844 83.628906 95.191406 78.65625 92.894531 C 73.675781 90.59375 71.867188 85.140625 74.609375 80.710938 C 77.355469 76.285156 83.609375 74.558594 88.585938 76.855469 C 90.6875 77.832031 92.222656 79.363281 93.09375 81.148438 Z M 84.171875 80.542969 C 83.175781 79.683594 81.671875 79.800781 80.820312 80.808594 C 79.964844 81.8125 80.085938 83.320312 81.082031 84.179688 C 82.078125 85.039062 83.582031 84.921875 84.433594 83.917969 C 85.289062 82.914062 85.167969 81.402344 84.171875 80.542969 Z M 15.1875 153.097656 C 17.726562 154.6875 20.6875 155.425781 23.722656 155.1875 C 27.484375 154.890625 30.898438 153.140625 33.347656 150.265625 L 38.507812 144.195312 C 34.429688 143.15625 30.675781 141.320312 27.410156 138.722656 Z M 56.257812 150.957031 L 54.351562 144.4375 C 54.214844 144.464844 54.078125 144.492188 53.941406 144.519531 C 52.640625 144.761719 51.347656 144.945312 50.074219 145.058594 L 51.792969 150.957031 L 51.792969 150.960938 L 42.238281 150.960938 L 42.238281 155.265625 L 86.496094 155.265625 L 86.496094 150.960938 L 56.257812 150.960938 Z M 56.257812 150.957031 " clip-rule="nonzero"/></clipPath><linearGradient x1="0.000000371917" gradientTransform="matrix(0.288264, 0, 0, 0.290126, 15.186962, 75.839018)" y1="136.884995" x2="291.361996" gradientUnits="userSpaceOnUse" y2="136.884995" id="id3"><stop stop-opacity="1" stop-color="rgb(90.59906%, 83.099365%, 61.999512%)" offset="0"/><stop stop-opacity="1" stop-color="rgb(90.527344%, 82.983398%, 61.791992%)" offset="0.00390625"/><stop stop-opacity="1" stop-color="rgb(90.455627%, 82.868958%, 61.584473%)" offset="0.0078125"/><stop stop-opacity="1" stop-color="rgb(90.383911%, 82.754517%, 61.376953%)" offset="0.0117188"/><stop stop-opacity="1" stop-color="rgb(90.312195%, 82.640076%, 61.170959%)" offset="0.015625"/><stop stop-opacity="1" stop-color="rgb(90.238953%, 82.524109%, 60.96344%)" offset="0.0195312"/><stop stop-opacity="1" stop-color="rgb(90.167236%, 82.409668%, 60.757446%)" offset="0.0234375"/><stop stop-opacity="1" stop-color="rgb(90.09552%, 82.295227%, 60.549927%)" offset="0.0273437"/><stop stop-opacity="1" stop-color="rgb(90.023804%, 82.180786%, 60.342407%)" offset="0.03125"/><stop stop-opacity="1" stop-color="rgb(89.952087%, 82.064819%, 60.134888%)" offset="0.0351562"/><stop stop-opacity="1" stop-color="rgb(89.880371%, 81.950378%, 59.928894%)" offset="0.0390625"/><stop stop-opacity="1" stop-color="rgb(89.808655%, 81.835938%, 59.721375%)" offset="0.0429688"/><stop stop-opacity="1" stop-color="rgb(89.736938%, 81.721497%, 59.515381%)" offset="0.046875"/><stop stop-opacity="1" stop-color="rgb(89.665222%, 81.60553%, 59.307861%)" offset="0.0507812"/><stop stop-opacity="1" stop-color="rgb(89.593506%, 81.491089%, 59.100342%)" offset="0.0546875"/><stop stop-opacity="1" stop-color="rgb(89.520264%, 81.376648%, 58.892822%)" offset="0.0585938"/><stop stop-opacity="1" stop-color="rgb(89.448547%, 81.262207%, 58.686829%)" offset="0.0625"/><stop stop-opacity="1" stop-color="rgb(89.376831%, 81.14624%, 58.479309%)" offset="0.0664062"/><stop stop-opacity="1" stop-color="rgb(89.305115%, 81.031799%, 58.273315%)" offset="0.0703125"/><stop stop-opacity="1" stop-color="rgb(89.233398%, 80.917358%, 58.065796%)" offset="0.0742188"/><stop stop-opacity="1" stop-color="rgb(89.161682%, 80.802917%, 57.858276%)" offset="0.078125"/><stop stop-opacity="1" stop-color="rgb(89.089966%, 80.686951%, 57.650757%)" offset="0.0820313"/><stop stop-opacity="1" stop-color="rgb(89.01825%, 80.57251%, 57.444763%)" offset="0.0859375"/><stop stop-opacity="1" stop-color="rgb(88.946533%, 80.458069%, 57.237244%)" offset="0.0898438"/><stop stop-opacity="1" stop-color="rgb(88.874817%, 80.343628%, 57.03125%)" offset="0.09375"/><stop stop-opacity="1" stop-color="rgb(88.801575%, 80.227661%, 56.82373%)" offset="0.0976563"/><stop stop-opacity="1" stop-color="rgb(88.729858%, 80.11322%, 56.616211%)" offset="0.101562"/><stop stop-opacity="1" stop-color="rgb(88.658142%, 79.998779%, 56.408691%)" offset="0.105469"/><stop stop-opacity="1" stop-color="rgb(88.586426%, 79.884338%, 56.202698%)" offset="0.109375"/><stop stop-opacity="1" stop-color="rgb(88.514709%, 79.768372%, 55.995178%)" offset="0.113281"/><stop stop-opacity="1" stop-color="rgb(88.442993%, 79.653931%, 55.787659%)" offset="0.117188"/><stop stop-opacity="1" stop-color="rgb(88.371277%, 79.537964%, 55.580139%)" offset="0.121094"/><stop stop-opacity="1" stop-color="rgb(88.299561%, 79.423523%, 55.374146%)" offset="0.125"/><stop stop-opacity="1" stop-color="rgb(88.227844%, 79.309082%, 55.166626%)" offset="0.128906"/><stop stop-opacity="1" stop-color="rgb(88.156128%, 79.194641%, 54.960632%)" offset="0.132813"/><stop stop-opacity="1" stop-color="rgb(88.082886%, 79.078674%, 54.753113%)" offset="0.136719"/><stop stop-opacity="1" stop-color="rgb(88.011169%, 78.964233%, 54.545593%)" offset="0.140625"/><stop stop-opacity="1" stop-color="rgb(87.939453%, 78.849792%, 54.338074%)" offset="0.144531"/><stop stop-opacity="1" stop-color="rgb(87.867737%, 78.735352%, 54.13208%)" offset="0.148438"/><stop stop-opacity="1" stop-color="rgb(87.796021%, 78.619385%, 53.924561%)" offset="0.152344"/><stop stop-opacity="1" stop-color="rgb(87.724304%, 78.504944%, 53.718567%)" offset="0.15625"/><stop stop-opacity="1" stop-color="rgb(87.652588%, 78.390503%, 53.511047%)" offset="0.160156"/><stop stop-opacity="1" stop-color="rgb(87.580872%, 78.276062%, 53.303528%)" offset="0.164062"/><stop stop-opacity="1" stop-color="rgb(87.509155%, 78.160095%, 53.096008%)" offset="0.167969"/><stop stop-opacity="1" stop-color="rgb(87.437439%, 78.045654%, 52.890015%)" offset="0.171875"/><stop stop-opacity="1" stop-color="rgb(87.364197%, 77.931213%, 52.682495%)" offset="0.175781"/><stop stop-opacity="1" stop-color="rgb(87.29248%, 77.816772%, 52.476501%)" offset="0.179688"/><stop stop-opacity="1" stop-color="rgb(87.220764%, 77.700806%, 52.268982%)" offset="0.183594"/><stop stop-opacity="1" stop-color="rgb(87.149048%, 77.586365%, 52.061462%)" offset="0.1875"/><stop stop-opacity="1" stop-color="rgb(87.077332%, 77.471924%, 51.853943%)" offset="0.191406"/><stop stop-opacity="1" stop-color="rgb(87.005615%, 77.357483%, 51.647949%)" offset="0.195313"/><stop stop-opacity="1" stop-color="rgb(86.933899%, 77.241516%, 51.44043%)" offset="0.199219"/><stop stop-opacity="1" stop-color="rgb(86.862183%, 77.127075%, 51.23291%)" offset="0.203125"/><stop stop-opacity="1" stop-color="rgb(86.790466%, 77.012634%, 51.025391%)" offset="0.207031"/><stop stop-opacity="1" stop-color="rgb(86.71875%, 76.898193%, 50.819397%)" offset="0.210938"/><stop stop-opacity="1" stop-color="rgb(86.645508%, 76.782227%, 50.611877%)" offset="0.214844"/><stop stop-opacity="1" stop-color="rgb(86.573792%, 76.667786%, 50.405884%)" offset="0.21875"/><stop stop-opacity="1" stop-color="rgb(86.502075%, 76.553345%, 50.198364%)" offset="0.222656"/><stop stop-opacity="1" stop-color="rgb(86.430359%, 76.438904%, 49.990845%)" offset="0.226563"/><stop stop-opacity="1" stop-color="rgb(86.358643%, 76.322937%, 49.783325%)" offset="0.230469"/><stop stop-opacity="1" stop-color="rgb(86.286926%, 76.208496%, 49.577332%)" offset="0.234375"/><stop stop-opacity="1" stop-color="rgb(86.21521%, 76.094055%, 49.369812%)" offset="0.238281"/><stop stop-opacity="1" stop-color="rgb(86.143494%, 75.979614%, 49.163818%)" offset="0.242188"/><stop stop-opacity="1" stop-color="rgb(86.070251%, 75.863647%, 48.956299%)" offset="0.246094"/><stop stop-opacity="1" stop-color="rgb(85.998535%, 75.749207%, 48.748779%)" offset="0.25"/><stop stop-opacity="1" stop-color="rgb(85.926819%, 75.63324%, 48.54126%)" offset="0.253906"/><stop stop-opacity="1" stop-color="rgb(85.855103%, 75.518799%, 48.335266%)" offset="0.257812"/><stop stop-opacity="1" stop-color="rgb(85.783386%, 75.404358%, 48.127747%)" offset="0.261719"/><stop stop-opacity="1" stop-color="rgb(85.71167%, 75.289917%, 47.921753%)" offset="0.265625"/><stop stop-opacity="1" stop-color="rgb(85.639954%, 75.17395%, 47.714233%)" offset="0.269531"/><stop stop-opacity="1" stop-color="rgb(85.568237%, 75.059509%, 47.506714%)" offset="0.273438"/><stop stop-opacity="1" stop-color="rgb(85.496521%, 74.945068%, 47.299194%)" offset="0.277344"/><stop stop-opacity="1" stop-color="rgb(85.424805%, 74.830627%, 47.093201%)" offset="0.28125"/><stop stop-opacity="1" stop-color="rgb(85.351562%, 74.714661%, 46.885681%)" offset="0.285156"/><stop stop-opacity="1" stop-color="rgb(85.279846%, 74.60022%, 46.679688%)" offset="0.289062"/><stop stop-opacity="1" stop-color="rgb(85.20813%, 74.485779%, 46.472168%)" offset="0.292969"/><stop stop-opacity="1" stop-color="rgb(85.136414%, 74.371338%, 46.264648%)" offset="0.296875"/><stop stop-opacity="1" stop-color="rgb(85.064697%, 74.255371%, 46.057129%)" offset="0.300781"/><stop stop-opacity="1" stop-color="rgb(84.992981%, 74.14093%, 45.851135%)" offset="0.304688"/><stop stop-opacity="1" stop-color="rgb(84.921265%, 74.026489%, 45.643616%)" offset="0.308594"/><stop stop-opacity="1" stop-color="rgb(84.849548%, 73.912048%, 45.436096%)" offset="0.3125"/><stop stop-opacity="1" stop-color="rgb(84.777832%, 73.796082%, 45.228577%)" offset="0.316406"/><stop stop-opacity="1" stop-color="rgb(84.706116%, 73.681641%, 45.022583%)" offset="0.320312"/><stop stop-opacity="1" stop-color="rgb(84.632874%, 73.5672%, 44.815063%)" offset="0.324219"/><stop stop-opacity="1" stop-color="rgb(84.561157%, 73.452759%, 44.60907%)" offset="0.328125"/><stop stop-opacity="1" stop-color="rgb(84.489441%, 73.336792%, 44.40155%)" offset="0.332031"/><stop stop-opacity="1" stop-color="rgb(84.417725%, 73.222351%, 44.194031%)" offset="0.335937"/><stop stop-opacity="1" stop-color="rgb(84.346008%, 73.10791%, 43.986511%)" offset="0.339844"/><stop stop-opacity="1" stop-color="rgb(84.274292%, 72.993469%, 43.780518%)" offset="0.34375"/><stop stop-opacity="1" stop-color="rgb(84.202576%, 72.877502%, 43.572998%)" offset="0.347656"/><stop stop-opacity="1" stop-color="rgb(84.130859%, 72.763062%, 43.367004%)" offset="0.351562"/><stop stop-opacity="1" stop-color="rgb(84.059143%, 72.648621%, 43.159485%)" offset="0.355469"/><stop stop-opacity="1" stop-color="rgb(83.987427%, 72.53418%, 42.951965%)" offset="0.359375"/><stop stop-opacity="1" stop-color="rgb(83.914185%, 72.418213%, 42.744446%)" offset="0.363281"/><stop stop-opacity="1" stop-color="rgb(83.842468%, 72.303772%, 42.538452%)" offset="0.367187"/><stop stop-opacity="1" stop-color="rgb(83.770752%, 72.189331%, 42.330933%)" offset="0.371094"/><stop stop-opacity="1" stop-color="rgb(83.699036%, 72.07489%, 42.124939%)" offset="0.375"/><stop stop-opacity="1" stop-color="rgb(83.627319%, 71.958923%, 41.917419%)" offset="0.378906"/><stop stop-opacity="1" stop-color="rgb(83.555603%, 71.844482%, 41.7099%)" offset="0.382813"/><stop stop-opacity="1" stop-color="rgb(83.483887%, 71.730042%, 41.50238%)" offset="0.386719"/><stop stop-opacity="1" stop-color="rgb(83.41217%, 71.615601%, 41.296387%)" offset="0.390625"/><stop stop-opacity="1" stop-color="rgb(83.340454%, 71.499634%, 41.088867%)" offset="0.394531"/><stop stop-opacity="1" stop-color="rgb(83.268738%, 71.385193%, 40.881348%)" offset="0.398438"/><stop stop-opacity="1" stop-color="rgb(83.195496%, 71.269226%, 40.673828%)" offset="0.402344"/><stop stop-opacity="1" stop-color="rgb(83.123779%, 71.154785%, 40.467834%)" offset="0.40625"/><stop stop-opacity="1" stop-color="rgb(83.052063%, 71.040344%, 40.260315%)" offset="0.410156"/><stop stop-opacity="1" stop-color="rgb(82.980347%, 70.925903%, 40.054321%)" offset="0.414062"/><stop stop-opacity="1" stop-color="rgb(82.90863%, 70.809937%, 39.846802%)" offset="0.417969"/><stop stop-opacity="1" stop-color="rgb(82.836914%, 70.695496%, 39.639282%)" offset="0.421875"/><stop stop-opacity="1" stop-color="rgb(82.765198%, 70.581055%, 39.431763%)" offset="0.425781"/><stop stop-opacity="1" stop-color="rgb(82.693481%, 70.466614%, 39.225769%)" offset="0.429688"/><stop stop-opacity="1" stop-color="rgb(82.620239%, 70.350647%, 39.01825%)" offset="0.433594"/><stop stop-opacity="1" stop-color="rgb(82.548523%, 70.236206%, 38.812256%)" offset="0.4375"/><stop stop-opacity="1" stop-color="rgb(82.476807%, 70.121765%, 38.604736%)" offset="0.441406"/><stop stop-opacity="1" stop-color="rgb(82.40509%, 70.007324%, 38.397217%)" offset="0.445312"/><stop stop-opacity="1" stop-color="rgb(82.333374%, 69.891357%, 38.189697%)" offset="0.449219"/><stop stop-opacity="1" stop-color="rgb(82.261658%, 69.776917%, 37.983704%)" offset="0.453125"/><stop stop-opacity="1" stop-color="rgb(82.189941%, 69.662476%, 37.776184%)" offset="0.457031"/><stop stop-opacity="1" stop-color="rgb(82.118225%, 69.548035%, 37.57019%)" offset="0.460938"/><stop stop-opacity="1" stop-color="rgb(82.046509%, 69.432068%, 37.362671%)" offset="0.464844"/><stop stop-opacity="1" stop-color="rgb(81.974792%, 69.317627%, 37.155151%)" offset="0.46875"/><stop stop-opacity="1" stop-color="rgb(81.90155%, 69.203186%, 36.947632%)" offset="0.472656"/><stop stop-opacity="1" stop-color="rgb(81.829834%, 69.088745%, 36.741638%)" offset="0.476562"/><stop stop-opacity="1" stop-color="rgb(81.758118%, 68.972778%, 36.534119%)" offset="0.480469"/><stop stop-opacity="1" stop-color="rgb(81.686401%, 68.858337%, 36.328125%)" offset="0.484375"/><stop stop-opacity="1" stop-color="rgb(81.614685%, 68.743896%, 36.120605%)" offset="0.488281"/><stop stop-opacity="1" stop-color="rgb(81.542969%, 68.629456%, 35.913086%)" offset="0.492187"/><stop stop-opacity="1" stop-color="rgb(81.471252%, 68.513489%, 35.705566%)" offset="0.496094"/><stop stop-opacity="1" stop-color="rgb(81.399536%, 68.399048%, 35.499573%)" offset="0.5"/><stop stop-opacity="1" stop-color="rgb(81.32782%, 68.284607%, 35.292053%)" offset="0.503906"/><stop stop-opacity="1" stop-color="rgb(81.256104%, 68.170166%, 35.084534%)" offset="0.507812"/><stop stop-opacity="1" stop-color="rgb(81.182861%, 68.054199%, 34.877014%)" offset="0.511719"/><stop stop-opacity="1" stop-color="rgb(81.111145%, 67.939758%, 34.671021%)" offset="0.515625"/><stop stop-opacity="1" stop-color="rgb(81.039429%, 67.825317%, 34.463501%)" offset="0.519531"/><stop stop-opacity="1" stop-color="rgb(80.967712%, 67.710876%, 34.257507%)" offset="0.523438"/><stop stop-opacity="1" stop-color="rgb(80.895996%, 67.59491%, 34.049988%)" offset="0.527344"/><stop stop-opacity="1" stop-color="rgb(80.82428%, 67.480469%, 33.842468%)" offset="0.53125"/><stop stop-opacity="1" stop-color="rgb(80.752563%, 67.364502%, 33.634949%)" offset="0.535156"/><stop stop-opacity="1" stop-color="rgb(80.680847%, 67.250061%, 33.428955%)" offset="0.539062"/><stop stop-opacity="1" stop-color="rgb(80.609131%, 67.13562%, 33.221436%)" offset="0.542969"/><stop stop-opacity="1" stop-color="rgb(80.537415%, 67.021179%, 33.015442%)" offset="0.546875"/><stop stop-opacity="1" stop-color="rgb(80.464172%, 66.905212%, 32.807922%)" offset="0.550781"/><stop stop-opacity="1" stop-color="rgb(80.392456%, 66.790771%, 32.600403%)" offset="0.554688"/><stop stop-opacity="1" stop-color="rgb(80.32074%, 66.676331%, 32.392883%)" offset="0.558594"/><stop stop-opacity="1" stop-color="rgb(80.249023%, 66.56189%, 32.18689%)" offset="0.5625"/><stop stop-opacity="1" stop-color="rgb(80.177307%, 66.445923%, 31.97937%)" offset="0.566406"/><stop stop-opacity="1" stop-color="rgb(80.105591%, 66.331482%, 31.773376%)" offset="0.570312"/><stop stop-opacity="1" stop-color="rgb(80.033875%, 66.217041%, 31.565857%)" offset="0.574219"/><stop stop-opacity="1" stop-color="rgb(79.962158%, 66.1026%, 31.358337%)" offset="0.578125"/><stop stop-opacity="1" stop-color="rgb(79.890442%, 65.986633%, 31.150818%)" offset="0.582031"/><stop stop-opacity="1" stop-color="rgb(79.818726%, 65.872192%, 30.944824%)" offset="0.585938"/><stop stop-opacity="1" stop-color="rgb(79.745483%, 65.757751%, 30.737305%)" offset="0.589844"/><stop stop-opacity="1" stop-color="rgb(79.673767%, 65.643311%, 30.529785%)" offset="0.59375"/><stop stop-opacity="1" stop-color="rgb(79.602051%, 65.527344%, 30.322266%)" offset="0.597656"/><stop stop-opacity="1" stop-color="rgb(79.530334%, 65.412903%, 30.116272%)" offset="0.601562"/><stop stop-opacity="1" stop-color="rgb(79.458618%, 65.298462%, 29.908752%)" offset="0.605469"/><stop stop-opacity="1" stop-color="rgb(79.386902%, 65.184021%, 29.702759%)" offset="0.609375"/><stop stop-opacity="1" stop-color="rgb(79.315186%, 65.068054%, 29.495239%)" offset="0.613281"/><stop stop-opacity="1" stop-color="rgb(79.243469%, 64.953613%, 29.28772%)" offset="0.617188"/><stop stop-opacity="1" stop-color="rgb(79.170227%, 64.839172%, 29.0802%)" offset="0.621094"/><stop stop-opacity="1" stop-color="rgb(79.098511%, 64.724731%, 28.874207%)" offset="0.625"/><stop stop-opacity="1" stop-color="rgb(79.026794%, 64.608765%, 28.666687%)" offset="0.628906"/><stop stop-opacity="1" stop-color="rgb(78.955078%, 64.494324%, 28.460693%)" offset="0.632812"/><stop stop-opacity="1" stop-color="rgb(78.883362%, 64.379883%, 28.253174%)" offset="0.636719"/><stop stop-opacity="1" stop-color="rgb(78.811646%, 64.265442%, 28.045654%)" offset="0.640625"/><stop stop-opacity="1" stop-color="rgb(78.739929%, 64.149475%, 27.838135%)" offset="0.644531"/><stop stop-opacity="1" stop-color="rgb(78.668213%, 64.035034%, 27.632141%)" offset="0.648437"/><stop stop-opacity="1" stop-color="rgb(78.596497%, 63.920593%, 27.424622%)" offset="0.652344"/><stop stop-opacity="1" stop-color="rgb(78.52478%, 63.806152%, 27.218628%)" offset="0.65625"/><stop stop-opacity="1" stop-color="rgb(78.451538%, 63.690186%, 27.011108%)" offset="0.660156"/><stop stop-opacity="1" stop-color="rgb(78.379822%, 63.575745%, 26.803589%)" offset="0.664062"/><stop stop-opacity="1" stop-color="rgb(78.308105%, 63.461304%, 26.596069%)" offset="0.667969"/><stop stop-opacity="1" stop-color="rgb(78.236389%, 63.346863%, 26.390076%)" offset="0.671875"/><stop stop-opacity="1" stop-color="rgb(78.164673%, 63.230896%, 26.182556%)" offset="0.675781"/><stop stop-opacity="1" stop-color="rgb(78.092957%, 63.116455%, 25.976562%)" offset="0.679687"/><stop stop-opacity="1" stop-color="rgb(78.02124%, 63.000488%, 25.769043%)" offset="0.683594"/><stop stop-opacity="1" stop-color="rgb(77.949524%, 62.886047%, 25.561523%)" offset="0.6875"/><stop stop-opacity="1" stop-color="rgb(77.877808%, 62.771606%, 25.354004%)" offset="0.691406"/><stop stop-opacity="1" stop-color="rgb(77.806091%, 62.657166%, 25.14801%)" offset="0.695312"/><stop stop-opacity="1" stop-color="rgb(77.732849%, 62.541199%, 24.940491%)" offset="0.699219"/><stop stop-opacity="1" stop-color="rgb(77.661133%, 62.426758%, 24.732971%)" offset="0.703125"/><stop stop-opacity="1" stop-color="rgb(77.589417%, 62.312317%, 24.525452%)" offset="0.707031"/><stop stop-opacity="1" stop-color="rgb(77.5177%, 62.197876%, 24.319458%)" offset="0.710937"/><stop stop-opacity="1" stop-color="rgb(77.445984%, 62.081909%, 24.111938%)" offset="0.714844"/><stop stop-opacity="1" stop-color="rgb(77.374268%, 61.967468%, 23.905945%)" offset="0.71875"/><stop stop-opacity="1" stop-color="rgb(77.302551%, 61.853027%, 23.698425%)" offset="0.722656"/><stop stop-opacity="1" stop-color="rgb(77.230835%, 61.738586%, 23.490906%)" offset="0.726562"/><stop stop-opacity="1" stop-color="rgb(77.159119%, 61.62262%, 23.283386%)" offset="0.730469"/><stop stop-opacity="1" stop-color="rgb(77.087402%, 61.508179%, 23.077393%)" offset="0.734375"/><stop stop-opacity="1" stop-color="rgb(77.01416%, 61.393738%, 22.869873%)" offset="0.738281"/><stop stop-opacity="1" stop-color="rgb(76.942444%, 61.279297%, 22.663879%)" offset="0.742188"/><stop stop-opacity="1" stop-color="rgb(76.870728%, 61.16333%, 22.45636%)" offset="0.746094"/><stop stop-opacity="1" stop-color="rgb(76.799011%, 61.048889%, 22.24884%)" offset="0.75"/><stop stop-opacity="1" stop-color="rgb(76.727295%, 60.934448%, 22.041321%)" offset="0.753906"/><stop stop-opacity="1" stop-color="rgb(76.655579%, 60.820007%, 21.835327%)" offset="0.757812"/><stop stop-opacity="1" stop-color="rgb(76.583862%, 60.704041%, 21.627808%)" offset="0.761719"/><stop stop-opacity="1" stop-color="rgb(76.512146%, 60.5896%, 21.421814%)" offset="0.765625"/><stop stop-opacity="1" stop-color="rgb(76.44043%, 60.475159%, 21.214294%)" offset="0.769531"/><stop stop-opacity="1" stop-color="rgb(76.368713%, 60.360718%, 21.006775%)" offset="0.773438"/><stop stop-opacity="1" stop-color="rgb(76.295471%, 60.244751%, 20.799255%)" offset="0.777344"/><stop stop-opacity="1" stop-color="rgb(76.223755%, 60.13031%, 20.593262%)" offset="0.78125"/><stop stop-opacity="1" stop-color="rgb(76.152039%, 60.015869%, 20.385742%)" offset="0.785156"/><stop stop-opacity="1" stop-color="rgb(76.080322%, 59.901428%, 20.178223%)" offset="0.789062"/><stop stop-opacity="1" stop-color="rgb(76.008606%, 59.785461%, 19.970703%)" offset="0.792969"/><stop stop-opacity="1" stop-color="rgb(75.93689%, 59.671021%, 19.764709%)" offset="0.796875"/><stop stop-opacity="1" stop-color="rgb(75.865173%, 59.55658%, 19.55719%)" offset="0.800781"/><stop stop-opacity="1" stop-color="rgb(75.793457%, 59.442139%, 19.351196%)" offset="0.804688"/><stop stop-opacity="1" stop-color="rgb(75.720215%, 59.326172%, 19.143677%)" offset="0.808594"/><stop stop-opacity="1" stop-color="rgb(75.648499%, 59.211731%, 18.936157%)" offset="0.8125"/><stop stop-opacity="1" stop-color="rgb(75.576782%, 59.095764%, 18.728638%)" offset="0.816406"/><stop stop-opacity="1" stop-color="rgb(75.505066%, 58.981323%, 18.522644%)" offset="0.820312"/><stop stop-opacity="1" stop-color="rgb(75.43335%, 58.866882%, 18.315125%)" offset="0.824219"/><stop stop-opacity="1" stop-color="rgb(75.361633%, 58.752441%, 18.109131%)" offset="0.828125"/><stop stop-opacity="1" stop-color="rgb(75.289917%, 58.636475%, 17.901611%)" offset="0.832031"/><stop stop-opacity="1" stop-color="rgb(75.218201%, 58.522034%, 17.694092%)" offset="0.835938"/><stop stop-opacity="1" stop-color="rgb(75.146484%, 58.407593%, 17.486572%)" offset="0.839844"/><stop stop-opacity="1" stop-color="rgb(75.074768%, 58.293152%, 17.280579%)" offset="0.84375"/><stop stop-opacity="1" stop-color="rgb(75.001526%, 58.177185%, 17.073059%)" offset="0.847656"/><stop stop-opacity="1" stop-color="rgb(74.92981%, 58.062744%, 16.867065%)" offset="0.851562"/><stop stop-opacity="1" stop-color="rgb(74.858093%, 57.948303%, 16.659546%)" offset="0.855469"/><stop stop-opacity="1" stop-color="rgb(74.786377%, 57.833862%, 16.452026%)" offset="0.859375"/><stop stop-opacity="1" stop-color="rgb(74.714661%, 57.717896%, 16.244507%)" offset="0.863281"/><stop stop-opacity="1" stop-color="rgb(74.642944%, 57.603455%, 16.038513%)" offset="0.867188"/><stop stop-opacity="1" stop-color="rgb(74.571228%, 57.489014%, 15.830994%)" offset="0.871094"/><stop stop-opacity="1" stop-color="rgb(74.499512%, 57.374573%, 15.625%)" offset="0.875"/><stop stop-opacity="1" stop-color="rgb(74.427795%, 57.258606%, 15.41748%)" offset="0.878906"/><stop stop-opacity="1" stop-color="rgb(74.356079%, 57.144165%, 15.209961%)" offset="0.882812"/><stop stop-opacity="1" stop-color="rgb(74.282837%, 57.029724%, 15.002441%)" offset="0.886719"/><stop stop-opacity="1" stop-color="rgb(74.211121%, 56.915283%, 14.796448%)" offset="0.890625"/><stop stop-opacity="1" stop-color="rgb(74.139404%, 56.799316%, 14.588928%)" offset="0.894531"/><stop stop-opacity="1" stop-color="rgb(74.067688%, 56.684875%, 14.381409%)" offset="0.898438"/><stop stop-opacity="1" stop-color="rgb(73.995972%, 56.570435%, 14.173889%)" offset="0.902344"/><stop stop-opacity="1" stop-color="rgb(73.924255%, 56.455994%, 13.967896%)" offset="0.90625"/><stop stop-opacity="1" stop-color="rgb(73.852539%, 56.340027%, 13.760376%)" offset="0.910156"/><stop stop-opacity="1" stop-color="rgb(73.780823%, 56.225586%, 13.554382%)" offset="0.914062"/><stop stop-opacity="1" stop-color="rgb(73.709106%, 56.111145%, 13.346863%)" offset="0.917969"/><stop stop-opacity="1" stop-color="rgb(73.63739%, 55.996704%, 13.139343%)" offset="0.921875"/><stop stop-opacity="1" stop-color="rgb(73.564148%, 55.880737%, 12.931824%)" offset="0.925781"/><stop stop-opacity="1" stop-color="rgb(73.492432%, 55.766296%, 12.72583%)" offset="0.929687"/><stop stop-opacity="1" stop-color="rgb(73.420715%, 55.651855%, 12.518311%)" offset="0.933594"/><stop stop-opacity="1" stop-color="rgb(73.348999%, 55.537415%, 12.312317%)" offset="0.9375"/><stop stop-opacity="1" stop-color="rgb(73.277283%, 55.421448%, 12.104797%)" offset="0.941406"/><stop stop-opacity="1" stop-color="rgb(73.205566%, 55.307007%, 11.897278%)" offset="0.945312"/><stop stop-opacity="1" stop-color="rgb(73.13385%, 55.192566%, 11.689758%)" offset="0.949219"/><stop stop-opacity="1" stop-color="rgb(73.062134%, 55.078125%, 11.483765%)" offset="0.953125"/><stop stop-opacity="1" stop-color="rgb(72.990417%, 54.962158%, 11.276245%)" offset="0.957031"/><stop stop-opacity="1" stop-color="rgb(72.918701%, 54.847717%, 11.070251%)" offset="0.960937"/><stop stop-opacity="1" stop-color="rgb(72.845459%, 54.73175%, 10.862732%)" offset="0.964844"/><stop stop-opacity="1" stop-color="rgb(72.773743%, 54.61731%, 10.655212%)" offset="0.96875"/><stop stop-opacity="1" stop-color="rgb(72.702026%, 54.502869%, 10.447693%)" offset="0.972656"/><stop stop-opacity="1" stop-color="rgb(72.63031%, 54.388428%, 10.241699%)" offset="0.976562"/><stop stop-opacity="1" stop-color="rgb(72.558594%, 54.272461%, 10.03418%)" offset="0.980469"/><stop stop-opacity="1" stop-color="rgb(72.486877%, 54.15802%, 9.82666%)" offset="0.984375"/><stop stop-opacity="1" stop-color="rgb(72.415161%, 54.043579%, 9.619141%)" offset="0.988281"/><stop stop-opacity="1" stop-color="rgb(72.343445%, 53.929138%, 9.413147%)" offset="0.992188"/><stop stop-opacity="1" stop-color="rgb(72.270203%, 53.813171%, 9.205627%)" offset="0.996094"/><stop stop-opacity="1" stop-color="rgb(72.198486%, 53.69873%, 8.999634%)" offset="1"/></linearGradient></defs><path stroke-linecap="round" transform="matrix(0.000000000000000046, -0.750617, 1.054945, 0.000000000000000065, 121.443498, 157.533856)" fill="none" stroke-linejoin="miter" d="M 0.497857 0.00171988 L 113.415342 0.00171988 " stroke="#b88917" stroke-width="1" stroke-opacity="1" stroke-miterlimit="4"/><g clip-path="url(#id1)"><g clip-path="url(#id2)"><path fill="url(#id3)" d="M 15.1875 74.558594 L 15.1875 155.425781 L 99.175781 155.425781 L 99.175781 74.558594 Z M 15.1875 74.558594 " fill-rule="nonzero"/></g></g><g fill="#ffffff" fill-opacity="0.4"><g transform="translate(146.895933, 138.612888)"><g><path d="M 27.3125 -47.90625 C 31.03125 -47.90625 34.363281 -47.25 37.3125 -45.9375 C 40.269531 -44.625 42.785156 -42.859375 44.859375 -40.640625 C 46.929688 -38.429688 48.53125 -35.859375 49.65625 -32.921875 C 50.78125 -29.992188 51.34375 -26.929688 51.34375 -23.734375 C 51.34375 -20.160156 50.6875 -16.867188 49.375 -13.859375 C 48.0625 -10.859375 46.257812 -8.285156 43.96875 -6.140625 C 41.6875 -4.003906 39.03125 -2.328125 36 -1.109375 C 32.96875 0.109375 29.738281 0.71875 26.3125 0.71875 C 22.644531 0.71875 19.34375 0.0507812 16.40625 -1.28125 C 13.476562 -2.613281 11 -4.375 8.96875 -6.5625 C 6.945312 -8.757812 5.382812 -11.289062 4.28125 -14.15625 C 3.1875 -17.019531 2.640625 -20 2.640625 -23.09375 C 2.640625 -26.144531 3.1875 -29.160156 4.28125 -32.140625 C 5.382812 -35.117188 6.992188 -37.773438 9.109375 -40.109375 C 11.234375 -42.441406 13.820312 -44.320312 16.875 -45.75 C 19.925781 -47.1875 23.40625 -47.90625 27.3125 -47.90625 Z M 27.234375 -1.78125 C 30.429688 -1.925781 33.234375 -2.65625 35.640625 -3.96875 C 38.046875 -5.28125 40.054688 -6.945312 41.671875 -8.96875 C 43.296875 -11 44.5 -13.226562 45.28125 -15.65625 C 46.070312 -18.09375 46.46875 -20.5 46.46875 -22.875 C 46.46875 -25.5 45.988281 -28.144531 45.03125 -30.8125 C 44.082031 -33.488281 42.726562 -35.910156 40.96875 -38.078125 C 39.207031 -40.242188 37.097656 -42.003906 34.640625 -43.359375 C 32.179688 -44.722656 29.429688 -45.40625 26.390625 -45.40625 C 23.429688 -45.40625 20.78125 -44.75 18.4375 -43.4375 C 16.101562 -42.125 14.113281 -40.441406 12.46875 -38.390625 C 10.832031 -36.347656 9.582031 -34.0625 8.71875 -31.53125 C 7.863281 -29 7.4375 -26.519531 7.4375 -24.09375 C 7.4375 -21.46875 7.9375 -18.832031 8.9375 -16.1875 C 9.9375 -13.539062 11.316406 -11.144531 13.078125 -9 C 14.847656 -6.863281 16.9375 -5.125 19.34375 -3.78125 C 21.75 -2.445312 24.378906 -1.78125 27.234375 -1.78125 Z M 27.234375 -1.78125 "/></g></g></g><g fill="#ffffff" fill-opacity="0.4"><g transform="translate(199.874442, 138.612888)"><g><path d="M 3.21875 -0.71875 L 3.578125 -0.71875 C 3.953125 -0.71875 4.28125 -0.847656 4.5625 -1.109375 C 4.851562 -1.367188 5.109375 -1.6875 5.328125 -2.0625 C 5.546875 -2.445312 5.710938 -2.851562 5.828125 -3.28125 C 5.941406 -3.71875 6 -4.125 6 -4.5 L 6 -42.75 C 6 -43.082031 5.941406 -43.460938 5.828125 -43.890625 C 5.710938 -44.328125 5.546875 -44.734375 5.328125 -45.109375 C 5.109375 -45.492188 4.851562 -45.816406 4.5625 -46.078125 C 4.28125 -46.335938 3.953125 -46.46875 3.578125 -46.46875 L 3.21875 -46.46875 L 3.21875 -47.1875 L 13.515625 -47.1875 L 13.515625 -46.46875 L 13.15625 -46.46875 C 12.769531 -46.46875 12.429688 -46.335938 12.140625 -46.078125 C 11.859375 -45.816406 11.625 -45.492188 11.4375 -45.109375 C 11.25 -44.734375 11.09375 -44.328125 10.96875 -43.890625 C 10.851562 -43.460938 10.796875 -43.082031 10.796875 -42.75 L 10.796875 -2.640625 L 26.453125 -2.640625 C 27.359375 -2.640625 28.144531 -2.851562 28.8125 -3.28125 C 29.476562 -3.71875 30.035156 -4.253906 30.484375 -4.890625 C 30.941406 -5.535156 31.273438 -6.226562 31.484375 -6.96875 C 31.703125 -7.707031 31.8125 -8.390625 31.8125 -9.015625 L 32.53125 -9.015625 L 32.53125 0 L 3.21875 0 Z M 3.21875 -0.71875 "/></g></g></g><g fill="#ffffff" fill-opacity="0.4"><g transform="translate(231.690113, 138.612888)"><g><path d="M 3.5 -47.1875 L 13.734375 -47.1875 L 13.734375 -46.46875 L 13.375 -46.46875 C 13.039062 -46.46875 12.726562 -46.335938 12.4375 -46.078125 C 12.15625 -45.816406 11.914062 -45.503906 11.71875 -45.140625 C 11.53125 -44.785156 11.375 -44.378906 11.25 -43.921875 C 11.132812 -43.472656 11.078125 -43.082031 11.078125 -42.75 L 11.078125 -4.640625 C 11.078125 -4.265625 11.125 -3.847656 11.21875 -3.390625 C 11.320312 -2.941406 11.476562 -2.523438 11.6875 -2.140625 C 11.90625 -1.765625 12.144531 -1.429688 12.40625 -1.140625 C 12.664062 -0.859375 12.988281 -0.71875 13.375 -0.71875 L 13.734375 -0.71875 L 13.734375 0 L 3.5 0 L 3.5 -0.71875 L 3.859375 -0.71875 C 4.242188 -0.71875 4.578125 -0.847656 4.859375 -1.109375 C 5.148438 -1.367188 5.398438 -1.703125 5.609375 -2.109375 C 5.828125 -2.515625 5.984375 -2.941406 6.078125 -3.390625 C 6.171875 -3.847656 6.21875 -4.265625 6.21875 -4.640625 L 6.21875 -42.75 C 6.21875 -43.082031 6.171875 -43.460938 6.078125 -43.890625 C 5.984375 -44.328125 5.828125 -44.734375 5.609375 -45.109375 C 5.398438 -45.492188 5.148438 -45.816406 4.859375 -46.078125 C 4.578125 -46.335938 4.242188 -46.46875 3.859375 -46.46875 L 3.5 -46.46875 Z M 3.5 -47.1875 "/></g></g></g><g fill="#ffffff" fill-opacity="0.4"><g transform="translate(247.633666, 138.612888)"><g><path d="M 9.078125 -44.6875 C 9.078125 -44.40625 9.148438 -44.046875 9.296875 -43.609375 L 21.875 -9.71875 L 34.46875 -43.96875 C 34.507812 -44.0625 34.550781 -44.203125 34.59375 -44.390625 C 34.644531 -44.585938 34.671875 -44.734375 34.671875 -44.828125 C 34.671875 -45.398438 34.441406 -45.816406 33.984375 -46.078125 C 33.535156 -46.335938 33.125 -46.46875 32.75 -46.46875 L 32.75 -47.1875 L 40.546875 -47.1875 L 40.546875 -46.46875 C 39.828125 -46.46875 39.171875 -46.273438 38.578125 -45.890625 C 37.984375 -45.515625 37.519531 -44.875 37.1875 -43.96875 L 20.8125 0.859375 L 4.078125 -43.765625 C 3.785156 -44.472656 3.363281 -45.085938 2.8125 -45.609375 C 2.269531 -46.140625 1.59375 -46.425781 0.78125 -46.46875 L 0.78125 -47.1875 L 10.9375 -47.1875 L 10.9375 -46.46875 C 10.507812 -46.46875 10.09375 -46.3125 9.6875 -46 C 9.28125 -45.695312 9.078125 -45.257812 9.078125 -44.6875 Z M 9.078125 -44.6875 "/></g></g></g><g fill="#ffffff" fill-opacity="0.4"><g transform="translate(288.314846, 138.612888)"><g><path d="M 3.5 -47.1875 L 13.734375 -47.1875 L 13.734375 -46.46875 L 13.375 -46.46875 C 13.039062 -46.46875 12.726562 -46.335938 12.4375 -46.078125 C 12.15625 -45.816406 11.914062 -45.503906 11.71875 -45.140625 C 11.53125 -44.785156 11.375 -44.378906 11.25 -43.921875 C 11.132812 -43.472656 11.078125 -43.082031 11.078125 -42.75 L 11.078125 -4.640625 C 11.078125 -4.265625 11.125 -3.847656 11.21875 -3.390625 C 11.320312 -2.941406 11.476562 -2.523438 11.6875 -2.140625 C 11.90625 -1.765625 12.144531 -1.429688 12.40625 -1.140625 C 12.664062 -0.859375 12.988281 -0.71875 13.375 -0.71875 L 13.734375 -0.71875 L 13.734375 0 L 3.5 0 L 3.5 -0.71875 L 3.859375 -0.71875 C 4.242188 -0.71875 4.578125 -0.847656 4.859375 -1.109375 C 5.148438 -1.367188 5.398438 -1.703125 5.609375 -2.109375 C 5.828125 -2.515625 5.984375 -2.941406 6.078125 -3.390625 C 6.171875 -3.847656 6.21875 -4.265625 6.21875 -4.640625 L 6.21875 -42.75 C 6.21875 -43.082031 6.171875 -43.460938 6.078125 -43.890625 C 5.984375 -44.328125 5.828125 -44.734375 5.609375 -45.109375 C 5.398438 -45.492188 5.148438 -45.816406 4.859375 -46.078125 C 4.578125 -46.335938 4.242188 -46.46875 3.859375 -46.46875 L 3.5 -46.46875 Z M 3.5 -47.1875 "/></g></g></g><g fill="#ffffff" fill-opacity="0.4"><g transform="translate(304.258399, 138.612888)"><g><path d="M 30.53125 -0.71875 L 30.890625 -0.71875 C 32.035156 -0.71875 32.609375 -1.238281 32.609375 -2.28125 C 32.609375 -2.664062 32.535156 -3.070312 32.390625 -3.5 L 25.953125 -20.875 L 13.4375 -20.875 L 7.21875 -3.796875 C 7.070312 -3.410156 7 -3.050781 7 -2.71875 C 7 -2.09375 7.164062 -1.601562 7.5 -1.25 C 7.84375 -0.894531 8.203125 -0.71875 8.578125 -0.71875 L 8.9375 -0.71875 L 8.9375 0 L 1 0 L 1 -0.71875 L 1.359375 -0.71875 C 1.972656 -0.71875 2.578125 -1.085938 3.171875 -1.828125 C 3.773438 -2.566406 4.265625 -3.4375 4.640625 -4.4375 L 21.015625 -48.046875 L 37.03125 -4.859375 C 37.363281 -3.910156 37.828125 -2.984375 38.421875 -2.078125 C 39.023438 -1.171875 39.800781 -0.71875 40.75 -0.71875 L 41.109375 -0.71875 L 41.109375 0 L 30.53125 0 Z M 14.15625 -23.3125 L 25.171875 -23.3125 L 19.65625 -38.25 Z M 14.15625 -23.3125 "/></g></g></g><g fill="#ffffff" fill-opacity="1"><g transform="translate(143.73606, 135.453015)"><g><path d="M 27.3125 -47.90625 C 31.03125 -47.90625 34.363281 -47.25 37.3125 -45.9375 C 40.269531 -44.625 42.785156 -42.859375 44.859375 -40.640625 C 46.929688 -38.429688 48.53125 -35.859375 49.65625 -32.921875 C 50.78125 -29.992188 51.34375 -26.929688 51.34375 -23.734375 C 51.34375 -20.160156 50.6875 -16.867188 49.375 -13.859375 C 48.0625 -10.859375 46.257812 -8.285156 43.96875 -6.140625 C 41.6875 -4.003906 39.03125 -2.328125 36 -1.109375 C 32.96875 0.109375 29.738281 0.71875 26.3125 0.71875 C 22.644531 0.71875 19.34375 0.0507812 16.40625 -1.28125 C 13.476562 -2.613281 11 -4.375 8.96875 -6.5625 C 6.945312 -8.757812 5.382812 -11.289062 4.28125 -14.15625 C 3.1875 -17.019531 2.640625 -20 2.640625 -23.09375 C 2.640625 -26.144531 3.1875 -29.160156 4.28125 -32.140625 C 5.382812 -35.117188 6.992188 -37.773438 9.109375 -40.109375 C 11.234375 -42.441406 13.820312 -44.320312 16.875 -45.75 C 19.925781 -47.1875 23.40625 -47.90625 27.3125 -47.90625 Z M 27.234375 -1.78125 C 30.429688 -1.925781 33.234375 -2.65625 35.640625 -3.96875 C 38.046875 -5.28125 40.054688 -6.945312 41.671875 -8.96875 C 43.296875 -11 44.5 -13.226562 45.28125 -15.65625 C 46.070312 -18.09375 46.46875 -20.5 46.46875 -22.875 C 46.46875 -25.5 45.988281 -28.144531 45.03125 -30.8125 C 44.082031 -33.488281 42.726562 -35.910156 40.96875 -38.078125 C 39.207031 -40.242188 37.097656 -42.003906 34.640625 -43.359375 C 32.179688 -44.722656 29.429688 -45.40625 26.390625 -45.40625 C 23.429688 -45.40625 20.78125 -44.75 18.4375 -43.4375 C 16.101562 -42.125 14.113281 -40.441406 12.46875 -38.390625 C 10.832031 -36.347656 9.582031 -34.0625 8.71875 -31.53125 C 7.863281 -29 7.4375 -26.519531 7.4375 -24.09375 C 7.4375 -21.46875 7.9375 -18.832031 8.9375 -16.1875 C 9.9375 -13.539062 11.316406 -11.144531 13.078125 -9 C 14.847656 -6.863281 16.9375 -5.125 19.34375 -3.78125 C 21.75 -2.445312 24.378906 -1.78125 27.234375 -1.78125 Z M 27.234375 -1.78125 "/></g></g></g><g fill="#ffffff" fill-opacity="1"><g transform="translate(196.714568, 135.453015)"><g><path d="M 3.21875 -0.71875 L 3.578125 -0.71875 C 3.953125 -0.71875 4.28125 -0.847656 4.5625 -1.109375 C 4.851562 -1.367188 5.109375 -1.6875 5.328125 -2.0625 C 5.546875 -2.445312 5.710938 -2.851562 5.828125 -3.28125 C 5.941406 -3.71875 6 -4.125 6 -4.5 L 6 -42.75 C 6 -43.082031 5.941406 -43.460938 5.828125 -43.890625 C 5.710938 -44.328125 5.546875 -44.734375 5.328125 -45.109375 C 5.109375 -45.492188 4.851562 -45.816406 4.5625 -46.078125 C 4.28125 -46.335938 3.953125 -46.46875 3.578125 -46.46875 L 3.21875 -46.46875 L 3.21875 -47.1875 L 13.515625 -47.1875 L 13.515625 -46.46875 L 13.15625 -46.46875 C 12.769531 -46.46875 12.429688 -46.335938 12.140625 -46.078125 C 11.859375 -45.816406 11.625 -45.492188 11.4375 -45.109375 C 11.25 -44.734375 11.09375 -44.328125 10.96875 -43.890625 C 10.851562 -43.460938 10.796875 -43.082031 10.796875 -42.75 L 10.796875 -2.640625 L 26.453125 -2.640625 C 27.359375 -2.640625 28.144531 -2.851562 28.8125 -3.28125 C 29.476562 -3.71875 30.035156 -4.253906 30.484375 -4.890625 C 30.941406 -5.535156 31.273438 -6.226562 31.484375 -6.96875 C 31.703125 -7.707031 31.8125 -8.390625 31.8125 -9.015625 L 32.53125 -9.015625 L 32.53125 0 L 3.21875 0 Z M 3.21875 -0.71875 "/></g></g></g><g fill="#ffffff" fill-opacity="1"><g transform="translate(228.53024, 135.453015)"><g><path d="M 3.5 -47.1875 L 13.734375 -47.1875 L 13.734375 -46.46875 L 13.375 -46.46875 C 13.039062 -46.46875 12.726562 -46.335938 12.4375 -46.078125 C 12.15625 -45.816406 11.914062 -45.503906 11.71875 -45.140625 C 11.53125 -44.785156 11.375 -44.378906 11.25 -43.921875 C 11.132812 -43.472656 11.078125 -43.082031 11.078125 -42.75 L 11.078125 -4.640625 C 11.078125 -4.265625 11.125 -3.847656 11.21875 -3.390625 C 11.320312 -2.941406 11.476562 -2.523438 11.6875 -2.140625 C 11.90625 -1.765625 12.144531 -1.429688 12.40625 -1.140625 C 12.664062 -0.859375 12.988281 -0.71875 13.375 -0.71875 L 13.734375 -0.71875 L 13.734375 0 L 3.5 0 L 3.5 -0.71875 L 3.859375 -0.71875 C 4.242188 -0.71875 4.578125 -0.847656 4.859375 -1.109375 C 5.148438 -1.367188 5.398438 -1.703125 5.609375 -2.109375 C 5.828125 -2.515625 5.984375 -2.941406 6.078125 -3.390625 C 6.171875 -3.847656 6.21875 -4.265625 6.21875 -4.640625 L 6.21875 -42.75 C 6.21875 -43.082031 6.171875 -43.460938 6.078125 -43.890625 C 5.984375 -44.328125 5.828125 -44.734375 5.609375 -45.109375 C 5.398438 -45.492188 5.148438 -45.816406 4.859375 -46.078125 C 4.578125 -46.335938 4.242188 -46.46875 3.859375 -46.46875 L 3.5 -46.46875 Z M 3.5 -47.1875 "/></g></g></g><g fill="#ffffff" fill-opacity="1"><g transform="translate(244.473793, 135.453015)"><g><path d="M 9.078125 -44.6875 C 9.078125 -44.40625 9.148438 -44.046875 9.296875 -43.609375 L 21.875 -9.71875 L 34.46875 -43.96875 C 34.507812 -44.0625 34.550781 -44.203125 34.59375 -44.390625 C 34.644531 -44.585938 34.671875 -44.734375 34.671875 -44.828125 C 34.671875 -45.398438 34.441406 -45.816406 33.984375 -46.078125 C 33.535156 -46.335938 33.125 -46.46875 32.75 -46.46875 L 32.75 -47.1875 L 40.546875 -47.1875 L 40.546875 -46.46875 C 39.828125 -46.46875 39.171875 -46.273438 38.578125 -45.890625 C 37.984375 -45.515625 37.519531 -44.875 37.1875 -43.96875 L 20.8125 0.859375 L 4.078125 -43.765625 C 3.785156 -44.472656 3.363281 -45.085938 2.8125 -45.609375 C 2.269531 -46.140625 1.59375 -46.425781 0.78125 -46.46875 L 0.78125 -47.1875 L 10.9375 -47.1875 L 10.9375 -46.46875 C 10.507812 -46.46875 10.09375 -46.3125 9.6875 -46 C 9.28125 -45.695312 9.078125 -45.257812 9.078125 -44.6875 Z M 9.078125 -44.6875 "/></g></g></g><g fill="#ffffff" fill-opacity="1"><g transform="translate(285.154973, 135.453015)"><g><path d="M 3.5 -47.1875 L 13.734375 -47.1875 L 13.734375 -46.46875 L 13.375 -46.46875 C 13.039062 -46.46875 12.726562 -46.335938 12.4375 -46.078125 C 12.15625 -45.816406 11.914062 -45.503906 11.71875 -45.140625 C 11.53125 -44.785156 11.375 -44.378906 11.25 -43.921875 C 11.132812 -43.472656 11.078125 -43.082031 11.078125 -42.75 L 11.078125 -4.640625 C 11.078125 -4.265625 11.125 -3.847656 11.21875 -3.390625 C 11.320312 -2.941406 11.476562 -2.523438 11.6875 -2.140625 C 11.90625 -1.765625 12.144531 -1.429688 12.40625 -1.140625 C 12.664062 -0.859375 12.988281 -0.71875 13.375 -0.71875 L 13.734375 -0.71875 L 13.734375 0 L 3.5 0 L 3.5 -0.71875 L 3.859375 -0.71875 C 4.242188 -0.71875 4.578125 -0.847656 4.859375 -1.109375 C 5.148438 -1.367188 5.398438 -1.703125 5.609375 -2.109375 C 5.828125 -2.515625 5.984375 -2.941406 6.078125 -3.390625 C 6.171875 -3.847656 6.21875 -4.265625 6.21875 -4.640625 L 6.21875 -42.75 C 6.21875 -43.082031 6.171875 -43.460938 6.078125 -43.890625 C 5.984375 -44.328125 5.828125 -44.734375 5.609375 -45.109375 C 5.398438 -45.492188 5.148438 -45.816406 4.859375 -46.078125 C 4.578125 -46.335938 4.242188 -46.46875 3.859375 -46.46875 L 3.5 -46.46875 Z M 3.5 -47.1875 "/></g></g></g><g fill="#ffffff" fill-opacity="1"><g transform="translate(301.098526, 135.453015)"><g><path d="M 30.53125 -0.71875 L 30.890625 -0.71875 C 32.035156 -0.71875 32.609375 -1.238281 32.609375 -2.28125 C 32.609375 -2.664062 32.535156 -3.070312 32.390625 -3.5 L 25.953125 -20.875 L 13.4375 -20.875 L 7.21875 -3.796875 C 7.070312 -3.410156 7 -3.050781 7 -2.71875 C 7 -2.09375 7.164062 -1.601562 7.5 -1.25 C 7.84375 -0.894531 8.203125 -0.71875 8.578125 -0.71875 L 8.9375 -0.71875 L 8.9375 0 L 1 0 L 1 -0.71875 L 1.359375 -0.71875 C 1.972656 -0.71875 2.578125 -1.085938 3.171875 -1.828125 C 3.773438 -2.566406 4.265625 -3.4375 4.640625 -4.4375 L 21.015625 -48.046875 L 37.03125 -4.859375 C 37.363281 -3.910156 37.828125 -2.984375 38.421875 -2.078125 C 39.023438 -1.171875 39.800781 -0.71875 40.75 -0.71875 L 41.109375 -0.71875 L 41.109375 0 L 30.53125 0 Z M 14.15625 -23.3125 L 25.171875 -23.3125 L 19.65625 -38.25 Z M 14.15625 -23.3125 "/></g></g></g></svg>