<?xml version="1.0" standalone="no"?>
<!DOCTYPE svg PUBLIC "-//W3C//DTD SVG 20010904//EN"
 "http://www.w3.org/TR/2001/REC-SVG-20010904/DTD/svg10.dtd">
<svg version="1.0" xmlns="http://www.w3.org/2000/svg"
 width="900.000000pt" height="900.000000pt" viewBox="0 0 900.000000 900.000000"
 preserveAspectRatio="xMidYMid meet">
<metadata>
Created by potrace 1.10, written by Peter Selinger 2001-2011
</metadata>
<g transform="translate(0.000000,900.000000) scale(0.100000,-0.100000)"
fill="#ffffff" stroke="none">
<path d="M3555 7235 c-27 -8 -65 -14 -83 -15 -18 0 -49 -7 -69 -15 -19 -8 -48
-15 -62 -15 -15 0 -36 -7 -47 -15 -10 -8 -27 -15 -37 -15 -11 0 -33 -6 -50
-14 -18 -7 -56 -23 -85 -35 -241 -99 -493 -286 -678 -506 -49 -57 -132 -174
-147 -205 -4 -8 -16 -28 -26 -45 -51 -80 -126 -254 -165 -380 -52 -174 -68
-280 -73 -490 -5 -178 1 -236 38 -405 6 -25 14 -63 19 -85 7 -38 13 -54 47
-150 37 -101 114 -259 158 -325 19 -29 35 -54 35 -57 0 -2 28 -41 62 -86 114
-153 306 -331 463 -432 74 -48 166 -98 240 -130 22 -10 52 -24 67 -32 14 -7
35 -13 46 -13 12 0 23 -4 27 -9 3 -5 20 -12 38 -16 17 -4 50 -12 72 -20 152
-49 424 -79 584 -64 217 21 265 29 381 64 25 7 60 16 77 20 18 4 35 11 38 16
4 5 15 9 27 9 11 0 32 6 46 14 15 7 72 35 127 62 99 48 208 114 220 134 3 5
12 10 18 10 7 0 352 -340 767 -755 559 -558 761 -755 778 -755 13 0 37 -7 54
-16 69 -36 197 3 278 86 64 65 90 127 90 212 0 118 15 101 -732 848 -374 373
-708 706 -744 739 -35 33 -64 63 -64 66 0 4 15 25 34 48 72 89 180 310 216
442 5 17 13 44 18 60 18 52 35 128 43 190 4 33 12 84 18 114 16 79 13 323 -4
406 -8 38 -15 83 -15 99 0 16 -7 54 -16 85 -8 31 -22 81 -31 111 -53 189 -196
465 -313 604 -92 109 -172 189 -286 286 -30 26 -163 120 -169 120 -2 0 -23 13
-47 28 -41 27 -147 80 -213 107 -16 7 -47 20 -68 29 -21 9 -44 16 -51 16 -8 0
-27 7 -42 15 -16 8 -39 15 -52 15 -13 0 -33 5 -44 11 -12 6 -48 15 -82 20 -34
5 -81 13 -106 18 -71 16 -465 12 -525 -4z m470 -116 c195 -23 399 -84 568
-171 56 -29 113 -55 127 -58 14 -3 29 -14 34 -26 5 -11 25 -30 45 -41 125 -73
371 -328 435 -450 9 -18 25 -37 36 -43 11 -6 20 -17 20 -24 0 -8 25 -66 55
-129 149 -310 199 -686 136 -1013 -27 -139 -36 -174 -81 -290 -39 -102 -58
-143 -142 -309 -25 -49 -49 -100 -52 -112 -10 -33 10 -93 49 -149 19 -27 333
-348 698 -714 364 -366 677 -683 693 -705 17 -22 36 -56 43 -76 34 -105 -51
-219 -164 -219 -86 0 -104 16 -835 744 -382 381 -710 703 -728 715 -54 37 -90
43 -150 25 -29 -10 -57 -25 -63 -36 -5 -10 -14 -16 -19 -13 -11 7 -182 -79
-200 -100 -7 -8 -21 -15 -31 -15 -10 0 -43 -9 -73 -21 -235 -87 -521 -125
-757 -100 -262 29 -543 123 -724 244 -154 103 -202 138 -222 161 -13 14 -30
26 -38 26 -8 0 -15 5 -15 10 0 16 -81 100 -96 100 -7 0 -26 24 -43 53 -16 29
-41 63 -55 76 -14 14 -26 28 -26 33 0 4 -15 30 -33 56 -39 56 -114 201 -152
292 -150 366 -150 864 2 1235 25 61 71 156 104 212 32 56 59 105 59 109 0 4
17 26 38 49 20 23 62 73 92 110 106 131 284 276 445 362 55 29 103 60 108 68
4 8 18 15 31 15 12 0 67 16 122 35 85 30 273 75 369 88 66 9 296 7 390 -4z"/>
<path d="M3645 6769 c-68 -9 -181 -40 -295 -81 -72 -25 -236 -116 -269 -148
-14 -14 -38 -31 -53 -39 -30 -15 -227 -214 -271 -272 -15 -20 -27 -43 -27 -52
0 -9 -13 -31 -28 -49 -58 -68 -123 -229 -164 -403 -17 -74 -21 -123 -21 -270
0 -107 5 -204 13 -240 18 -84 72 -249 107 -320 40 -85 133 -233 157 -253 12
-9 28 -28 37 -42 30 -46 183 -190 202 -190 6 0 27 -15 47 -34 19 -19 73 -53
120 -77 47 -23 92 -48 100 -54 18 -14 148 -57 240 -79 303 -72 626 -27 916
130 67 36 80 45 112 75 9 9 32 24 50 33 35 18 170 149 238 232 71 86 174 256
174 288 0 7 12 35 26 62 14 27 39 105 55 174 25 110 29 144 29 285 0 295 -63
511 -218 745 -91 137 -368 400 -423 400 -9 0 -34 13 -56 29 -61 44 -141 75
-354 135 -67 19 -343 29 -444 15z m429 -135 c21 -8 49 -14 62 -14 13 0 38 -6
56 -14 18 -8 53 -22 78 -31 272 -106 500 -315 632 -580 48 -95 68 -143 68
-160 0 -8 6 -29 14 -47 59 -140 62 -477 4 -643 -5 -16 -12 -41 -15 -55 -2 -14
-11 -40 -19 -57 -8 -18 -21 -50 -30 -70 -9 -21 -20 -45 -25 -53 -4 -8 -17 -32
-29 -54 -34 -62 -130 -187 -189 -246 -50 -49 -182 -154 -236 -187 -40 -24
-166 -83 -178 -83 -7 0 -22 -7 -33 -15 -10 -8 -27 -15 -38 -15 -10 0 -39 -6
-65 -14 -138 -44 -346 -58 -456 -31 -33 8 -73 14 -89 15 -28 0 -103 22 -163
47 -17 7 -35 13 -41 13 -5 0 -48 20 -95 44 -174 90 -349 244 -451 396 -85 127
-157 294 -177 407 -5 29 -14 64 -19 78 -13 35 -13 341 1 385 5 19 14 58 19 85
11 71 33 128 94 255 46 93 48 98 117 190 159 213 444 402 661 440 27 5 54 12
60 17 39 24 410 22 482 -3z"/>
</g>
</svg>
